<svg xmlns="http://www.w3.org/2000/svg" viewBox="21 187 242 178"><path fill="#143a6e" d="M185.5 224.6q-.9-.3-.7-1.2.6.4.6 1.2m-94.9-34.3.2.1-.2.2zM137 322.4q0-.2.3 0v.3z"/><path fill="#143a6e" d="M253.9 190.6q-3.3-1.6-6.9-1.6h-74.6q-1.8 0-1 1.5l1.7 3 11.1 20.6q.9 1.8 2.8 1.7h25.4l2.5.2c2.3.7 3.8 3 3.4 5.4a8 8 0 0 1-1 2.7l-9.4 17.1-3.8 7.2q-.6 1.1-1.7 1h-55.6q-1.5-.2-2.4 1.2L133 272l-9.8 18-10.6 19.8q-1 1.8-1.2 3.7a8.7 8.7 0 0 0 8.9 9.3h12.2q2.3.1 4.6-.4 0-.2.3-.1v.7L116 362.2l1.3.7 26.4-48.6 18.5-34.1q.6-1.4 2.2-1.4h55.3q1.4.2 2.3-1.1l19.8-36.5 13.2-24.3 4.8-8.8c2.9-5 1.5-14.2-5.8-17.5m4.5 16.8-7 13-12 21.8-18.2 33.6q-.7 1.7-2.7 1.6h-54.4q-2.3-.2-3.2 1.8l-10 18.6-10.3 19q-1.6 3.5-5.5 4.6l-1.7.1h-13a7.5 7.5 0 0 1-7.6-7.8q0-1.8 1-3.3l9.4-17.6 11.9-21.8 10-18.6q.9-1.6 2.7-1.5H202c1.8 0 2.7-.5 3.5-2l13.3-24.4c1.2-2.2 1.6-4.5.4-6.8a6 6 0 0 0-4.5-3.3l-2.7-.2h-24.4q-1.5 0-2.2-1.2l-11.6-21.4q-.8-1.2.6-1h72.9q5.1 0 9 3.4a12 12 0 0 1 2.1 13.4"/><path fill="#143a6e" d="M190 233q-1.6-3.9-4-7.4 0-.6-.6-1-.7-.3-.6-1.2l-7.2-13.5-8.4-15.5a10 10 0 0 0-9.3-5.4h-19.2q-6.8 0-10 6l-3.2 6.2q-.3.7-1 1.3-.8-.8-1.2-1.8l-3.6-6.6a9 9 0 0 0-8.2-5l-17.3.1H48v1.3h42.6a16 16 0 0 0-4 5l-11.7 21.3-4.8 9.1-.5.9-9 16.7-18.4 33.8-10 18.3-7.9 14.7c-2.9 5.3 1.4 12.6 7.6 12.6h14q4.8 0 7.3-4.2l1.9-3.3 29-53.2 21.5-39.4q.2-.7.8-1 .7.5 1 1.3l3.3 6.3q.8 1.4 0 2.8l-10.1 18.4-13.2 24.2q-9.4 17.6-19 35c-3.1 5.8 1.2 13.3 8 13H89a9 9 0 0 0 8.6-5l6-10.9 19.5-35.8 22.9-42 4-7.5q.6.3.8 1l5 9.1q2.3 4.5 5 9a8 8 0 0 0 6 4.2q8.1.5 16.2 0h.1c5.6-1 9-6.8 6.8-12m-3.5 8.9a7 7 0 0 1-4.8 1.7h-13.3q-4.2 0-6.5-4l-10.5-19.2c-.3-.6-.4-1.5-1.2-1.4-.7 0-.8.8-1.1 1.3l-14.6 27.1-17.3 31.6-13.1 24.2-7.7 14q-2.3 4.5-7.5 4.4H76.7q-6.4-.2-7.8-6.4-.4-2.3.8-4.5l5.1-9.5 12.3-22.6 21.6-39.9 3.8-6.8q.7-1.1 0-2.2l-5.2-10c-.7-1.1-1-1.1-1.7.1L97.4 235 75 275.8l-14.9 27.3-7.7 14.2q-2.5 4.4-7.6 4.3H32.4a7.5 7.5 0 0 1-7.6-8q.1-1.6 1-3.1l15.3-28.1L54.9 257l14-25.8 2-4.1q.7-.6 1-1.4l9.4-17.2 7-13q2.5-4.6 7.6-5h17a8 8 0 0 1 7.6 4.5l5 9.1c.2.5.2 1.4 1 1.4.7 0 .8-.8 1-1.3l4.7-8.7q1.8-3.5 5.5-4.7l2.4-.3h20q5.1 0 7.7 4.5l4.3 7.9 12.7 23q1.5 3.3 3.3 6.4c1.9 3.5 1.3 7-1.6 9.5"/></svg>