<svg xmlns="http://www.w3.org/2000/svg" xml:space="preserve" viewBox="108 339 383 295"><g fill="#fff"><path d="M411.2 423.2q.4-.2.8 0 .5.7 1.1 1.1.3.1.5-.2v-10.6q-.2-.8.4-1.4v-.4q-.6-.4 0-.7c-.6-.5-.4-1.2-.4-1.8v-2c0-.4.5-.6.4-1v-2.7c0-.5.2-1-.4-1.4v-.4c.5-1.5.5-1.5 0-2.7v-1q.4-.3.4-.8v-7.8c0-.3-.6-1.5-.7-1.5-.7.2-.3-1-1-.8l-1.2-1-6.2-6.3q-1.1-1.4-2.5-2.1-.4-.3-.5-.8-.1-.3-.5-.2l-.2.3v2c.1.2.6.5.3.8-.5.4-.3 1-.3 1.5l.2.3q.3 0 0 .2-.4.4-.2 1l.3.6c0 .2-.4.3-.3.6v3.6c0 .3.6.6 0 .9v2.4q-.2.8.4 1.2.2.6-.3 1.1-.3.4-.1.5.8.6 0 1.2s.4.4.4.6v5.8c0 .2-.6.3-.3.6q.6.4 0 1-.2 0 0 .2t.3.5c0 .3-.7.4-.2.8l.2.7v11q0 .6-.4.9.3.2.4.8v6.4l-.2.6q-.2.3 0 .5c.1.1-.2.5-.1.6l.3.7-.1 3c-.5.2-.1.4 0 .6q.2.2 0 .4c-.1.3-.5.4 0 .7 0 1 .3 1.9-.1 2.7q-.2.3 0 .5c.4.4.1.8.2 1.3q.1.8-.4 1.2v.4c.6.5.3 1 .4 1.7v3.2l-.4.8q.5.3 0 .7v.5l.2.2q.2.2-.1.4t-.1.5q.5.5.3 1.2l-.2 1.2q-.4.5 0 1.4.3.3 0 .4-.4.5 0 .9h.2q-.6.6 0 1c-.7.5-.3 1.3-.4 2q0 .4.3.7.3.4 0 .6t-.2.3c.5.3 0 .5 0 .7q-.3.6.2 1.1.2.1 0 .3-.3.4-.3.7c-.2.4.8.7 0 1v8.1l-.2.2-.1-.1v-.6q0-.4-.3-1c-.4-.2.3-.3.2-.5-.2-.2-.6-.5-.3-.8q.4-.6.3-1.3 0-.4-.3-.6v-.4c.6-.6.2-1.5.3-2.2q0-.5-.4-.7c.8-.6.3-1.5.4-2.2v-5c0-.8.3-1.7-.4-2.5v-.3q.5-.4.4-.9v-4q0-.4-.3-.7l.3-.6q.1-.5-.2-.9l-.2-.1.2-.1q.4-.4 0-.9t-.1-1c.4-1.4.4-1.4 0-2.8v-.3c.6-.8.2-1.8.3-2.7v-2.6l-.1-.1-.2-.1h-1q-.8.6-1.8.4c-.5 0-.6.5-1 .4h-1.3c-.5.6-1.2.3-1.8.4-.4 0-.6.5-1 .4h-1.2c-.5.6-1.1.3-1.7.4-.5 0-.8.6-1.4.4q-.3 0-.3.4l-.3.9c-.2.5-.7 1-.5 1.8v.3c-.5.5-.5 1.3-1 1.7s.1 1.3-.6 1.5q-.2 1-.8 1.7c.1.7-.6 1.2-.4 1.8q-.6.6-.4 1.3c-.5.2-.4.8-.7 1.1s0 1-.5 1.4c.2.6-.5 1-.5 1.6-.4.2-.2.7-.4 1q-.1.7-.6 1.2l-.5 1q.1.8-.4 1.2c.2.7-.5 1-.5 1.6-.4.3-.2.8-.4 1q-.2.7-.6 1.2l-.5 1q.1.7-.4 1.2.1.9-.5 1.4c-.3.5-.2 1-.5 1.4q-.1.7-.6 1.2c.2.5-.4 1-.4 1.4 0 .5-.5.8-.4 1.2q0 .5-.3 1c-.2.5-.8.9-.5 1.5-.5.3-.4 1-.8 1.3q-.1 1.3-.9 2.2l-.5 1.4q-.1.7-.6 1.2c-.2.2.1.7-.3 1s0 1-.4 1.3l-.5 1v.7q0 .3.3 0t.7-.2q1 .2 1.6-.4h1.6c.3-.6.8-.4 1.3-.4s1 .2 1.5-.3q.3-.2 1-.1l1-.1q.6-.4 1.2-.3h1.2c.4-.7 1.2-.3 1.8-.4.4 0 .7-.5 1.2-.4h1.2c.9-.6 1.8-.3 2.7-.4.5 0 .8-.6 1.4-.4q.6 0 1.3-.3.3-.2 1-.1l2-.1c.4-.6 1.2-.2 1.8-.3.5-.8 1.6 0 2-.8h1.9q.4 0 .3-.6l-.1-.5q-.6-1.1-.1-2v-.6q-.3-.4-.2-.8.4-.6.5-1.4h.3v10.4q0 .4-.4.3l-.4-.2.3-.2q.3-.2 0-.3l-.3-.3q.5-.5.4-1 0-1-.4-1.7 0-.3-.4-.3c-.4 0-1-.2-1.3.3l-.2.1h-1.2q-.5 0-1 .3l-1.2.1q-.7-.1-1.3.3l-.5.1c-.9 0-1.7-.2-2.5.4H389c-.6 1-1.8 0-2.5.8h-.1q-1-.2-2 .2c-.6.4-1.3.2-1.9.2s-.8.6-1.4.4h-1.6c-.6.6-1.4.4-2 .4-.6.6-1.4.4-2.1.4-.6 0-.9.5-1.4.4h-1.4c-.5.7-1.3.3-1.9.4q-.7.2-.7.8l-.5 1.2c0 .4-.5.6-.4 1 .2.5-.4.6-.3.9.1.7-.5 1-.6 1.6l-.2.5-.5 1.2v.6c.6.4.4 1 .4 1.4v2.8q0 .5.6.4h.4q.6-.7 1.6-.3c.7.1 1.2-.6 1.9-.5h1.8c.5-.7 1.3-.3 2-.4.5 0 .8-.6 1.4-.4h1.6q1-.6 2-.4c.7 0 1-.6 1.7-.4h1.6c.7-.7 1.5-.3 2.2-.4.5 0 .6-.5 1-.4h2.3c.4 0 .7-.5 1.2-.4h1.2c.8-.5 1.6-.3 2.5-.4.6-.6 1.4-.3 2.2-.4.5 0 .7-.5 1.2-.4h1.4l1-.5v-.4q-.7-1.2 0-2.5l.1-1.5q.1-.8-.4-1.3v-.8q0-.6.4-.8l.2-.1.2.2v27.2l-.2.1h-.1l-.1-1v-17.6l-.4-.2H398c-.6.7-1.4.5-2 .4s-1 .5-1.7.4h-1.6c-.3.6-1 .3-1.4.4-.6 0-1.2-.2-1.7.4h-.2c-.8 0-1.6-.3-2.3.2q-1 .4-2.1.2c-.6 0-1 .5-1.6.4h-1.8c-.5.7-1.3.4-1.9.4s-1 .6-1.6.4h-1.6c-.7.7-1.5.3-2.3.4q-.7.4-1.6.4H371c-.4 0-.6.6-1 .4h-1q-.6-.1-1.3.2v2.5c.1.4-.4.5-.2.8q.2.3.2.7v1q-.8.4 0 1l-.1.2-.2.3c.6.4.3 1 .3 1.4 0 1 .3 1.9-.3 2.7q-.2.4.2.9.3.3 0 .7-.6.7 0 1.6.4.6 0 1.2-.3.3 0 .5.5.5 0 1-.7 1.3 0 2.4.4 1-.1 1.8l-.1.2v2.8c.6.4.3 1 .4 1.6v.4q-.8.5 0 1.1-.6.4 0 .9c-.8.7-.3 1.6-.4 2.4q-.2.8.3 1.2-.4.5-.3 1v1.5q0 .6.3 1c.2.2-.4.3-.2.6l.3.5q.1.3-.3.5-.2 0 0 .3l.2.2c-.7.8-.3 1.6-.3 2.5.6.3.3 1 .4 1.4 0 .6-.6 1-.5 1.7q.2 1 0 2v9.6l.2.2h4.7l.6-.3q.7.6 1.2 0 .1-.2.5-.1h4.9c.5 0 1 .2 1.4-.4q.3.6.7.1.4-.2 1 0l4-.1c.5 0 1 .2 1.4-.3q.3-.1.8 0l4-.1c.6 0 1.2.2 1.7-.3h6.5v.3q-.4.3-.9.4h-2.6c-.9 0-1.8-.3-2.7.4h-4.1c-1 0-2.1-.4-3.1.4H382c-.5 0-1-.2-1.5.3q-.3.2-.7.1h-5.3c-.5 0-1.1-.2-1.6.4h-4.4q-1 0-1 1.1v8.6c0 .4-.3.9.2 1q.5.2 1.2 0c.3-.5.9-.3 1.4-.3h7q.6 0 1-.3t.8.1q.3.4.6.1.4-.4 1-.3h4.3c.8 0 1.6.3 2.3-.4h7.2c.8 0 1.7.4 2.4-.4h3.4q.4.1.6.4.3.2 0 .3c-.5 0-.9.5-1.5.5h-11.5c-.6 0-1.3-.2-1.8.3q-.3.2-.8 0l-7.4.1c-.8 0-1.6-.4-2.3.4h-8q-.3.4-.2.9v21h-.3v-21.9h-2.3c-.3.6-.7 0-.8 0-.4.5-.9.3-1.3.4h-8.2q-.5 0-.7.2t-.3 0q-.3-.2-.7-.2t-.7.3c-.3.2-.4-.4-.5-.2q-.6.4-1.1.3h-8.2c-.7 0-1.3-.3-1.9.3q-.3.2-.8 0h-4q-1 0-1 1.2v19.4l-.2.3-.2-.4V561l-.2-1.2h-4c-.6 0-1 .5-1.7.4h-8.8c-.5 0-1-.2-1.5.3q-.4.2-1 0h-9.6c-.4 0-.5.5-.8.5q-.4 0-.4-.3l.1-.5h8c.9 0 1.8.3 2.5-.4h8q1 .2 1.6-.4.5-.2 1 .2h.2c.5-.5 1.2-.2 1.7-.2h4.7l.2-.3v-9.5q-.6-.4-1.2-.2h-4.8c-.4 0-.8.4-1.4.4h-5.4c-.7-.1-1.1.6-1.9.4h-6c-.5 0-.8.6-1.4.4h-6c-.5-.1-.7.3-1 .3q-.7.1-.6.7v8.2c0 .6 0 .6 1 .8l.2.2-.1.1h-.2q-1 .1-.8.8v16l-.1 1.6h-.7v-.8c-.4-.5.8-.8 0-1.3v-16l-.2-.2h-2.7l-.3-.2.3-.2h2.7l.2-.3v-4.6c0-.6-.2-1.3.3-1.8l-.1-.5-.1-.3q.3-.2 0-.6-.5-.5.1-1.2.3-.2 0-.2l-1.4-.1h-3l-.2-.2.1-.2h3.6q1 .1.7-1v-3.8c-.1-.6.5-.9.4-1.4l.3-.1v.1l.1 5.8q0 .6.4.1l.6-.1h4c.8 0 1.7.4 2.4-.4h5.6q.4 0 .7-.3t.7 0l.3.2c.4-.6 1-.3 1.6-.3h3.8c.6 0 1.2.2 1.7-.4h5.8c.7 0 1.1-.7 1.8-.4l.2-.3v-8q-.7-.3-1.4-.1h-1.4q-.6.4-1.4.4h-3c-.7-.2-1 .5-1.7.4H322q-1 .4-2 .4h-2c-.6 0-1 .5-1.7.4h-3.4c-.5-.1-.8.5-1.4.4h-3.2c-.4 0-.7.5-1.2.4h-2.8q-.7.4-1.5.4h-3.2c-.8-.1-1.4.6-2.2.4H295c-.8.6-1.8.3-2.7.3-.3 0-.5.6-.8.3q-.4-.5-1 0l-.5.2h-1.8c-.9 0-1.8-.4-2.6.4h-1.8c-1 0-2.1-.4-3 .4h-2.5q-.7 0-1.2.3-.5 0-.5.5v32.4l-.2 2-.2-.3v-13.8c0-.6.3-1.2-.3-1.7l.1-.2c.3-1 .3-1-.2-2.2v-.4c.6-.4.4-1 .4-1.6v-3.6l-.3-.7c-.2-.3.3-.4.3-.6v-.2l-.3-.6.3-.7q.2-.7-.4-1.2.7-.5.4-1.3c0-.6.3-1.4-.4-2v-.4q.5-.4.4-1v-2.2l-1.2-.2h-2.2l-.3.3q-.3.3-.6 0t-.5-.1l-.5.2c-.3 0-.6-.6-.9 0h-2.4q-.2.1-.2.5t-.4.3v-.8q0-.3-.3-.4c-.8 0-1.4-.7-2.2-.4-.3-.6-1-.2-1.4-.5q-1-.5-1.1.2c-.2.5-.7.9-.6 1.5v.2c-.7.3-.2 1.1-.7 1.6q-.5.4-.5 1.1l-.4 1q-.1.8-.4 1.3c0 .4-.6.7-.4 1.3 0 .3-.6.5-.4 1q0 .3-.2.5l-.6 1.4c0 .5-.6.8-.4 1.4v.2q-.6.7-.8 1.5-.1.8-.6 1.5c-.2.4 0 .9-.3 1.1s-.2.7-.5 1l-.6 1c-.2.2.1.7-.3 1-.3.4.1 1.1-.5 1.4 0 .6-.7.9-.4 1.5l-.3.4c0 .5-.6.7-.5 1.2s-.4.7-.4 1c0 .5-.6.8-.4 1.3l-1 2q-.1.6-.6 1c.7.4.1.7-.2 1s-.8.6-.6 1.3c0 .2-.4.4-.4.6 0 .5-.6.7-.4 1.3.1.4-.6.5-.4 1-.5.2-.3.9-.7 1.1q-.3 1.6-1.3 2.9 0 .8-.4 1.4c-.1.4-.6.7-.4 1.3l-.7 1.3c0 1-1 1.7-1 2.8l-.2.3-.6 1.6c0 .5-.5 1-.7 1.4q-.3.8-.8 1.5c.2.7-.4 1.2-.6 1.8l-.7 1.5-.1.1-.2-.3v-.6q.5-.5.4-1.2c.4-.3.3-.8.6-1.2q.5-.5.5-1.1c0-.5.4-.7.4-1 .1-.5.7-.8.5-1.3s.5-.6.4-1q.4-.6.4-1.2.3-.5.4-1.1c0-.4.5-.6.4-1 .4-.2.3-.7.6-1 .4-.3 0-.9.4-1.2.3-.2.2-.8.6-1q-.1-.7.4-1.2c-.1-.5.7-.8.4-1.4q.3-.6.4-1.3l.5-1 .3-.5q-.2-.5.1-1.1.4-.4.3-.9c0-.4.6-.6.4-1s.5-.6.4-1 .3-.8.4-1.1q.1-.5.5-.8l.3-.5c-.2-.6.6-1 .4-1.6v-.2c.7-.4.7-1.2 1-1.8.3-.4 0-.8.3-1l.4-.9c.4-.2.2-.7.5-1 .4-.3 0-.9.5-1.2l.5-1q0-.5.3-1t.5-.9c-.2-.5.6-.7.4-1.2s.3-.6.4-1q.5-.8.7-1.7c.1-.6.7-1 .5-1.6l.5-1 .4-.8q.4-.4.3-1v-.1q.6-.4.8-1.3 0-.7.5-1.2.3-.5.3-1 .4-.4.4-1c.4-.1.3-.6.6-.9s0-.6.2-.9l1.4-2.8q.4-.5.6-1.4l.2-.1.2.2v.8q.2.3.3 0l.3-.2c.6-.2 1.4.3 2-.3l1.9-.1c.6 0 .8-.5 1.4-.4h3.2c1.5-.7 3.1-.3 4.6-.4.6.2.8-.5 1.3-.4h3c.5-.1.8-.6 1.4-.5h3.2c.6.1 1-.5 1.7-.4q1 .2 2 0h1.8l1.2-.4h3q.6.2 1-.2.3-.2.6-.1h2c.5 0 1.1.2 1.5-.4h4.2l1.2-.4h2.8q.6.1 1-.4h.4c.3.5.6.2 1 0l.6-.3.6.2q1.5.2 2.8 0 1-.3 2-.3h2c.5-.1.9-.6 1.5-.5h3.2q.4 0 .7-.2.6-.9 1.7-.5c.4.6 1 .3 1.5.4l.3.2-.4.1h-1.2c-.6.1-1.3-.2-1.8.4h-1.2c-.8.2-1.7-.3-2.4.5h-2.8c-.5-.2-.7.4-1 .4h-2.9c-.6 0-1.3-.2-1.8.3-.3-.6-.6 0-.9 0h-2.6c-.6-.1-1 .4-1.6.5H305q-.4 0-.5.2c-.3.3-.6 0-1 .1-.2-.5-.5 0-.8 0h-1.8q-.5 0-1 .4c0 .1-.3-.6-.6-.1-.2.3-.5 0-.7.1-.7.1-1.4-.3-1.9.4H293c-.4 0-.4.5-.8.4q-.5 0-.8.2c-.2.4-.3 0-.5-.1h-.2q-.3-.1-.5.2 0 .3.2.5c.5 0 1 .6 1.6.5.7-.2 1.5.2 2-.4h2.4q1 .1 1.6-.4c.4.7.7-.2 1.1 0h2.8c.6-.1 1.2.2 1.7-.4h2.4c.8-.2 1.7.3 2.4-.4l.4.3c.6-.7 1.4-.3 2-.4 1-.1 2 .4 3-.4h2.7c.5 0 1 .2 1.5-.3h3.6c.5-.1 1.1.2 1.6-.4q.3-.1.8 0h3.2q.3 0 .5-.2.4-.4.6 0 .4.3.5 0 .5-.4 1.1-.3h2.6q.5 0 1.1-.3.8-.3 1.7 0l.1.1v.2q-.8-.1-.8.7c.1.5-.2 1 .3 1.5l-.2.5q0 .4.3.7l-.3.6v4.6l.1.2h4.1q.5 0 .7-.3c.2-.1.3.5.6.2l.6-.3h4.6c.6.2 1-.4 1.5-.4h3.6c.7 0 1.4.3 2-.3.5.6.8-.3 1.3-.1h4.4c.6 0 1.3.3 1.9-.3q.3-.2.7 0h4.4q.8-.1 1.5-.4.3-.1.4-.4.2-.7-.2-1.3c-.3-.2 0-.3 0-.4q.4-.7 0-1.2-.3-.2 0-.3l.2-.7c0-.5-.6-.6-.4-1q.4-.5.4-1.1c-.1-.5.2-1-.4-1.5q-.1-.5.2-1t0-.9q-.3 0 0-.3.4-.2.1-.6-.7-.6 0-1.1-.4-.4 0-.9-.4-.4-.3-1 0-.4.3-1 .3-.3 0-.8-.7-1 0-2l-.2-.2v-.2c-.1-.2.5-.2.1-.5-.3-.3 0-.4 0-.6q.4-.4 0-.7-.3-.2 0-.4.4-.5 0-.8c-.3-.3 0-.4 0-.4q.3-.2 0-.3l-.2-.3c0-.2.6-.3.2-.6s.1-.4.1-.6q.2-.5-.2-1-.3-.4 0-.7.7-.9 0-1.8c-.2-.3.3-.3.2-.6q-.3-.2-.3-.6l.2-.3c.3-.2 0-.3 0-.5q-.4-.4 0-.6.5-.6-.1-1v-.3q.4-.2 0-.4-.2-.3.1-.4.4-.4 0-.7-.5-.6 0-1 .3-.1 0-.3-.3 0 0-.4.2-.2 0-.4t-.1-.3q.4-.3 0-.6-.3-.2-.1-.5c.7-.7.2-1.5.4-2.3q0-.5-.3-.8-.4-.6 0-1c.4-.3-.2-.6 0-.8l.3-.9v-12.4l-.2-.5h-1.5q-.3 0-.4.4l-.5 1.2c-.4.4 0 .9-.3 1-.4.4-.3 1-.7 1.2-.2.2.1.8-.3 1.1l-.5 1c-.2.2 0 .7-.3 1s0 1.1-.5 1.4c0 .6-.7.9-.5 1.5.1.1-.3.4-.3.6 0 .5-.6.7-.4 1.3 0 .4-.6.5-.4 1-.5.2-.3.9-.7 1 0 1.2-1 1.9-1 3l-.3.6c0 .4-.6.5-.4 1s-.6.7-.5 1.2q-.4.5-.3 1-.1.3-.4.5c0 .6-.7 1-.4 1.6-.5.4-.4 1-.8 1.3.2.6-.4 1-.4 1.4 0 .6-.5.8-.4 1.3l-.1.5q-.6.9-.9 1.7l-.2-.1q-.2-.4 0-1 .6-.5.7-1.3c0-.6.6-.8.5-1.4s.5-.7.4-1.2.6-.9.4-1.5c.4-.2.3-.8.6-1.1.4-.3 0-1 .5-1.2 0-.5.6-.8.5-1.4s.6-.7.4-1.3v-.3c.5-.2.3-.8.6-1 .4-.3 0-.8.3-1 .4-.3.2-.8.6-1 0-1.1 1-1.8 1-2.9-.1-.2.3-.4.3-.6 0-.4.6-.6.4-1-.2-.6.6-.7.4-1.3q.5-.3.4-1l.3-.5c0-.5.7-1 .5-1.6.4-.3.3-1 .8-1.3-.2-.5.2-1 .4-1.4q.3-.5.4-1.2c0-.5.5-.9.7-1.3.2-.3 0-.8.3-1.1.4-.3 0-1.1.6-1.4-.1-.5.6-.8.4-1.4l.3-.5c0-.5.6-.8.5-1.4 0-.4.6-.7.4-1.2s.6-.6.4-1 .3-.7.4-1q.2-.8.6-1.2c.3-.4 0-.9.3-1.1.4-.3.2-1 .6-1.1v-.6c0-.1-.4-.1-.2-.4q.6-.4.7-1.1.4-.5.4-1l.5-1 .3-.5c-.2-.6.4-.8.4-1.3q.1-.8.6-1.5l.2-.5q-.1-1 .5-1.8.6-.7.7-1.6c0-.5.6-.8.4-1.4l.1-.3c.4-.3.3-.9.7-1.2q-.1-.6.4-1.2c-.3-.6.4-1 .4-1.4.6-.3.2-1 .5-1.4l.7-1.3c-.2-.6.4-1 .4-1.5q.1-.6.5-1.2.3-.2.3-.6 0-.6.4-.9.6-.4.4-1v-.2c.7-.3.2-1 .6-1.4.7-.9.6-2.2 1.4-3q-.1-.8.4-1.2c0-.9.6-1.4.8-2.1.1-.4.6-.7.4-1.2 0-.5.6-.7.4-1.3 0-.4.6-.5.4-1s.4-.6.4-.8q.1-1 .7-2l1-2.2c-.3-.5.2-.8.3-1.2q.2-.7.6-1.2c.3-.3 0-.8.3-1 .4-.4.2-.9.6-1.2s0-.7.3-1c.5-.4 0-1.2.6-1.4 0-.6.6-.9.4-1.5l.2-.3.6-1.3c0-.6.5-.9.5-1.5q0-.6.5-1.1c.2-.3 0-.7.4-.9q.3-.4.2-.9c0-.3.5-.4.4-.8v-.6q.6-.6.8-1.3.1-.7.4-1.2c.2-.5.6-1 .4-1.5.5-.3.4-1 .8-1.2q.1-.7.4-1.3c.1-.4.6-.7.4-1.2 0-.4.6-.7.4-1.2v-.2c.5-.3.4-.8.7-1.2s-.1-1 .4-1.2c0-.5.6-.8.5-1.4 0-.4.6-.7.4-1.2s.5-.5.4-.9q0-.5.3-.9l.1-.3q0-1 .7-1.7.6-.5.5-1.2c0-.5.6-.7.4-1.2s.4-.7.4-1q0-.5.3-.4l.1.3q0 .8-.3 1.5c-.3.3.2 1-.3 1.3s.1 1-.5 1.4q0 .8-.4 1.2c.2.7-.6 1.1-.5 1.8.1.4-.5.6-.4 1 .2.5-.4.6-.3.9 0 .5-.6.6-.5 1 .2.6-.4.8-.4 1.3l-.5 1q-.4.3 0 .5.3.3-.2.4-.6.4-.5 1t.4.5q.8.2 1.3-.2l.4-.2c.5 0 1 .3 1.5-.1s.9-.2 1.3-.3q.4 0 .3-.4l.4-.6-.4-.4v-11.4c0-1 .4-2.2-.4-3v-.3c.8-1 .3-2.1.4-3.2v-4q.2-1-.2-2c-.4-.4-.1-1-.2-1.7-.6-.4-.3-1-.4-1.6-.5-.2-.3-.8-.7-1.1s.2-1-.4-1.2c-.5-.3-.4-1-.8-1.3q-.2-.8-.8-1l.1-.4h.4l.6.5q.2.9.8 1.3t.5 1l.1.4q.7.8.7 1.9h.3v-1.2c.2-.3.6-.6 0-.9v-8.2q.1-.5-.4-.2-.3.2-.7.2c-.5-.1-.8.3-1.2.4-.5 0-1-.2-1.3.3q-.3.2-.6 0h-1.8c.2-.1-.2 0 0-.1q.5-.3 1-.2.4-.4 1-.4l.8-.4q.8.1 1.3-.3c.3-.3.8 0 1.2-.1q.5-.2.7-.8V373l.3-.2q.4 0 .5.2 0 .5.3 1 .4.6.1 1.2 0 .7.5 1l8 8c.5.6 1.4.8 1.9 1.5q.8 1 1.8 1.8.4 0 .3-.6V375l.1-.3h.2v12.8q0 .6.4 1 1.3 1.1 2.6 2.5.9.5 1.8 1.4l1.8 1.8 1.7 1.7 1.7 1.7q.1.2.5.3.2 0 .5-.3h.3v1.2q.5.7 1.1 1.2l3.5 3.5c.4.5 1 .5 1.5 1q.5.7 1.2 1.3l1.1 1.1 1.3 1.3 1.3 1.3q.3-.2.2-.7v-8.7l.2-.2.1.1.1.8v8.8q0 .5.4.9l5.2 5.2q.4.2.4.6-.5 0-.9-.2l-4.9-5-.1.2v31.6l2 2.3q-.5 0-.8-.2l-.6-.5h-.5l-.2.3v11l1.5 1.5v.2h-.3l-.5-.2q-.6-.3-.7.3v33q0 .5.4.8l1.1.7c1.6 1 3.4 1.6 5 2.7q1 .7 2.4 1.2.7.5 1.7.8c.6-.6.2-1.3.2-2v-4.6l.4-.2q.4 0 .4.3v.2l-.4.6v4.4l.1 1.6q.6.7 1.6 1l1 .5c1 .7 2.2.8 3 1.8l1.9.8q.8 0 1.2.6c.3.4.8.3 1.1.7q.3.1.5-.4v-40.6q.2-.5-.3-.9-.4-.1-.5-.6h.6q.3-.1.2-.5v-27.3c0-.5-.4-.6-.3-1l.3-.2c.1 0 .3-.4.4 0q0 .5.6.9l3.7 3.7q.2.3 0 .4h-.5l-.4-.5-2.4-2.4-.4-.3q-.4-.1-.5.2v3.2l.1.1q.3.3 0 .6l.2.5c-.1.2-.5.4 0 .6v.3q-.5.3 0 .6l-.1.3-.2.2q.8 1 0 2l.2.2q.3.1 0 .3-.4.3 0 .8t.1 1.1c-.4 1.2-.4 1.1 0 2.3q.2.7-.3 2v.6c-.2.4.7.7 0 1 .7.8.2 1.7.3 2.5q.1.4-.2.7t0 .7l.2.5c.2.4-.2.6-.3 1 .5.2.3.7.3 1v1.2l-.2.3-.1.2q.5.4 0 .8.5.4 0 .8.2 0 .3.6v1q.1.3.5.2l.6.5q.3 0 0 .3h-.2l-.6-.3c-.3 0-.8.8-.6 1q.4.4.3.9 0 .6-.3 1 .3.3.4.8 0 .5-.3.7t0 .3c.3.2.1.6.3.9.2.5-.8.8-.1 1.3v3.2q0 .5.4.8c-.6.3-.1 1-.5 1.4q-.4.2 0 .6l.1.5v3q.2.8-.3 1.4c.5.4.3 1 .3 1.5s.3 1.2-.3 1.6q.4.4.3 1c0 .5.2 1.1-.4 1.5v.4c.6.3.4.9.4 1.4s.2.9-.3 1.3c-.2.2.3.3.3.6v3.2q0 .4-.3.6l.3.6v2.4q0 .4-.2.5-.2.3-.2.8c0 .4.5.5.4 1v2.4q0 .6-.4.8c.7.5.3 1.2.4 1.9q0 .3.4.3l1.8.9q.5 0 .6.7l-.7-.1-1.8-1q-.5-.2-.7 0l.1.6q.4.3.3.7c-.2 1 .4 2-.4 2.8.8.7.3 1.6.4 2.4v1.8q0 .9.7 1.2.8.3 1.5.8c.6 0 1 .7 1.6.4l2.6 1.4v.2q-.7.1-1.5-.4l-1.5-.7-1.4-.5-1.4-.8q-.4-.2-.6.3v2.4q0 .5-.3 1.1-.3.4.1 1t0 .7c-.5.5.3.6.2 1 0 .2-.6.3-.2.7q.4.5 0 .8c-.3.3 0 .3 0 .5l.2.1q-.6.5-.4 1.2-.2.5.1 1c.5.4-.3.5-.1 1v11.3h-.4v-22.6q0-1-.9-1.3c-.5-.2-.8-.7-1.3-.7l-1.4-.5q-.4-.4-.9-.4l-.8-.4-1.4-.5-1.3-.7-1.3-.7-.6-.1q-.6 0-.5.3v1.8l-.3.3-.1-.2v-2q0-.7-.6-.9c-.4 0-.6-.5-1-.5s-.6-.6-1-.4q-.5-.5-1-.4t-.6-.3c-.5-.3-1.2-.3-1.6-.8-.8 0-1.3-.5-2-.7l-1.6-.9c-.3-.3-1 .1-1.2-.4l-.3.1v26.5h-.1l-.3-.1V521q0-.7-.3-1.2.4-.5.3-1v-6.7q0-.7-.3-1t0-.4c.5-.6.3-1.2.3-1.9v-4.6q0-.4-.3-.7c-.4-.4-.7-1-1.5-.7q-.8-.6-1.8-1-.5-.1-1-.5c-.4 0-.7-.6-1.1-.5s-.7-.3-1-.4l-1-.4c-.3 0-.4-.5-.8-.4-.8-.6-1.9-.4-2.7-1.4v4.3q0 .5-.3.9c-.2.2.4.3.2.5q-.4.3 0 .6.2.3.1.5c0 .7.2 1.5-.4 2 .6.4.4 1 .4 1.5l-.3.6.3.5q.2.5-.3.9-.3.3 0 .5.4.7.3 1.5v1.6q.2.8-.4 1.4c.5.3.3.8.4 1.2l-.3.7.3.6v.6c-.6.5-.4 1.2-.4 1.8l.1.4c.7.2-.6.8.2 1q.3.7 0 1.3c-.5.6-.2 1.2-.3 1.9l.2.3q.3.4.2.9c-.6.4-.4 1-.4 1.6v10.9h-.4v-40.3q0-.4-.4-.4-.7-.5-1.6-.8-1-.2-1.8-.7l-1.5-.7-1.6-.9c-.3-.3-.8.1-1-.2-.3-.4-.8-.3-1-.6l-1-.5q-.4 0-.5.2v33.9q0 .3-.4.3-.4.1-.4-.4v-12.2c0-1-.4-2 .4-2.9l-.1-.4q-.3-.2-.3-.6v-5.4c0-.4.6-.5.1-1-.3-.3 0-.9-.1-1.3v-1.2q0-.8.3-1.2c-.4-.3-.2-.7-.4-1-.2-.6.8-1 .1-1.4v-5q0-.9-.7-1l-1-.5-1-.5c-.3-.3-.8-.1-1-.5l-.4-.1a3 3 0 0 1-2-1q-.4-.8-1.3-.6-.4 0-.7-.3-1.8-1-3.7-1.7l-.2-.3v-.4h.3l1.6.8c.6.2 1 .8 1.8.7l.6.3c.5.1.7.6 1.3.5.3-.1.5.5 1 .4.2.5.9.2 1.1.7q1 0 2 .7l1.7 1q.5.1.6-.4v-10.6a1 1 0 0 0-.4-.8l-1-.8-2.6-1.2-1.3-.7c-.5-.1-.6-.9-1.3-.8-.8-.6-1.9-.8-2.7-1.5q-.8-.1-1.1-.7c-.3-.3-.3 0-.5 0l-.1.2q-.3-.1-.2-.5l.2-.3h.8l.8.5 1.4 1 1.5.7 1.2.6 1.3.7 1.1.7q.2.2.5.2.7-.1 1 .5c.3.4 1 .2 1.1.7l.3-.2v-39.1q0-.7-.7-.9l-1.1-.7q-.5-.2-.8-.8c-.3-.4-.8-.3-1-.6q-.4-.4-1-.6c-.3 0-.5-.7-.9-.7q-.5-.1-1-.6-.2-.5-.9-.7c-.4 0-.5-.7-1-.8q-.7-.2-1-.8c-.4-.4-1-.3-1.2-.7l-1-1c-.2-.2 0 .1 0-.1l.2-.1h.4c.6.8 1.6 1 2.1 1.7.3.4.8.3 1.1.7q.4.6 1.3.9l1 .7c.5 0 .6.8 1.1.8q.3 0 .5.3.4.6 1.2 1c.5 0 .7.7 1.3.8q.4.1.7.6h.4q.2 0 .3-.3v-12.7q0-.7-.6-.9-.3 0-.7-.3c-.1-.5-.7-.8-.9-1.4m7.6 6h-.6c-.7-1-2-1.4-2.6-2.3l-.3-.3q-.3-.3-.7-.2-.2.1-.2.5v11.9q0 .6.3 1l.6.4q1 .4 1.4 1c.5.5 1.2.6 1.5 1.2s1 .4 1.3.8q.4.7 1.2.9c.5.7 1.4.7 1.8 1.4s1.4.7 1.9 1.4c0 0 .1.4.4 0v-12.2q0-.5-.3-1c-.3-.2-.7 0-1-.5q-.3-.5-.8-.8-1-.3-1.4-1-.8-.6-1.3-1.5l.8.2 1 1c.4.3.5 1 1.2.8l1 1 .3.2.5-.1v-33.1q.1-.6-.4-1l-.3-.3q-.1-.5-.5-1-.6-.4-1-.9c-.7.2-.5-.6-.7-.7-.9-.2-1.2-1-1.8-1.4 0-.6-.6-.6-.8-.9l-2.2-2c-.6-.9-1.6-1-2.2-2-.1 0-.2-.4-.5 0V425q0 .7.5.8.9.4 1.4 1 .3.6.7.7.6 0 1 .6.6.3.8 1m16.8 13.2h.6l.2-.5v-1.2c.1-.3.6-.6 0-1q.4 0 .4-.3v-1.2q.1-.6-.2-1.2c-.2-.2.4-.5.2-1l-.2-.4c-.3-.7-.3-.7 0-1.3q.4-.4 0-.8-.3-.1 0-.3l.2-.5v-4l-.1-.3q-.3-.3 0-.6t0-.5q-.6-.5 0-1.1l-.1-.3q-.3-.1 0-.3.6-.4 0-1h-.1q.5-.5.4-1.1v-12.2q0-.9-.7-1.4l-1.5-1.5-1.6-1.6c-.8 0-1.1-.8-1.6-1.3q-3-2.7-5.7-5.6l-.2.4v7.2c0 .7.4 1.6-.4 2.2q.6.5.4 1.2v20.8c-.5.4-.1.6 0 1v1q0 .8.6 1t.9.5l1 1.1q1 .1 1.3.9.8.4 1 1.2h-.6c-.7-1-2-1.4-2.8-2.4l-.4-.4-.3-.3h-.5l-.2.3v11.8q0 .9.7 1c.7 0 .8 1 1.5.8q.3.1.6.6.6.4.8 1-1 0-1.7-.7l-1.3-1.3h-.3l-.3.3v3c.2.5-.7.8 0 1.3l-.4.4q.6.5 0 .9.9.9 0 1.9v.1q.4.3.4.7v5.8q-.1.4-.4.6l.4.6v1.6q.1.8-.4 1.5l.2.5.2.3v2.8c0 .1-.5.3-.3.4q.6.7 0 1.1-.3.2 0 .6.3 0 .3.5.1.8-.4 1.4c.6.3 0 .6 0 .9v.5c.7.8.3 1.7.4 2.5-.7.6-.3 1.5-.4 2.2q0 .4.3.5v.3q-.5.3-.1.8.5.8 0 1.7l-.1.2c.5.1 0 1 .8 1 .3 0 .4.5.8.4l1.7.8q.9.3 1.5 1c.6 0 .8.7 1.4.6q.3 0 .5.2.6.6 1.3.8l1.3.6 1.3.7q.3.1.5-.2v-.3q.8-.5.1-1.2-.2-.4.1-.6t.1-.3q-.5-.4 0-1 .2-.2.1-.5.1-.8-.4-1.2.6-.5 0-.9.7-1.7.3-2.8c-.4-.3 0-.5 0-.7q.4-.5 0-1-.6-.6 0-1.4v-.5c0-.2-.4-.2 0-.6.3-.3-.3-.4-.2-.5q.4-.6.3-1.2c-.1-.9.4-1.8-.3-2.5l.3-.4q-.6-.4-.2-1t.2-1.3q.2-.5-.2-1.1t0-1.2 0-.8l-.1-.2q.4-.3 0-.8.7-.6 0-1.1l.2-.3q.3-.3.1-.6l-.2-.2q-.3-.4-.1-.6.4-.4.3-1c0-.5.2-1-.3-1.3 0-.6-.2-1.1.3-1.6q.2-.4-.2-.7-.3-.1 0-.3.3-.3 0-.6t-.1-.5q.4-.4 0-.7v-.2q.4-.1.1-.5-.5-.3-.6-.8c.6-.4.5-.4.5-1s-.3-1 .2-1.5q.2 0 0-.2-.4-.3 0-.6.2-.3 0-.5-.6-.5 0-1.2.3-.3.1-.7l-.3-.5.3-.6c0-.5.2-1-.4-1.4l.2-.1q.4-.3 0-.6t0-.7q.3-.1 0-.4-.4-.7-.1-1.5c0-.2.4-.2.1-.6q-.6-.4-1-1.1M414.4 460v17.8q-.1 1.1.1 2.2l1.9.8 4.4 2.3q1.7.7 3.3 1.6.6.4.7-.3v-35.6q0-.7-.5-1.2-.3-.4-.8-.4c-.5-.7-1.4-.8-1.9-1.4l-.7-.6c-.6 0-.3-.7-.6-.8-.7 0-.9-.7-1.3-.8q-.7-.2-1-.8c-.4-.4-1-.3-1.3-.8-.5-.7-1.4-.8-1.9-1.4l-.3-.2v.4zm-79.7 99.3h1.9c.6.2 1-.4 1.5-.4h8.2c.5.2.9-.4 1.4-.4h9c.6.2 1-.4 1.6-.4h7.9q.8 0 .9-1v-5.6c-.7-.3.1-.7 0-1v-.6q-.7-.6 0-1.1.2-.7-.4-1.2-.4-.4-.8 0l-.5.1h-6c-.7-.1-1.2.5-1.9.4h-6c-.6-.2-.8.5-1.4.4h-6.8c-.4.6-1 .4-1.4.4h-4.8c-.6-.1-1 .5-1.5.4h-.8v.3c.4.3.2.8.3 1.1q-.6.5-.4 1.3zm102.7-66.8-.1.4v9.6q.1.5.7.8h.8l2.1 1.2 2.3 1 2.5 1.2 2 1c.5-.2.8.5 1.4.4.3.7 1.1 0 1.5.7q1.3.4 2.5 1.3c.4-.2.6.5 1 .4.5-.2.8.2 1.2.4l2.8 1.4q.9.5.8-.3v-8q0-.9-.9-1.2l-1.8-.8-1.8-1-2-1-1.8-.9-1.8-1-2.4-1-2.3-1.2-2.2-1q-1-.7-2.3-1.2zm-37-74.4v-2q0-.3-.3 0l-.3.2c-.6.1-1.2-.2-1.7.2s-1.2.1-1.7.2h-.4c-.4 0-.6.6-1 .5q-.5.2-.6.7l-.4.9q-.1.6-.4 1c0 .4-.5.6-.4 1s-.5.8-.4 1c.2.7-.5 1-.4 1.5-.7.3-.2 1-.6 1.4s-.2.8-.6 1.1c.2.6-.3 1-.5 1.4l-.4 1.3q0 .5-.5 1c-.4.3 0 .8-.4 1.2l-.8 1.6q-.4.5.2.4t1-.3q.6-.2 1.2 0c.5 0 .6-.5 1-.5q.7.2 1.6-.2c.5-.4 1.1 0 1.7-.2h.1c.5-.8 1.5 0 2-.8h1.1c.6.2.7-.6 1.3-.4h.6q.6 0 .3-.7l-.3-.4v-2.6l.2-.3q.3-.2 0-.3-.4-.4-.2-1c0-.1.4-.4.3-.5 0-.2-.4-.4-.3-.7 0-.5-.2-1.2.3-1.7l-.1-.2q-.4-.5 0-.7.4-.4 0-.8l-.2-.5zm36.4 77v-2.6c-.7-.5-1-1.5-2.2-1.3h-.1q-1.1-.6-2-1.4c-.4-.4-1 0-1.3-.4q-1.2-.7-2.5-1.2l-2.4-1.3q-.6-.2-.7.4v3.2c0 .8.2 1.6-.4 2.3-.2.2.4.4.4.8 0 .6.3 1.3-.4 1.8q.6.5 0 .9l.8 1.4 2.3 1.1q1.1.8 2.4 1c.2.4.7.1.9.4s.7.2 1 .6c.1.2.5 0 .8.4.2.3.7 0 1 .3.5.4 1.3.4 1.8 1q.4.2.6-.3v-4q0-.4-.3-.7l.4-.8zm-22.2-14.2q-.3.3-.2.6v10.1q0 1 .8 1.2l.8.5q.5.3.8.3t1 .3q.6.5 1.6.8l1.5.8c.5.2 1 .7 1.7.6h.2l1.6 1q.5.2.4-.3v-8.6q.2-1-.1-2l-1.9-1c-.3 0-.5-.5-1-.4-.5-.5-1.4-.5-2-1-.4-.6-1.1-.7-1.7-1.1l-.9-.3-.3-.1c-.6-.8-1.6-.8-2.3-1.4m-145.3 62.4h-1.8c-.4.7-1 .4-1.6.4h-1.6l-.1.2.1.2h1c.4 0 .6.6 1 .4s.7.5 1.2.4h1.4c.5-.1.9-.6 1.5-.4l.2-.3q0-.3.2-.5.2-.4-.1-.4zm97.8-53.7v-1.4l-.1-.1h-.2c0 .5-.5.9-.5 1.4 0 .6-.5 1-.5 1.6l-.2.3v.5q.1.2.4.1l.4-.2q.9-.1.7-1zM149.8 567l-.2-.2v-1q.6-.6.7-1.4c0-.6.6-.9.5-1.5l.2-.5c.2-.8 1-1.4 1-2.4.5-.6.6-1.5 1.2-2q-.2-.9.3-1.4c.2-.2 0-.7.4-1 .2-.2 0-.6.4-.8.1-.8 1-1.4.9-2.3l1-2.1q.4-1.5 1.2-2.7c.3-.4 0-1 .4-1.3q.5-.4.5-1.2l.4-.8.5-1.2c.5-.4.2-1 .5-1.4s.2-.9.7-1.1c-.1-.9.5-1.4.7-2.1.2-.4.7-.7.5-1.2s.5-.6.4-1q.5-.6.4-1.3l.1-.1.8-1.5.3-1.1q.2-.6.6-1.1.1-.6.6-1c-.1-.9.5-1.5.8-2.3l.7-1.3c.2-.4 0-1 .5-1.2-.1-.6.6-1 .4-1.6l.8-1.3.7-1.5c.2-.3 0-.9.4-1.2.2-.2 0-.8.3-1.1l.6-1c-.2-.5.6-.7.4-1.2s.3-.7.4-1q.3-.6.4-1.3l.2-.3c.2-.8.9-1.4 1-2.2s.9-1.4.8-2.3l.8-1.4.5-1.2c.4-.3 0-.8.3-1 .4-.4.3-1 .7-1.2l.2-1c.3-.2.2-.7.5-1q.3-.2.4-.7c.3-.4 0-1 .6-1.4 0-.5.6-.9.4-1.5l.6-1c.3-.4 0-.8.2-1q.2-.4.7-.7v-.2c0-1.3 1.4-2.2 1.3-3.5 0-.2.4-.3.4-.6 0-.4.5-.6.4-1-.2-.6.6-.8.4-1.3q.4-.4.4-1l.3-.5c0-.5.6-.7.5-1.2.6-.3.2-1 .5-1.4q.5-.5.6-1.2c.2-.2 0-.7.4-1l.4-.8c-.1-.5.6-.7.5-1.2-.2-.5.4-.7.4-1 0-.5.5-.8.4-1.3s.5-.6.4-1c.5-.2.2-1 .7-1.1q0-.8.5-1.5t.4-1.4l.1-.1.7-1.4.4-1.2q.2-.6.8-1.3-.2-.5.1-.9c.4-.2.2-.7.6-1 .2-.2 0-.6.4-.8 0-1 .7-1.6.9-2.4q0-.3.5-.3t.3.4c-.2.6.5.9.4 1.4q1.3 1.5 2 3.4l4.8 9.6c.2.6 1 .8.8 1.5q.5.4.6 1 .5.5.6 1.1c0 .4.6.6.4 1q.1.3.4 0l.8-1.3.2-.9.5-.8c.3-.4 0-.9.3-1.3q.4-.4.6-1.1.3-.5.4-1.2c0-.4.5-.8.6-1.2.2-.5.7-.9.6-1.5l.1-.4c.3-.3.9-.5.7-1.1-.1-.5.6-.7.4-1.2s.6-.7.4-1.3q.1-.5.7-.9l.1-.6q0-.4.3-.6l.7-1.1c.4-.4.2-.8.2-1.2q.1-.4.4-.6c.2-.9 1-1.5.8-2.5.6-.5.6-1.2 1-1.8l.2-.5q.1-.7.5-1 .4-.2.3-.4c-.1-.7.6-1 .4-1.7v-.2q.6-.7.8-1.5c-.2-.5.6-.8.5-1.4.5-.2.2-.7.4-1l.6-1.2.5-1q.1-1 .8-1.8c-.1-.5.6-.8.4-1.2 0-.5.4-.7.4-1 0-.5.6-.8.4-1.3 0-.4.5-.5.4-.9l.9-2 1-2q.5-.7-.2-1.2c-.4-.3-.4-1-.8-1.2l-.7-1.2-.7-1-.7-1.2-.5-1.2c-.3-.3-.2-.7-.5-1l-.6-1.1q-.2-.7-.6-1.2-.2-.4-.2-1l.2-.2.2.1.4.6c0 .4.5.5.4.9q.2.5.6.7l1 2 1.5 3q.2.6.6 1c.4.2.2.7.6 1q.2.1.1.5.2.3.4 0c.3-.3 1.2-2 1.2-2.3q0-.6.4-.9c-.1-.4.4-.6.4-1s.6-.6.4-1 .5-.6.4-1c.8-1 .8-2.5 1.6-3.4-.2-.7.4-1 .5-1.6 0-.5.5-.9.7-1.3q.3-.8.8-1.5.1-.9.4-1.4c.1-.4.6-.6.5-1q.1-.3.2-.2l.1.2v.8c-.7.3 0 1.2-.7 1.5.1.5-.6.7-.5 1.2q-.5.5-.4 1.3c-.4.2-.2.8-.7 1q0 1.2-.8 2.1 0 .9-.7 1.5l-.1.4c.2.5-.4.8-.4 1.2s-.5.6-.5 1q0 .8-.4 1.2c-.4.4-.2.8-.4 1.1l-.7 1.5-.6 1.1c-.4.4 0 1-.3 1.1-.4.3-.2 1-.7 1.1 0 1-.7 1.8-1 2.6-.5.3 0 1-.5 1.4q-.4.5-.6 1.2-.5.6-.7 1.3t-.4 1.4c0 .6-.6 1-.5 1.6l-.7 1.4-.4.8.3.6v.6l-.2.1c-.2 0-.4-.5-.5 0-.2.8-1 1.3-.8 2.2l-1.1 2c-.3.4 0 1-.6 1.4 0 .5-.6.8-.4 1.4 0 .3-.6.6 0 .9l-.5 1q-.2.6-.7 1.1c.3.6-.3 1-.4 1.4q0 .5-.2.7-.7.6-.6 1.4.1.6-.4.8c.2.5-.4.7-.4 1 0 .5-.3.4-.5.5q-.4 0 0 .3v.2l-.1.3c-.4.3 0 1-.6 1.3q-.3.2-.4.6l-.7 1.4c-.3.4.2 1.2-.4 1.6 0 .5-.7.8-.5 1.4q0 .5-.4.5l-.4.1v.6q.3.9-.7 1v.2q.5.3 0 .5h-.4q-.2.8-.5 1.3c-.5.4-.2 1-.5 1.4l-.7 1.1c-.1.1 0 .7 0 .8.6.3.1.6 0 .9q0 .3-.2.4l-.4-.3q-.4.3-.6.8.1.6-.4 1c.1.4-.3.5-.4.8q.1.5-.2 1c-.4.2 0 .8-.3 1-.4.3-.2 1-.7 1.2.2.4-.4.6-.4 1s-.6.6-.4 1-.4.6-.4.9q-.2 1-.6 1.7-.1.6-.6 1c.1.5-.3 1-.4 1.4q.1.6-.4 1-.5.3-.4.9l-.2.5-.6 1.3c0 .6-.6 1-.4 1.5l-1.1 2.1q-.6.5-.5 1.2v1.2q0 .3-.4.3-.6 0-.2.5.3 0 0 .2l-.2.3q.2 1-.7 1.1v.3l.2.3c-.6.6-.6 1.5-1.2 2l-1 2-.2.8q-.6.8-1 1.8l-1 2-.4 1q0 .8-.4 1.2-.5.5-.3 1.1l-.5.6q-.1.8-.4 1.5-.2.6-.7 1.2l-.7 1.4c-.3.4 0 .9-.4 1.2q-.4.5-.5 1.2c-.2.4-.6.7-.4 1.2l-.3.5c0 .5-.6.7-.5 1.2-.6.3-.2 1-.6 1.4l-.6 1.1c-.2.3 0 .8-.3 1q-.1.5-.5.9c.2.5-.6.7-.4 1.2s-.4.7-.4 1c0 .5-.6.8-.4 1.3 0 .3-.4.4-.4.6-.2.8-1 1.4-.8 2.3l-1.1 2c-.3.3 0 .8-.4 1.2l-.5 1q0 .5-.3 1t-.5.8c.2.6-.6.7-.4 1.3.1.4-.4.6-.5 1q-.1.6-.5 1.1c-.4.4 0 .9-.3 1.1-.4.3-.3.9-.7 1.2-.2.1 0 .7-.2.9s-.1.7-.5 1q-.3.3-.4.8c-.3.4 0 1-.5 1.4q0 .7-.4 1.2-.6.9-.8 1.7t-.8 1.7l-.4 1.2q-.2.8-.6 1.4c-.2.3-.2.9-.7 1q0 1.1-.7 2v.6q.1.4-.5.5-.2 0-.3-.2v-.5c.4-.3.2-.8.4-1q.2-.7.6-1.2l.5-1c-.2-.6.3-1 .5-1.4l.4-1.3c0-.4.6-.8.7-1.2 0-.5.5-.7.4-1q0-.7.4-1.1c.2-.3 0-.8.3-1l.5-.9c-.1-1 1-1.7.8-2.8.5-.3.4-1 .8-1.3 0-.5.6-.7.4-1.2s.4-.7.5-1q.3-.6.3-1.3l1.1-2q.5-.5.5-1.1l.5-1.3q.3-.5.4-1.2l.4-.7.3-.8c.1-.4.6-.6.4-1 0-.4.4-.6.4-.9.2-.7 1-1.3.8-2.2l1.1-2c0-1 1-1.7 1-2.8l.3-.6.4-.9c.1-.4.6-.6.4-1 0-.4.4-.6.4-.9.2-.7 1-1.3.8-2.2l1.1-2q.4-1.5 1.3-2.9 0-.8.4-1.4.6-.5.5-1.4l.3-.4q.2-.9.7-1.4c.3-.4 0-1 .5-1.4-.2-.5.7-.7.5-1.2q.3-.4.4-1 0-.6.6-1.2.1-.5.5-1 0-.8.5-1.4t.4-1.4l.4-.4q.2-.8.7-1.5l.4-1.5q.5-.3.5-1c.6-.2.2-1 .5-1.4q.5-.5.6-1c.2-.6.7-1 .5-1.5l.4-.7.5-1.1c.4-.4 0-.9.3-1 .4-.4.2-1 .7-1.2q.3-1.6 1.3-2.9-.1-.9.4-1.4.2-.7.6-1.2c.3-.3 0-.8.2-1 .4-.3.3-.8.6-1 .3-.3.2-.8.6-1q-.2-.9.4-1.4.2-.7.6-1.2c.4-.4-.1-1 .5-1.4q0-.8.7-1.5.3-.2.2-.5v-1.2l-.2-.1-.7-1.5c-.1-.4-.7-.6-.8-1.1q0-.5-.5-1c-.3-.4-.2-.9-.6-1.2q-.3-1-1-2l-.9-1.8-1-2-.9-1.8-1-2q-.6-.9-.8-1.8-.2-.4-.7-.4-.2 0 0-.2c0-.2.4-.2.1-.5s-.2-.9-.7-1l-.1-.2-.2.2q.1.7-.4 1.1c0 .5-.6.8-.4 1.4 0 .5-.6.7-.4 1.3l-.2.3c-.3.3-.2.9-.6 1.1q-.1.7-.4 1.3 0 .6-.4 1.2-.2.7-.6 1.2c-.3.3 0 .8-.2 1-.4.4-.3 1-.7 1.2 0 1-1 1.7-1 2.8l-.1.3-.7 1.6q-.1.8-.7 1.4-.3.8-.8 1.5 0 .9-.4 1.4-.6.8-.4 1.5c-.4.2-.3.7-.6 1-.5.3 0 .8-.4 1.2-.3.2-.2.7-.6 1 .1.4-.6.6-.4 1.1q0 .6-.5 1-.1.9-.7 1.6c0 .4-.6.6-.4 1.2.1.4-.6.6-.4 1q-.6.6-.4 1.3l-.5.6q-.2.8-.7 1.5c.2.6-.3 1-.4 1.4q-.2.6-.7 1.1c-.3.5.2 1.2-.5 1.4.1.5-.6.7-.5 1.2-.4.2-.2 1-.7 1.1 0 1-.7 1.9-1 2.8-.4.7-.4 1.4-1 2 .1 1.1-1 1.8-.8 2.9l-.5.6-.3.8c-.1.4-.6.6-.4 1 0 .5-.4.6-.4 1-.2.7-1 1.3-.8 2.2q-.7 1-1.1 2l-.7 1.8-1 1.7c-.2.4.2.9-.3 1.2q-.5.5-.5 1.2-.1.6-.4 1c-.3.8-1 1.4-.8 2.3-.6.6-.6 1.4-1.2 2q0 1-.7 1.9l-.8 1.6c-.3.4 0 1-.4 1.3q-.4.4-.5 1t-.4 1q0 .4-.4.8c.2.5-.6.7-.4 1.2s-.4.7-.5 1q-.1.8-.5 1.2c-.4.4 0 1.1-.6 1.4.1.5-.6.7-.4 1.2-.5.3-.3.9-.7 1.1q-.3 1.2-1 2.3 0 .5-.3 1l-.4.8-.4.9c-.2.3 0 .7-.3 1q-.3.4-.4.9a2 2 0 0 0-.5 1.2c0 .5-.6.8-.6 1.4-.4.2-.2.8-.7 1 .2 1.2-1 1.8-.8 3q-.8 1.2-1.4 2.5c-.3.5 0 1.1-.6 1.4.1.5-.5.7-.4 1.2zm63.4-13.5q.5-.8.5-1.6.7-.6.7-1.3c0-.5.4-.8.4-1.2s.6-.6.5-1c-.2-.6.6-.8.4-1.3q.4-.5.4-1l.3-.7c0-.5.6-.7.5-1.2-.2-.4.5-.6.4-1 .4-.3.3-1 .7-1.2 0-1 .7-2 1.2-2.9q0-.8.5-1.4t.4-1.4c.8-1 .8-2.4 1.6-3.4-.1-.4.5-.5.4-1-.2-.5.6-.7.4-1.2q.4-.5.4-1 0-.3.3-.5l.5-1.2c.5-.4.2-1 .5-1.4s.2-1 .6-1.1c0-.8.6-1.3.7-2q.3-1 .8-1.8c.3-.4 0-1 .4-1.3q.4-.5.6-1.2.3-.5.4-1.2l.3-.6c0-.5.6-.7.5-1.3-.2-.4.5-.5.4-1 .4-.2.3-.8.6-1.1s0-1 .6-1.4c0-.5.6-.8.4-1.4l.4-.7q.1-.6.5-1.1c.4-.4 0-1 .3-1.1.4-.3.2-1 .7-1.1 0-1 .7-2 1.1-2.8.3-.4 0-.9.4-1.2q.4-.4.5-1c.2-.3 0-.8.4-1l.5-1c0-.5.5-.7.4-1.3-.1-.4.6-.6.4-1 .5-.3.4-1 .8-1.3-.3-.6.2-1 .4-1.4l.8-1.3c-.3-.6.4-1 .4-1.6.7-.4.2-1.2.7-1.7s.4-1.1.8-1.5q0-.8.5-1.4.4-.7.4-1.4l.4-.5q.2-.8.7-1.5.1-.9.5-1.6l.6-1.1c.4-.4 0-1.1.6-1.4-.1-.5.6-.7.4-1.2.5-.2.3-.8.7-1.1.2-.2 0-.8.2-1s.2-.7.6-1c.2-.1 0-.6.4-.7q.3-1.6 1.3-3l.1-.8c.4-.3.2-.8.6-1l.4-.9c.3-.4 0-1 .5-1.4 0-.5.6-.8.4-1.4l1.2-2.1.7-1.5.7-1.5q.1-.6.6-1-.4-.4-.6-1l-2.2-4.4q-.2-.4-.5-.6-.1-.3-.2 0c0 .5-.7.7-.5 1.2s-.6.7-.4 1.2-.4.6-.4 1-.6.6-.4 1c.1.6-.6.8-.5 1.3q-.4.4-.3 1l-.2.4q-.4.5-.6 1.1t-.4 1.3c-.1.4-.6.7-.5 1.2l-.3.6c-.2.8-1 1.4-.8 2.3l-1.1 2c-.3.4 0 1-.5 1.3 0 .6-.6.9-.5 1.5l-.3.6-.8 1.5c.2.6-.4 1-.5 1.6-.4.2-.2.7-.5 1-.5.3 0 .9-.4 1.2-.3.2-.2.8-.6 1q.1.8-.4 1.4-.2.6-.6 1.1c-.4.4 0 .9-.3 1.1l-.5 1c-.3.3-.2.8-.6 1q0 1-.6 1.7l-.7 1.5-.3 1q-.3.8-.7 1.2l-.5 1c-.2.3 0 .8-.3 1.1q-.1.4-.5.8c.2.5-.5.7-.4 1.2-.6.3-.2 1-.6 1.4l-.6 1.2c-.2.2 0 .7-.3 1q-.1.4-.5.8c.2.5-.5.7-.4 1.2q0 .9-.6 1.4l-.6 1.2c-.2.2 0 .7-.3 1q-.5.5-.5 1.2l-.4 1c0 .5-.6.6-.4 1-.7.4-.2 1-.6 1.5q-.4.5-.6 1.1c-.1.5-.6.8-.4 1.4l-.4.7c0 .4-.6.7-.4 1.2 0 .4-.6.6-.4 1-.5.2-.3 1-.7 1.1q-.3 1.5-1.2 2.8c-.2.4 0 .9-.4 1.2l-.5 1.2q-.4.5-.4 1.2c0 .2-.4.4-.4.5.1.5-.6.7-.4 1.2s-.4.6-.4 1-.6.8-.5 1.3l-.3.6c-.2.8-1 1.4-.8 2.3l-1.1 2a7 7 0 0 1-1.3 2.8q0 .8-.4 1.4-.5.7-.5 1.5l-.3.4-.7 1.5-.5 1.4-1 2c-.4.4 0 .9-.4 1.3q-.4.5-.7 1.3-.4.5-.3 1.2-.6.5-.4 1.3c-.5.2-.4.9-.8 1.2 0 .5-.6.7-.5 1.2l-.1.2-.2-.4v-.6q.5-.5.4-1.2c.4-.2.3-.8.6-1.1l.6-1.2q.1-.6.4-1c0-.5.6-.8.4-1.3v-.2c.4-.3.3-1 .8-1.3q-.1-.7.4-1.2c-.1-.5.6-.7.4-1.2.6-.3.2-1 .5-1.2.4-.3.2-1 .7-1.1-.3-.7.5-1 .4-1.7.7-.3.2-1.2.8-1.7.3-.3.3-1 .8-1.4q-.1-.8.4-1.5c.2-.4.6-.8.4-1.4.4-.2.3-.7.6-1 .4-.3 0-.8.3-1 .3-.3.2-.8.5-1 .4-.3 0-.9.4-1.3q.4-.4.6-1.1c.1-.4.5-.7.4-1.2l.4-.7c.2-.8 1-1.3.8-2.2q.7-1 1-2c.3-.4 0-1 .6-1.4 0-.5.6-.8.4-1.4l.5-1c.3-.3.2-.9.7-1.1-.2-.5.6-.7.4-1.3-.2-.5.6-.7.5-1.2.4-.2.2-.8.7-1.1.2-.2-.2-.7.1-1 .4-.2.2-.7.6-1 .2 0 0-.6.4-.7 0-1 1-1.8 1-2.9l.3-.6q.2-.7.6-1.2c.3-.3 0-.8.3-1 .4-.3.2-1 .6-1.2 0-1 1-1.7 1-2.8l.5-1 .6-1.3.5-1.3c0-.4.6-.8.7-1.2q0-.8.4-1.5.2-.6.6-1.1c.4-.4 0-.9.3-1.1s.2-.7.5-1c.3-.2.2-.7.6-1-.2-.6.5-1 .4-1.6.7-.3.1-1.2.7-1.5l.8-1.5c.3-.4-.1-1.1.5-1.4 0-.5.6-.8.4-1.4l.3-.5.5-1.2q.4-.7.5-1.3c.3-.4.2-1 .7-1.2q-.1-.8.4-1.4.2-.6.6-1.1c.4-.4 0-.9.3-1.1.4-.3.2-.7.6-1q.1-.6.5-1c-.2-.6.4-1 .5-1.6.6-.3 0-1.2.7-1.5q.2-.8.7-1.5.2-.8.7-1.5c.4-.4 0-1.1.6-1.4 0-.5.6-.8.4-1.4l.4-.7.4-1c0-.4.6-.5.4-1s.4-.7.5-1l.7-1.5c.2-.5.7-.9.5-1.5l.2-.2q.4 0 .5.2c-.2.5.7.7.5 1.2q.5.4.8 1 0 .8.6 1.2l.1.5q0 .5.3.7l.7 1.1 4.3 8.5q.2.8.8 1.4l.3.3c-.2 1 .7 1.4 1 2.2q.6 1 1 2.2.5.3.5.8-.1.6.5 1 .2.2.2.5.1.8.6 1.5.2.8.9 1.3l.1.3q.1.7.5 1.3.1.5.5 1.1l.5 1q.4.5.6 1.2t.6 1.1q.5 1.3 1.2 2.5.2.3.1.8l-.1.3-.2-.1-.5-1.2q-.2-.6-.6-1.1-.5-.6-.7-1.2l-3.9-7.6q-.4-1-1-1.7t-1-1.8l-1-2q-.2-.8-.8-1.3l-.2-.3c.3-.6-.4-1-.4-1.5-.4-.3-.3-1-.8-1.2q0-.5-.4-.8l-.3-.3c-.2-.4.1-1-.4-1.3-.5-.2-.4-.7-.7-1s-.2-.8-.6-1c.2-.5-.6-.7-.4-1.3h-.2c-.1.4-.6.7-.5 1l-.5 1.3c0 .4-.6.5-.4 1s-.6.7-.4 1.2q-.5.5-.4 1 0 .3-.3.5c-.5 1-.5 2-1.3 2.9q.1.9-.4 1.4l-.5 1.4-.7 1.4-.7 1.3c-.2.3.1.9-.3 1.2q-.5.5-.6 1.2t-.4 1c-.2.8-.9 1.4-.8 2.3l-1.1 2q-.3 1.6-1.3 2.8c.3.7-.5 1-.4 1.6-.7.3-.1 1.2-.7 1.6l-.7 1.4c-.3.4 0 1-.4 1.3q-.4.5-.6 1.2-.3.5-.4 1.2l-.3.5-.5 1.2c-.5.4-.2 1-.5 1.4l-.7 1c.1 1-.5 1.5-.8 2.2-.2.4-.7.8-.4 1.4-.4.3-.3 1-.8 1.3q.1.8-.4 1.4-.2.6-.6 1.1c-.4.4 0 .9-.3 1.1s-.2.7-.5 1-.2.8-.6 1c.1.9-.6 1.5-.8 2.2l-.4 1q-.1.8-.5 1.3c-.4.3-.2.7-.3 1s-.5.4-.4.7c0 .4-.5.4-.4.8s-.6.6-.4 1q0 .6-.4.9c-.2.8-1 1.4-.8 2.3l-1.1 2q-.1.9-.7 1.8-.4 1-.9 1.7c-.3.4 0 .8-.4 1.2-.3.3-.3 1-.6 1.3s-.2 1-.7 1.2q0 .8-.4 1.4-.4.7-.5 1.4 0 .3-.3.5l-.7 1.5-.5 1.4c-.1.4-.6.7-.4 1.2 0 .4-.6.6-.4 1-.5.2-.3 1-.7 1.1q-.3 1.6-1.2 2.8c-.3.4.2 1-.5 1.4.1.5-.6.7-.4 1.2l-.3.7c0 .5-.6.7-.5 1.2-.6.3-.2 1-.6 1.3s-.2 1-.6 1.2c0 .8-.6 1.4-.8 2 0 .4-.6.6-.4 1s-.4.7-.4 1.1q-.1.4-.4.7c-.1.1.1.5-.3.4zM393.8 355h.3l.3.3h-.2l-1.3.7q-.4.2-.6 0t-.3 0q-.5.8-1.3.6c-.6 0-1 .7-1.7.4-.3.7-1 .2-1.3.6s-1 0-1.3.4-1 0-1.4.6h-.3c-.8-.2-1.4.6-2.2.5-.3.5-.8.2-1 .4q-.5.3-1.1.4l-.9.3-.7.2q-.3.4-.7.3h-.8c-.3.6-1 .1-1.3.6-.4.3-.9 0-1.1.2-.3.4-.8.2-1 .4l-1.1.4c-.5 0-.9.5-1.5.4-.5-.2-.8.6-1.4.4-.3-.1-.4.4-.8.4q-.5-.1-.8.2l-.3.2c-.5 0-1-.3-1.4.3q-.8-.1-1.3.4c-.6-.2-1 .6-1.6.5-.5-.1-.8.6-1.4.4q-.7.5-1.5.4c-.4-.1-.7.4-1.2.4s-1 .5-1.6.4q-.4-.1-.5.2l-1 .5h-1q-.7.6-1.4.5c-.3.5-1 .2-1.2.4-.4.4-.9.2-1.1.4q-.7.4-1.5.4c-.4 0-.8.6-1.4.4-.3.6-1 .1-1.4.5s-1 0-1.4.6h-.5l-.8.1c-.3.7-1 .1-1.4.6s-1 0-1.3.6h-.4q-.7 0-1.3.3c-.2.2-.7 0-1 .3s-1 0-1.4.6c-.7-.2-1.2.5-1.9.4-.3.5-.9.3-1.4.4-.5 0-.9.6-1.4.4-.3.6-1 .1-1.4.5s-1 0-1.2.4c-.4.5-1.1 0-1.4.6h-.4c-.7-.2-1.3.7-2 .5-.3.6-1 .1-1.4.5s-1 0-1.4.6h-.1c-.8-.2-1.4.3-2 .5l-1.7.5c-.2.6-1 0-1.3.5l-.2.2c-.5 0-1.2-.2-1.6.4-.6-.2-1 .3-1.4.4-.7 0-1.3.7-2 .4l-1.1.4-1.6.5c-.3.6-1 0-1.4.6h-.3q-.8 0-1.3.4c-.3.3-1-.1-1.2.4-.7-.1-1.2.4-1.8.5q-.8.3-1.7.4c-.4 0-.8.6-1.4.4-.3.7-1 .2-1.4.6s-.9.1-1.3.2h-.2c-.2.7-1 .2-1.3.6q-.5.3-1 .2-.2.4-.8.4c-.5-.2-.6.4-1 .4h-1c-.3.7-1 .2-1.4.6s-1 0-1.2.4c-.3.4-.8 0-1 .3q-.6.4-1.2.3c-.6 0-1 .7-1.6.4-.3.7-1 .1-1.4.6s-1-.1-1.4.5l-.1.1c-.8-.2-1.4.3-2 .4q-.8.4-1.6.5c-.3.6-1.1 0-1.4.6l-.4.1h-1c-.3.7-1.1.1-1.5.7-.5.1-1 0-1.4.5-.6-.3-.9.5-1.4.4s-.6.4-1 .4h-1c-.3.7-1 .2-1.4.6s-1 0-1.3.4l-.3.2c-.7-.2-1.3.3-2 .4q-.7.4-1.6.5c-.3.6-1 0-1.4.6l-.3.1h-1c-.3.7-1.2.1-1.5.7-.7 0-1.2.6-1.8.5h-.6c-.4.5-1 .2-1.4.6-.4.5-1.3-.1-1.5.6h-.2q-.7-.2-1.2.2c-.5.4-.8 0-1 .3-.4.5-1 .1-1.4.5s-1 0-1.4.6h-.6q-.6-.1-1 .4c-.3.2-.8-.1-1.1.3-.4.3-1.1-.1-1.4.5q-.7 0-1.2.4-.6 0-1.1.4h-1.1c-.4.5-1 .2-1.4.6s-.9 0-1.1.3l-1 .4c-.5 0-1 .5-1.5.3-.5-.1-.7.6-1.2.5s-.9.5-1.5.4c-.2-.1-.4.4-.8.3q-.4 0-.7.3t-.5.1q-.7-.1-1.3.4c-.2.2-.8 0-1 .3-.3.4-.9 0-1.1.3-.3.5-1 0-1.3.4q-.5.4-1 .2c-.6.1-1 .7-1.5.4-.3.7-1 .2-1.4.6-.4.5-1 0-1.4.5q0 .2-.3.1c-.9-.2-1.5.6-2.2.5-.4.6-1.2 0-1.6.7h-.5q-.7 0-1.1.4c-.3.2-.7 0-1 .3l-1.7.5c-.4.2-.8 0-1.2.4-.3.3-1-.1-1.2.4-.7-.2-1.2.5-1.9.4-.4 0-.4.5-.8.5q-.5-.1-.9.2l-.3.1c-.5.1-1-.1-1.3.3s-1-.1-1.2.5c-.8-.1-1.4.6-2.2.5-.5 0-.9.6-1.5.4-.2.6-1 .1-1.3.5s-1.1 0-1.4.6h-.2c-.7-.2-1.3.3-2 .5l-1.6.4c-.3.7-1 .1-1.4.6s-1 0-1.5.2v-.2l.1-.2c.6.1 1.1-.4 1.6-.4s1-.8 1.7-.5c.2-.6 1-.1 1.4-.5s.8-.2 1.3-.3h.1c.3-.6 1-.1 1.4-.6s1.1 0 1.4-.5q.8 0 1.2-.4h.4q.7.1 1.3-.4c.2-.2.7 0 1-.3s1 0 1.4-.6c.7.2 1.2-.5 1.9-.4q.5-.4 1.4-.4c.5 0 .9-.6 1.4-.4.3-.6 1-.1 1.4-.5s1 0 1.4-.6h.5q.6 0 .8-.2c.3-.6 1 0 1.4-.5s1 0 1.4-.6h.3q.7 0 1.3-.3c.2-.2.7 0 1-.4.3-.3.9.1 1.1-.3s1 0 1.3-.4.7-.1 1-.2c.6 0 1-.6 1.5-.4.3-.6 1-.1 1.4-.5s1 0 1.2-.4c.4-.5 1 0 1.4-.6.3-.3 1 .1 1.2-.4q.1-.2.4 0c.8.2 1.3-.7 2-.5.3-.7 1-.1 1.4-.5s1.1 0 1.4-.6h.4c.8.1 1.4-.6 2.2-.6.3-.6 1.2 0 1.5-.7h.6q.6.1 1-.4c.3-.2.8.2 1-.3.3-.3.8 0 1-.1q.4-.4.9-.4c.5 0 .8-.7 1.4-.4.4-.5 1-.3 1.4-.5l.9-.3q.6.1 1-.4l1.1-.2q.7-.4 1.6-.6c.4-.1.9.1 1.3-.3.3-.3.8 0 1.2-.4.2-.3.8 0 1-.3.4-.4.8 0 1.2-.2.5-.2.9-.6 1.4-.4.3-.7 1-.1 1.4-.6s1 0 1.2-.4c.4-.4 1 0 1.4-.5l.6-.1h.6c.3-.6 1-.2 1.3-.5.5-.5 1.3 0 1.6-.7q.7 0 1.2-.4.6 0 1.1-.3c.3-.3 1 0 1.2-.4l.6-.1h.6c.3-.6 1-.2 1.4-.5.3-.4.7-.2 1-.3q.4-.4.9-.4c.5.1.7-.6 1.2-.4s.9-.3 1.3-.3l1.2-.5q.6.1 1-.4c.8.3 1.2-.5 1.9-.4.4 0 .7-.6 1.2-.4s.7-.3 1-.3l1.3-.5q.5 0 1-.3c.3-.3.8 0 1.1-.3.3-.4.8 0 1.1-.2.5-.2 1-.6 1.5-.4.2-.7 1-.2 1.3-.6s1-.1 1.4-.2h.1c.3-.7 1-.2 1.4-.6s.6-.1 1-.2c.2-.1.4-.5.8-.4.6.1 1-.7 1.6-.4.5.2.8-.7 1.4-.4q.7-.5 1.4-.5c.3-.6 1 0 1.4-.5l.5-.2q.8 0 1.5-.4c.4-.2.9-.6 1.4-.4q.5-.6 1.3-.4c.5 0 1-.6 1.6-.5.2-.6 1 0 1.3-.5s1.1 0 1.4-.6c.8.3 1.3-.7 2-.4h.4c.3-.6 1-.2 1.4-.6s.8 0 1-.3q.4-.4 1-.3c.4 0 .5-.6 1-.4s.6-.4 1-.4h1q.6-.5 1.2-.4c.3-.7 1-.2 1.4-.6s1 0 1.4-.5l.6-.1q.6.1 1-.4.5 0 .8-.4h1q.7-.5 1.5-.4c.2-.6 1-.2 1.3-.6s1.1 0 1.4-.5q.1-.2.4 0c.7.2 1.3-.7 2-.5.3-.7 1-.1 1.4-.5s1 0 1.4-.6l.1-.1c.8.2 1.4-.3 2-.4l1.7-.5c.2-.6 1 0 1.3-.6q.3-.2.6-.1.6.1 1.2-.4c.3-.2.8 0 1-.3.4-.3 1 0 1.3-.4.3-.3.9 0 1.3-.4.2-.3.9 0 1.2-.5h.5q.7 0 1.1-.4c.3-.2.7 0 1-.3s1.1 0 1.5-.5c.6.2 1-.4 1.6-.5s1.1-.5 1.8-.3q.6-.6 1.3-.4c.2-.7 1-.2 1.3-.6s1 0 1.3-.4 1 0 1.4-.5 1.2.2 1.6-.5q.8 0 1.4-.4c.4-.2.9.1 1.3-.3.3-.4.9 0 1.2-.4s1 0 1.3-.4c.2-.4.7 0 1-.3.3-.5 1 0 1.3-.5.2-.3.7 0 1-.2.5 0 1-.6 1.5-.4.3-.6 1-.1 1.4-.5s.8-.2 1.3-.3h.2c.2-.6 1-.2 1.3-.6s1.1 0 1.4-.5q.7 0 1.2-.4h.4q.7.1 1.3-.4c.2-.3.7 0 1-.3.4-.4 1.1 0 1.4-.6.8.2 1.3-.6 2-.4.5.1.8-.6 1.3-.4q.7-.4 1.6-.5c.3-.6 1 0 1.4-.6h.1c.9.2 1.6-.5 2.4-.5.6 0 1-.6 1.6-.4M202 558.2a56 56 0 0 0-6.8 1.4v3.8q.1.8-.3 1.4.3.2.3.6l-.3.6q.3.3.3.7v3.8q0 .3-.2.5c-.3.2 0 .3.1.4q.3.4.1.6-.7.5 0 1.1v.2q.2.6-.3 1c0 .3.6.5.3.8q-.5.8-.4 1.5v2q-.2.8.4 1.4l-.3.4q.7.5 0 1.1v4.8l-.3.3-.2-.4v-3c0-.2-.5-.2-.2-.5q.3-.3.2-.7.1-.8-.4-1.3l.2-.5.2-.3c-.6-.4-.4-1-.4-1.4v-16.2c0-.5-.2-1.1.4-1.5v-1.4q0-.5.5-.4c.6 0 1.1-.6 1.8-.5q.4-.5 1-.3.8-.1 1.1-.6c-.4-.4-.8-.2-1.2-.3q-.6.1-1 .4-.7.1-1.6 0-.3.1-.5-.1-.2-.4.2-.7v-.3c-.3-.1-1-.1-1 .1q0 .5-.4.6-.7 0-1-.3a1 1 0 0 0-1-.5h-1l-1 .6c-.3.3-.4 0-.6 0q-.2-.2-.5-.1c-.2 0-.3.4-.5.2l-.6-.3h-3.6l-.2.3v.1h1.5q.6.4 1.4.4h1.4c.4 0 .6.6 1 .4h2.3c.3 0 .4.5.8.4h1l.1.2-.1.2h-2.4c-.9-.7-1.9-.2-2.8-.4-.7 0-1.5.3-2-.4h-3.1v12.7c0 .5.2 1.1-.3 1.5l.1.3q.4.4 0 .8c-.4.2 0 .3 0 .4q.3.2 0 .3c0 .1-.3.2 0 .4q.3.4.2.7.1.7-.4 1.1.3.3.4.8v.4c-.6.5-.3 1.2-.4 1.8-.1.4.6.5.2.8q-.3.4-.2 1v1h-.2l-.2-.2v-23q0-.6-.2-.7c-.5 0-.6-.5-1-.5h-2.2q-.8.1-1.3-.4-.4-.1-.5.4v26q0 .4-.4.6l-.3.2-.1-.4.3-.6-.3-.6v-23.6c0-.7.3-1.5-.3-2.1l.2-.4q.2-.4.5-.1.7.6 1.4.1.6-.3 1.1-.3h3.2c.5-.6 1.2-.4 1.9-.4h2.4q.3 0 .4-.2t.3 0q.4.4.7.2.5-.5 1-.4h2.3c.3 0 .5-.4.8-.3.2 0 .3.4.6.3l1-.1q.4-.3.9-.3h2.6c.6 0 1.4.3 2-.4h5c1.1 0 1.2 0 1.6-.2l.5-.2c.8 0 1.6.2 2.2-.4h2.4l.1.2-.1.2h-1.8q-.5.1-.8.5l.1.3c.6-.2 1 .4 1.5.4s.8.4 1.2.4.3.6.7.4q.5 0 1-.3h.2c.7.4.7.4 1.2.1q.4-.3 1-.2l.2.2-.1.2q-.2.4-.8.4-.8-.2-1.4.1t-1.3.3h-1.4l-.4.4q-.3-.5-.7 0h-1c-.5 0-1-.2-1.4.3l-.6.1h-1.4q-.7.6-1.4.4h-1.4c-.4.2-.6.5-.9 0-.4.7-1 .3-1.7.4-.6 0-1.4-.2-2 .4-.5 0-1 0 5-1.1 7.3-1.3 7.9-1.2 8.5-1.3q.3 0 .4-.2c.1-.4-.2-.1-.3-.1h-.6q-.6-.6-1.3-.4l-.6-.3q-1.2-.2-2.1-.9l-.2.2q0 .6-.6.6h-1.6l-.2.2.3.1h.2l.2.3q0 .9.3 1l1.6-.1c.4-.6 1-.3 1.4-.3s.8 0-5.3 1.1m-29.6-114c.3.6-.6.7-.4 1.3.2.5-.6.7-.4 1.2-.7.4-.2 1.2-.8 1.7-.4.3-.3 1-.8 1.5.2.6-.4 1-.4 1.6-.5.3-.4 1-.8 1.3.1.4-.5.6-.4 1s-.4.7-.4 1q-.1.7-.4 1.3-.2.6-.6 1.1c-.3.4 0 .9-.3 1-.4.4-.2 1-.6 1.2 0 .7-.5 1.2-.6 1.8-.6.3 0 1.2-.7 1.5q0 1-.6 1.8c-.3.3 0 .7-.3 1l-.7.8-.1.9c-.4.3-.2.8-.3 1l-.8 1-.3.6c0 .6-.5 1.1-.5 1.6s-.5.9-.5 1.5q0 .7-.6 1.3c-.3.4.1 1.1-.5 1.4 0 .5-.6.7-.5 1.2q-.5.6-.7 1.3l-.6 1.2-.6 1.3q-.4.4-.5 1t-.5 1.2c-.3.3 0 .8-.3 1l-.7 1.4c.1.5-.6.7-.5 1.2q-.4.4-.4 1t-.6 1.2q-.1.6-.5 1 0 .8-.5 1.4-.2.6-.6 1.1c-.3.4 0 .8-.2 1.1s-.2.7-.5.8c-.3.3-.1.8-.5 1-.3.2 0 .7-.4.8l-.7 2q-.7.7-.7 1.7l-.5 1c-.3.3-.2.9-.7 1.1.2.5-.5.7-.4 1.2q0 .7-.5 1.2c-.3.4-.2 1-.6 1.2.1.6-.4 1.1-.6 1.7l-.8 1.5-.3 1q-.2.8-.6 1.2-.2.6-.6 1c.2 1-.6 1.6-.8 2.5-.6.2-.2.9-.5 1.2s-.2.9-.7 1c.3.6-.6.8-.4 1.3-.5.2-.4.8-.6 1.2-.3.3-.1 1-.6 1.3.2.5-.3.8-.3 1.3s-.6.5-.5 1q-.4.3-.4.8c.2.5-.3.7-.4 1-.3 1-1 1.7-1.2 2.6-.7.2-.2 1-.5 1.3-.4.4-.3.9-.7 1.2.1 1-.7 1.6-.9 2.4l-.4.8q-.3.3-.3.7c-.7.3-.2 1-.5 1.4l-.7 1.3-.8 1.3c.3.6-.4 1-.4 1.6q-.5.7-.8 1.5-.4.4-.4 1c.1.5-.5.6-.4 1l-.5 1c-.4.3-.2.8-.6 1q-.3 1.6-1.3 3l-.1.8c-.4.3-.2.8-.6 1-.2.2 0 .7-.4.9l-.1.5q0 .5-.5.8l-.3.2v-.2l.2-1.2q.5-.6.6-1.5.2-.7.8-1.5l.8-1.5q-.1-.7.4-1.2.1-1 .7-2 .3-.3.5-1c0-.4.6-.6.4-1.1 0-.4.6-.6.4-1 .5-.4.4-1 .8-1.4-.3-.5.3-1 .4-1.4l.8-1.3c-.2-.7.3-1.1.6-1.7l.7-1.5q.3-.5.3-1.1.2-.6.7-1.1.1-.6.5-1c-.2-1 1-1.7.8-2.7q.1-.3.5-.6t.3-.6q0-.6.4-.9c-.2-.5.6-.7.4-1.2s.6-.7.4-1.2c.5-.2.3-1 .8-1.1q0-.8.4-1.5l.7-1.3.7-2q.6-.7.6-1.6l.4-.7q.3-.8.8-1.4-.1-.8.4-1.5l.8-1.5c0-.3.6-.5.4-1s.4-.6.4-1 .6-.6.4-1q.5-.5.4-1 .1-.6.5-1c.3-.4.2-.8.5-1l.2-.4c-.2-.6.5-.9.4-1.4v-.4c.3-.4.9-.6.8-1.3q.1-.8.7-1.3c.2-.4-.1-.9.2-1.1l.4-.8c.4-.3.2-.8.6-1 .2-.2 0-.7.4-.8q.3-1.6 1.3-3c-.3-.6.4-1 .5-1.5s.6-.9.7-1.3.6-.7.4-1.3c-.1-.4.6-.5.4-1q.6-.5.4-1.2.5-.6.8-1.3l.7-1.5.5-1.4 1-2c.4-.4 0-1.1.6-1.4-.1-.5.5-.8.5-1.4 0-.7.7-1.2.7-1.9.7-.2.3-1 .6-1.3q.5-.6.6-1.2c0-1 .8-1.5 1-2.4.3-.1.1-.6.4-.8q.3-.3.2-1 .2 0 .3-.4.2-.7.6-1.2c.4-.4.2-1 .5-1.4q.1-.6.6-1 0-1.1.6-1.9l.7-1.4.4-1.1c0-.3.5-.5.3-.9.4-.2.3-.7.6-1q.3-.3.2-.8.3-.3.4-.7c.2-.8 1-1.3.8-2.2q.7-1 1-2t.8-2 1-1.7q0-.9.4-1.4l.7-1.4q.4-.6.6-1.3h.3zm109.9-39.4h-.4l-.1-.2.1-.1q.8 0 1.2-.5.8.2 1.3-.4c.7.3 1.2-.6 2-.4.6.1 1-.6 1.6-.4.3-.6 1-.1 1.4-.6s1 0 1.4-.6c.7.3 1.1-.5 1.8-.4.4 0 .7-.5 1.2-.4.5.2.7-.3 1-.3q.7-.1 1.3-.4c.4-.2.8 0 1-.4h.4c.7.2 1-.5 1.7-.5q.4-.5 1.2-.4.5-.6 1.2-.4c.5.1.6-.5 1-.4.7.1 1-.6 1.7-.4s.9-.6 1.5-.4c.4.1.5-.5 1-.4q.5 0 .8-.4c.8.3 1.3-.6 2-.4.6 0 1-.6 1.7-.4.3-.7 1.2-.1 1.5-.7h.6l.5-.1c.4-.6 1-.2 1.4-.5q.4-.4 1-.3c.3 0 .4-.5.8-.4.5.2.7-.4 1.2-.4q.6.2 1.3-.3c.3-.3.9 0 1.2-.4q0-.2.4 0 .8-.1 1.4-.5.7-.5 1.4-.4c.6.2.7-.6 1.3-.4.5.1.8-.7 1.4-.4s.9-.6 1.4-.4l.5-.2q1-.6 2-.6c.4 0 .6-.5 1-.4q.7.2 1.3-.4c.3-.2.8.1 1-.3.8 0 1.3-.7 2-.5.5.1.7-.3 1-.4l1.2-.1c.3-.3.8-.2 1-.6.3-.3 1 .1 1.2-.4h.4c.6.1.9-.6 1.4-.5h.8c.3-.7 1-.2 1.4-.6s1 0 1.3-.6h.2c.5 0 1 .2 1.3-.3.3-.3.8 0 1.2-.1l.5-.3c.5 0 1-.7 1.5-.5q.7-.4 1.5-.4l1.6-.6.9-.2q.6.1 1-.4.3-.5.8-.4 1.1.1 2-.5l.9-.3h.6c.3-.5 1-.3 1.4-.5q.1-.2.5-.3h1c.2-.7 1-.2 1.3-.5l.9-.5.3-.2c.7.3 1.3-.4 2-.4h.6c.4-.5 1-.2 1.4-.5.4-.5 1.2 0 1.5-.7h1c.4 0 .6-.5 1-.4q.6 0 1.1-.3l1.4-.1q.5.1.9-.2c.3-.5.5.4.7 0 .2-.3.6 0 .8-.3q.4-.4 1-.3c.3 0 .5-.5 1-.4h1c.6 0 1.3-.2 1.8.4h1.8l.3.2-.3.3q0 .4-.6 0-.7-.3-1.4 0-.3.3-.7.3H380c-.5-.1-.6.5-1 .4-.7-.2-1 .5-1.5.5-.3.5-1 .3-1.4.3q-.3 0-.3-.4t-.3-.3c-.3.4-.8.2-1 .6-.6.1-1 .7-1.8.5-.5-.1-.7.6-1.2.4q-.6 0-1 .3c-.5.4-1.1-.1-1.6.3-.3.4-1 0-1.3.6h-.4q-.7-.1-1.3.4c-.2.2-.7-.1-1 .3-.3.3-.8-.1-1.1.3q-.4.3-1 .2-.4 0-.8.3l-.9.2-.9.3q-.6-.1-1 .4c-.3.2-.8 0-1.1.3s-1 0-1.4.5c-.6-.3-1 .4-1.6.4-.6.1-1.2.6-1.9.4q-.4.6-1.2.4c-.4.6-1.3.2-1.7.8-.7-.2-1.2.7-2 .4-.5-.1-.6.4-1 .4-.7 0-1.3.7-2 .4-.4.6-1.1.2-1.4.6-.4.4-1 0-1.3.4q-.5.5-1 .2c-.6 0-.7.5-1.1.4-.7-.1-1 .7-1.7.4-.5-.2-.8.6-1.4.4-.4 0-.6.6-1 .4q-.6 0-.9.4c-.5-.2-1 .4-1.4.4-.5 0-.8.4-1.2.4-.8 0-1.3.7-2 .4-.4.5-1 .3-1.5.6q-.4.3-.9.2c-.5-.1-.8.4-1.2.4-.4.1-.9-.1-1.3.3-.3.4-.9 0-1.2.4s-.8 0-1 .3q-.5.4-1 .2-.5 0-.9.4-.5 0-.9.2t-.9.2h-.6c-.3.7-1 .2-1.3.6-.5.5-1.3 0-1.6.6-.7-.1-1.2.3-1.8.4s-1.3.7-2 .4c-.4.7-1.2.2-1.6.7l-.1.1c-.6.1-1.2-.2-1.7.4-.5-.2-1 .4-1.4.4-.7.1-1.3.7-2 .5l-1 .4-1.7.5c-.3.6-1 0-1.4.5l-.3.2c-.4 0-.9-.2-1.3.3-.3.3-1-.2-1.2.4-.8 0-1.4.6-2.2.5-.5 0-.9.6-1.4.4-.3.6-1 .1-1.4.5s-.9.2-1.3.3h-.2c-.3.6-1 .1-1.4.6-.3.3-.8 0-1 .3q-.5.4-1.1.3h-.4c-.3.6-1 .2-1.4.5q-.1.2-.5.3h-1c-.3.7-1.1 0-1.5.7-.7-.1-1.3.6-2.1.4"/><path d="m396.2 397.5.1.3q-.4.4-.3 1 0 .4-.3.7-.4.5.1.9l.1.3v.3l-.3-.1q-.3-.3-.3-.1c-.2 1.2-1 2-1.3 3l-.4 1.1c-.2.4 0 1-.4 1.2 0 .5-.6.7-.5 1.2q-.4.5-.4 1.1t-.6 1.1q-.1.6-.5 1c.1.6-.3 1-.4 1.4l-.5 1.3q0 .6-.7 1.3c-.2.3 0 .7-.3 1s-.2.8-.5 1 .1.7-.2 1c-.5.3 0 1-.5 1.4q-.6.5-.5 1.1c0 .6-.7.9-.5 1.5v.3c-.5.2-.3.8-.6 1-.4.3 0 .8-.3 1l-.5 1c-.3.5-.1 1-.6 1.5.3.5-.4.9-.4 1.4-.4.3-.3 1-.8 1.3q.1.7-.4 1.2 0 1-.6 1.7c-.3.4 0 .9-.3 1.1l-.4.9c-.4.3-.1.8-.3 1q-.5.6-.4 1.3c-.5.2-.2.9-.7 1.1 0 1-.8 1.7-1 2.6q0 .7-.4 1.2c-.5.4 0 1-.4 1.2-.5.4 0 1-.5 1.3l-.5 1c-.3.2 0 .7-.3 1l-.6 1c-.2.2.2.8-.3 1-.2.3 0 .7-.4 1-.3.2.1.9-.4 1.1 0 .6-.6.8-.5 1.4s-.6.7-.4 1.3c.1.4-.4.4-.4.8s-.6.6-.4 1-.6.8-.4 1.3c-.5.2-.3.6-.4 1l-.5 1-.3.5c.1.5-.4.8-.4 1.2q.1.6-.4 1c.2.6-.6.7-.4 1.3.1.5-.6.7-.4 1.2s-.6.7-.4 1.3c.1.4-.6.5-.4 1-.5.3-.4 1-.8 1.3q.1.7-.4 1.2.1.9-.5 1.4l-.4 1.4c-.3.4-.2 1-.7 1.1q.1.8-.4 1.5l-.5 1.2c0 .4-.5.9-.6 1.3l-.5 1.4q-.6.7-.4 1.5l-.8 1.4c.2.6-.5.9-.5 1.5q-.1.8-.7 1.5c-.2.3 0 .9-.4 1.2q-.1 1-.7 1.9l-.6 1.1c-.4.5-.2 1-.5 1.4q-.1.7-.6 1.2c.2.5-.4 1-.4 1.4 0 .5-.5.8-.4 1.2q0 .5-.3 1c-.2.4-.8.9-.5 1.5-.5.3-.4 1-.8 1.3.2.6-.2 1-.4 1.4l-.5.6-.3.2v-.2q-.2-.6.2-1.1l.6-1c-.3-.6.3-1 .4-1.4v-.6q1-.8.8-2c.6-.3.1-1.2.8-1.6-.2-.4.5-.6.4-1-.2-.5.4-.7.3-1 0-.7.5-1 .6-1.6.4-.3.1-.8.3-1l.5-1c.3-.3.2-.8.6-1v-.4c-.1-.9.7-1.6.5-2.4q0-.4.4-.3.4 0 .4-.4c0-.4.5-.7.4-1.2s.4-.7.4-1.2.5-1 .4-1.5c.6-.2.3-1 .5-1.3.4-.6.3-1.4 1-1.8 0-.6.8-1 .5-1.7q.6-.6.7-1.4.1-.9.6-1.4.5-.8.7-1.5c0-.6.6-1 .4-1.5v-.2c.7-.3.1-1.2.7-1.5 0-.5.6-.8.5-1.4-.1-.4.5-.7.4-1.2s.5-.7.4-1.3c-.1-.4.5-.5.4-1 .6-.3.2-1 .5-1.4q.6-.6.6-1.3c0-.6.7-.9.5-1.5q-.1-.3.2-.4c.3-.3.1-.7.4-.9s0-.7.2-.9l.4-.8v-.2l.7-1q0-.7.2-1.3l.5-1c.4-.2 0-.8.4-1.2l.6-1q0-1 .6-1.7l.2-1c0-.2.4-.4.3-.6-.1-.6.6-.9.5-1.4q.5-.7.8-1.5c-.2-.5.5-.8.4-1.4l.2-.5.4-.8c.4-.4 0-.8.3-1.1q.4-.4.3-1l.1-.2c.4-.4.3-1 .7-1.2q-.1-.7.4-1.2c-.3-.6.4-1 .4-1.5.6-.3.2-1 .6-1.5q.6-.6.6-1.6l.2-.3q.5-.6.6-1.3c0-.6.6-.9.4-1.5v-.2q.6-.7.8-1.5 0-.8.6-1.5c.3-.4-.1-1.1.5-1.4 0-.5.6-.7.5-1.2s.6-.9.4-1.4l.1-.4c.4-.3.3-.9.7-1.1q-.2-.7.4-1.2c-.1-1 .7-1.5.8-2.3.4-.3.3-1 .8-1.3q-.1-.7.4-1.2 0-1 .6-1.8c.3-.3 0-.8.3-1l.5-1c.3-.3.2-.8.6-1-.1-.8.5-1.4.8-2 0-.5.6-.8.4-1.3s.6-.7.4-1.2.5-.5.4-.9q0-.5.3-.9l.1-.7q.2-.6.8-.8zm6.2-41.9q.6-.4 0-.7l-.4-.4v-.1l.4-.1.3.1q.8 1 1.8 1.7c.4.3 0 1.2 1 1q.1.6.6 1l1.2 1.2 1 1.1 1 1 1.2 1.2c.4.2.2.7.6 1 .3.1.4.7.9.7s.3.6.6.8l.8.8 3.5 3.4 1.6 2.1 2 2 2 2 2 2 .4.8q.4 0 .7.3 0 .4.3.7l2.1 2q1.1 1 2 2.3t2 2.1l2.1 2.2q.8.5 1.1 1.3t1 1.2l1.3 1.3 1.1 1 1.3 1.4q.2.6.8.8.2.8.9 1.2l1 1 1.2 1.3q.8.5 1 1.4l1.3 1.3 1.3 1.2 1.2 1.3 1.3 1.3 1.3 1.3 1.5 2q1 .8 1.9 1.8l1.8 1.8c.5.4.6 1.1 1.2 1.5l1.2 1.3 1.5 1.4 1.2 1.3.2.3v.2l-.3.2-6.6-6.7-1-1.4-1.5-1.4-1.2-1.3-1.3-1.2-3.2-3.3q-.9-.8-1.5-1.8t-1.7-1.7l-1.7-1.7-1.7-1.7q-.7-1-1.7-1.7c-.3-.3-.2-.9-.7-1.1l-.6-.3-.3-.7-.3-.3-1.4-1.4-1.6-1.6-1.4-1.4q-.9-.7-1.4-1.4-.5-1-1.3-1.7l-1.4-1.4-1.4-1.4-1.6-1.6-1.4-1.4q-.7-.4-1-1-.4-1-1.3-1.7l-.5-.2q-.4 0-.3-.6 0-.5-.3-.6l-.8-.5c-.6-.2-.3-1-1-1.1-.3 0-.7-.6-1-.9l-1.1-1c-.6-.6-.7-1.5-1.4-2q-.3-.2-.4.4l-.2.3-.2-.3v-1l-.2-.3c-.7.2-.5-.4-.7-.7h-.1q-.7 0-.6-.7.1-.5-.5-.6l-.8-.3-.3-.7v-.4c-.5-.3-.7-1-1.4-1-.2-.4-.7-.3-1-.6.2-.7-.8-.8-.8-1.4q-.1-.5-.5-.4c-.4 0-.2-.6-.5-.8l-.6-.7q0-.4-.3-.5-.5 0-.8-.5l-1.2-1.2c-.1-.8-1-1-1.3-1.7M195.2 475v.4c-.6.3-.2 1-.6 1.5q-.6.5-.5 1.2c0 .6-.6.9-.5 1.4-.5.2-.3.8-.7 1.1l-.2 1c-.3.2-.2.7-.5 1-.3 0 0 .6-.5.7q-.3 1.6-1.2 2.9 0 .8-.5 1.4-.4.7-.4 1.5c-.5.2-.3.8-.7 1-.3.4.1 1-.4 1.3.1.5-.6.7-.5 1.2-.6.3-.2 1-.5 1.4l-.6 1.1c-.2.3 0 .8-.4 1q-.1.5-.4.9c0 .5-.6.7-.5 1.2-.6.3-.2 1-.5 1.4q-.5.5-.6 1.1c-.2.3 0 .7-.4 1q-.4.6-.4 1.3c0 .4-.5.6-.5 1s-.6.6-.4 1c-.7.3-.2 1-.5 1.4q-.5.6-.7 1.2c-.1.4-.6.8-.4 1.4l-.4.6q-.3.8-.8 1.5.1.9-.4 1.4l-.7 1.3-.5 1.4-.7 1.4-.7 1.9c-.2.5-.7 1-.6 1.7l-.4.7c0 .4-.6.5-.4 1s-.5.6-.4 1l-.4.9c0 .3-.5.5-.5 1-.4.2-.2.7-.5 1-.4.3 0 1-.6 1.3l-.5 1.4q-.2.8-.7 1.5c-.2.8-1 1.4-.8 2.3l-.4.4c.2.5-.6.7-.4 1.2s-.6.8-.5 1.3c-.4.2-.2.9-.7 1q0 .8-.4 1.5-.6.5-.4 1.4l-.4.4-.7 1.5-.5 1.5c-.1.3-.6.5-.4 1-.7.2-.3 1-.6 1.4l-.6 1c-.1.6-.7 1-.5 1.5l-.3.7c0 .4-.6.7-.4 1.2 0 .4-.6.6-.4 1-.5.2-.3.9-.7 1.1q-.1 1-.7 2l-1 1.6c-.2.4.2.9-.3 1.2l-.5 1.2q-.4.5-.5 1.2l-.3.7q-.6.7-.8 1.6c0 .7-.5 1-.6 1.6-.1.5-.7.9-.6 1.3 0 .6-.5.8-.4 1.3-.5.3-.4 1-.8 1.3q0 1-.6 1.7l-.7 1.5-.1.1-.2-.1v-1q.4-.1.4-.6c0-.2.4-.3.4-.7s.5-.7.4-1.2c0-.3.5-.6.4-1 .5-.2.3-.8.7-1.1l.2-1c.3-.2.2-.7.5-1 .3-.1 0-.6.5-.7q.3-1.6 1.2-3 0-.6.5-1.3t.4-1.5c.5-.2.3-.8.7-1 .3-.4-.1-1 .4-1.3-.1-.5.6-.7.5-1.2.6-.3.2-1 .5-1.4l.7-1.1q0-.6.3-1 .1-.5.4-.9c0-.5.6-.7.5-1.2q0-.8.6-1.4l.6-1.1q0-.5.3-1 .5-.7.5-1.3l.4-1c0-.4.6-.6.4-1 .7-.3.2-1.1.7-1.6.3-.3.3-1 .6-1.3.5-.4 0-1.2.7-1.5l.1-1c.4-.2.2-.7.6-1l.4-.8q.5-.5.5-1.2c-.1-.5.3-.8.4-1.2q.3-.5.4-1.2c0-.3.4-.3.4-.7l.4-.8c0-.4.5-.6.4-1s.3-.6.4-.9c.2-.8 1-1.3.8-2.2.5-.6.6-1.4 1.1-2 0-1 1-1.7 1-2.8l.3-.6q.2-.7.6-1.2c.3-.4 0-.9.3-1 .4-.4.2-1 .6-1.2q.3-1.5 1.2-2.7c.2-.4 0-1 .4-1.3q.4-.5.5-1.2 0-.5.3-.8l.5-1c0-.5.6-.6.4-1s.4-.7.4-1.1.6-.6.4-1q.6-.5.4-1c0-.4.5-.7.5-1 .4-.3.2-.8.5-1 .4-.4 0-1.2.6-1.4 0-.6.6-.9.4-1.5 0-.3.5-.5.4-1q0-.7.5-1.2l.5-1q.6-.6.6-1.5c0-.4.6-.6.5-1q.7-.6 0-1.2l.2-.2h.3q.7-1 1-2 .2-.9.6-1.6.7-1 .7-2.1-.2-.8.6-.8l.1-.1q0-.7.4-1.2c-.2-.6.7-.7.5-1.3l1.4-2.6c.3-.3 0-.8.3-1 .3-.3.2-.8.5-1q.3-.4.4-.9.5-.3.5-1c0-.4.6-.5.5-1l.2-.2.2.3zm145.5-33.8c0-.5-.2-1.1.4-1.5 0-.5.6-1 .4-1.6-.2-.5.3-.8.3-1.2v-2.6c-.5-.6-.2-1.3-.3-1.9l-.5-1.2q-.6-.6-1.4-.4c-.3.7-1 .1-1.4.6q-.7.4-1.3.1c-.6-.1-.7.6-1.3.5q-.6-.3-1 .2l-.4.1c-.5.2-1-.2-1.5.2s-1 0-1.3.3q-.7.4-1.7.4c-.4.5-1 .3-1.6.4-.4.5-1 .3-1.6.4-.4.5-1 .3-1.5.4-.4 0-.5.5-1 .4s-.8-.2-1.1.3h-.4q-.8 0-1.4.4c-.4.2-1-.2-1.4.4h-1.2c-.5.5-1 .4-1.7.5-.3.5-.9.3-1.4.4-.4 0-.6.5-1 .4s-.9-.2-1.1.3h-.2q-.7-.1-1.6.4c-.4.3-1-.1-1.5.4h-.1c-.7.2-1.4-.2-1.9.5-.5 0-1.2-.3-1.6.4h-1.2l-.1-.2.1-.2c.6.2 1-.4 1.5-.4q.8 0 1.4-.4c.4-.2 1 .2 1.3-.3s1 0 1.4-.1c.4-.9 1.5 0 2-.8h.2q.8.2 1.3-.3.5-.3 1.2-.1c.3 0 .4-.5.8-.4.7 0 1.1-.7 1.8-.4q.9-.6 1.9-.4c.4-.6 1-.4 1.6-.4.4-.6 1-.3 1.4-.5.5 0 1-.5 1.5-.3.5 0 .8-.7 1.4-.4.5-.6 1-.4 1.7-.4.4-.6 1-.4 1.6-.4.4-.6 1-.4 1.6-.4q.3-.2.3-.5l-.4-.5c0-.2-.5-.2-.3-.5 0-.2.3-.3 2-1.7l1.2-1.2q-.7-.1-.2.5v.5c-.2.3-.7.2-1 .6q-.1-.4-.3-.4l-.6.5-.8.5v.2q0 .2.2 0 .6 0 1 .5l-.4.5.5.5h.5q.3-.3-.2-.4l.1-.3.6.1q.3.6.8.1.3-.2.7-.2c.7 0 1.4.2 2-.4h1.2q.4-.4 1-.4.8.2 1.1-.2c.3-.5-.3-.8-.6-1.1l-.6-.6-.3-.1q-.4.1-.7-.2-.4-.3-.9-.4c-.7-.4-.9-.4-1.5.2q-.3.5-.7 0c-.1 0-.5 0-2.2 1.2-2 1.2-2.3 1.3-2.5 1q0-.2-.4-.2c-.3 0-.6.7-1 .3q-.4-.4-1-.3-.5 0-.7.2l.4.4.3.3-.1.3q-.8-.1-1.3.4c-.3-.6-.5-.1-.8 0h-.4c-.3-.3.1-.3.2-.5v-.1l-.3-.2c-.4-.1-.4.4-.8.4h-1c-.2 0-.3.6-.6.2-.4-.4-.5.2-.7.2h-.8c-.5 0-.7.6-1.3.4q-.5-.2-1 .3h-1.2q-.6.7-1.6.5c-.4.6-1 .3-1.5.4-.4 0-.7.5-1.2.4-.3 0-.4.5-.8.4h-.8c-.7 0-1.2.5-1.8.5l-.5.3h-1.6c-.3.6-.8.3-1.2.4l-.9.4h-1v-.4q.8 0 1.3-.4c.4-.2 1 .2 1.5-.3.3-.3.9 0 1.2-.4h.6c.8.2 1.4-.6 2.2-.5.3-.6 1-.1 1.4-.5s1 0 1.4-.6l.3-.1c.5-.1 1.1.2 1.5-.2s1 0 1.3-.2q.5-.4 1-.4c.6.1 1-.3 1.3-.4q.6.1 1-.4c.3-.2.9.2 1.2-.3.1-.2.6 0 .8-.4l.1-.1q1 0 1.9-.4.8 0 1.4-.4c.4-.2 1 .2 1.5-.4h.3q.8.1 1.3-.4c.2-.2.8.2 1-.3l.2-.1q.7.2 1.3-.2t1.3-.2c.6.1.8-.4 1.3-.4h1.3l1.1-.4q.5 0 .9.3.3.6 1 .5.3 0 .5.2c.4.6 1.1.6 1.5 1.2q.4.3 1 .2t1 .5l-.1.2-.6.1q-.7.1-.4.6l.4.5q.7.7.7 1.9v1.4q0 .3.3.4c.3.3 0 .7.1 1q-.5.5-.4 1.2v1.6c-.5.4-.3 1-.4 1.4l-.3.7c0 .6-.6.4-1 .5M205.7 596.3q0-.6.3-1l.2-1c.5-.4 0-1.2.7-1.5-.2-.6.6-.8.4-1.5l.3-.4q.1-.7.5-1.2c.4-.4.2-1 .5-1.4s.2-.9.7-1.1c-.1-.8.5-1.3.6-2q.3-1 .8-1.8c.3-.4-.1-1.1.6-1.4-.1-.5.5-.9.4-1.4q0-.2.3-.5l.4-1.2c0-.6.6-.9.6-1.4.4-.2.2-.9.7-1.1q-.1-.8.4-1.4.2-.7.6-1.2c.3-.3 0-.8.3-1 .3-.3.2-.8.5-1 .3-.3.2-.8.6-1-.3-.7.4-1 .4-1.6.6-.3 0-1.2.7-1.6l.7-1.5c.3-.4-.1-1 .6-1.3-.1-.6.6-.9.4-1.5l.3-.4.4-1.2c0-.6.6-.9.6-1.4.4-.3.2-1 .7-1.1-.2-1 .4-1.6.8-2.3s.3-1.4.8-1.9c-.2-.5.3-.8.4-1.2 0-.5.5-.7.4-1.3 0-.4.6-.5.4-1 .5-.2.3-.9.7-1q.3-1.6 1.2-2.8c.2-.4 0-.9.4-1.3q.3-.4.5-1.1.4-.6.4-1.3c0-.1.4-.3.3-.4 0-.5.7-.7.5-1.2s.4-.7.4-1c0-.5.6-.8.4-1.3l.3-.5c0-.5.6-.8.5-1.4s.6-.7.4-1.2c0-.5.5-.7.4-1.3q.2-.5.7-.9l.1-.1q0-1 .6-1.8l.9-1.6.1-.6q-.1-.8.4-1.4c.1-.4.6-.7.4-1.2v-.2q.6-.4.8-1.3.1-.8.7-1.3c.3-.4 0-1 .3-1.3q.4-.5.6-1.1.3-.6.4-1.3t.8-1.5l.5-1.1.7-1.2q0-.6.4-1.2c.2-.8 1-1.4.8-2.3l1.2-2 1-2.2.2-1c0-.2.4-.3.4-.6q0-.4.3-.3l.1.5v.4c-.7.3-.2 1.1-.7 1.5-.3.3-.2 1-.5 1.2-.5.4-.2 1-.5 1.4l-.7 1.1c.1.8-.5 1.4-.8 2.1 0 .4-.6.6-.4 1 .2.6-.5.8-.4 1.3l-.6 1c-.3.2-.2.6-.5 1-.3.3 0 1-.5 1.3 0 .5-.6.8-.4 1.4l-.4.7-.8 1.4c.2.7-.4 1-.4 1.7-.4.2-.3.7-.6 1-.4.2 0 .8-.4 1.2-.3.2-.2.7-.6 1q.1.7-.4 1.3-.2.7-.6 1.2c-.3.3 0 .8-.3 1l-.4.9q-.5.5-.3 1 0 .3-.3.4c-.2.8-.8 1.4-1 2.2 0 .8-.8 1.4-.7 2.3l-.4.6c0 .4-.6.7-.4 1.2 0 .4-.6.6-.4 1-.5.3-.3 1-.7 1.2 0 1-1 1.7-1 2.8l-.3.6q-.2.8-.6 1.2c-.4.4 0 1.1-.6 1.4.2.5-.5.7-.4 1.2-.6.3-.2 1-.6 1.4l-.6 1.1c-.2.3 0 .8-.3 1q-.1.5-.5.9c.1.5-.6.7-.4 1.2s-.4.7-.4 1c0 .5-.6.7-.4 1.3v.2c-.5.3-.4 1-.8 1.3l-.4 1.2c-.1.4-.6.7-.5 1.2.2.4-.5.6-.3 1-.5.3-.4.9-.7 1.2q-.3 1.5-1.3 2.9 0 .8-.4 1.4-.6.6-.5 1.4l-.3.4-.7 1.5-.5 1.4-.6 1.2c-.3.4 0 .9-.3 1-.4.4-.2 1-.7 1.2 0 1.1-.7 2-1.2 2.9.1.5-.3 1-.4 1.4l-.5 1.2q0 .8-.7 1.3c.1 1.1-1 1.8-.9 2.9v.1l-.7 1.4-.5 1.2c0 .4-.6.8-.7 1.3q0 .8-.4 1.4-.5.7-.5 1.4l-.4.8q-.4.6-.4 1.1 0 .2-.2.3l-.1-.3zM384.8 381q0 .4-.3.4-.5-.4-1-.3h-2.6c-.7 0-1.2.6-1.9.4q-.9-.1-1.6.4-.6.3-1.3.4-.5.6-1.2.4c-.5 0-.8.6-1.4.4-.3-.1-.5.5-.9.4q-.4 0-.7.2l-.3.2q-.7-.2-1.3.2c-.6.4-.8.1-1.1.2-.5.1-.9.6-1.5.4q-.5.6-1.2.4c-.5 0-.8.6-1.4.4-.3 0-.6.5-1 .4q-.8 0-1.3.4-.7 0-1 .3h-.4q-.7 0-1.3.4c-.2.3-.8 0-1 .4h-.4l-1 .1c-.3.7-1.2.1-1.5.7-.7 0-1.2.5-1.8.5q-.6 0-1 .3t-1 .2q-.2 0-.5.3c-.4 0-.9-.2-1.3.3-.3.3-.8 0-1.1.1q-.7.4-1.4.4c-.3.6-1 .2-1.4.6s-1 0-1.4.6h-.4q-.6-.1-1.2.4c-.3.2-.8-.1-1.1.3l-.3.1q-.8-.2-1.3.3c-.3.3-.9 0-1.3.4-.3.4-1.2-.2-1.6.5q-.8 0-1.4.4c-.4.2-1-.2-1.4.4q-.8-.1-1.3.4c-.7-.2-1.2.7-2 .4-.5-.1-.8.7-1.4.4-.3 0-.5.5-.9.4q-.4 0-.7.2t-.5.2q-.6-.1-1.3.4c-.2.2-.7-.1-1 .3l-.4.1h-1c-.2.7-1.1.2-1.5.7q0 .2-.3.1c-.9-.2-1.5.6-2.2.5-.4.6-1.2 0-1.6.7h-.1c-.5.1-1-.2-1.3.3-.3.3-.8 0-1.2.1q-.5.5-1.4.5c-.3.6-1 .1-1.4.5q-.6.4-1.3.2l-.1.1c-.3.6-1 0-1.4.6-.3.4-.8 0-1 .3q-.6.5-1.2.2c-.5-.1-.7.6-1.2.5a1 1 0 0 0-1.1.2q-.6.3-1.3 0h-.2l.1-.2c.6 0 1.1-.5 1.6-.4q1-.1 1.8-.6c.2 0 .4-.4.7-.3.8.3 1.3-.6 2-.4.3-.7 1.2-.1 1.6-.7h.3c.8.2 1.3-.6 2-.5q.7-.6 1.5-.4c.4 0 .4-.4.8-.4q.6 0 1-.4h1q.3 0 .5-.3l1.8-.5c.6 0 1.2-.6 1.9-.4.3-.6 1.3-.1 1.6-.8.8.3 1.3-.6 2-.4s.9-.6 1.5-.4.9-.5 1.4-.4c.3-.6 1-.2 1.2-.5q.5-.4 1.1-.3c.6 0 1-.7 1.6-.4.3-.7 1-.2 1.4-.6s.9-.1 1.3-.2c.4 0 .5-.5.9-.4.6.1 1-.6 1.6-.4.5.2.8-.6 1.4-.4.4.1.6-.5 1-.4q.6.1 1.2-.2c.3-.4.8 0 1.1-.2q.7-.4 1.4-.4c.3-.6 1-.2 1.4-.6s1 0 1.3-.2c.4-.4 1-.2 1.4-.5.4-.5 1 0 1.2-.4q.6-.4 1.1-.3c.5.1.6-.5 1-.4.7.1 1.2-.7 1.9-.4q.8-.2 1.5-.8c.6.2 1-.5 1.6-.4l1-.4h1q.3-.1.5-.4c.3.6.6.2.8 0l.5-.4h1q.3-.4.8-.4c.5.1.6-.4 1-.4q.6 0 1-.3v-.1c.5-.1 1 .2 1.4-.2s.8-.2 1.1-.2c.5 0 .6-.5 1-.4.7 0 1-.7 1.7-.4.3-.7 1.1-.2 1.5-.7l.2-.1c.5 0 1.2.2 1.6-.4.6.2 1-.4 1.4-.4.7 0 1.2-.6 1.9-.5q.3-.4.8-.3c.5.1.8-.4 1.3-.4h1.4l.4-.4q.4-.2.6.3-.1.5.4.5h2.6zM245.1 507.7h-.8l-.2-.2.2-.2 1.8-.5c.5.1 1 .3 1.4-.3h1.6c.6-.7 1.3-.4 2-.4s.9-.6 1.5-.5h1.4c.4-.6 1-.4 1.6-.3.7 0 1.2-.5 1.8-.5h2c.8-.6 1.7-.3 2.5-.3.6 0 1-.7 1.6-.5q.7.2 1.6 0c.5-.6 1.2-.2 1.8-.4.5 0 1-.5 1.5-.4h1.4c.4 0 .7-.4 1.2-.4h1.4c.5 0 .8-.5 1.5-.4q.7.3 1.2-.3h.4c1-.2 2 .3 3-.4h1.6c.4 0 .6-.6 1-.4h2.3c.4 0 .5-.6 1-.5h2.2c.4 0 .7-.5 1.2-.4h1.2c.7.1 1.2-.5 1.9-.4h1.8c.7-.7 1.6-.3 2.4-.3.6 0 .9-.6 1.5-.5h1.4c.7-.7 1.6-.4 2.4-.3.7 0 1.1-.6 1.8-.5h1.8c.2 0 .4-.4.7-.4l.2.1v.3q-.3.4-.8.5c-.6 0-1.2-.3-1.7.3h-1.6c-.5.8-1.3.4-2 .4-.5 0-.9.6-1.4.5H296c-.5.6-1.3.3-1.9.3-.4.1-.9-.1-1.3.4h-.7c-.6.1-1.2-.1-1.7.4h-1c-.7-.2-1.3.5-2 .5h-2.2c-.3.4-.8.2-1.2.4l-1 .4c-.7 0-1.4-.2-1.9.3h-1.4q-.7-.2-1.3.4h-.3c-1 .1-1.9-.2-2.7.4h-.2l-2.1.1c-.7.7-1.4.2-2.1.3-.5.1-.7.6-1.3.5h-1.4c-.6.7-1.5.2-2.2.3q-.8 0-1.4.4h-1.4q-.8-.2-1.3.4h-.4c-.9.1-1.8-.2-2.6.5h-1.6c-.5-.2-.8.3-1.2.3q-.9.1-1.6 0c-.7 0-1 .6-1.7.5h-1.6c-.5-.2-.8.3-1.2.4h-2.8l-.9.4zM386.7 617h-3q-.7.1-1-.3h-4.4c-1.2-.2-2.4.3-3.5-.5h-5.2q-.7 0-1.2-.4h-5.8c-.6 0-1-.6-1.7-.4h-5.2c-.5.1-1-.6-1.6-.4h-5l-.6-.3c-.4.7-.8-.3-1.3-.1q-.7.2-1.4 0h-3c-.5 0-1 .2-1.5-.3q-.3-.2-.7 0h-3c-.7-.1-1.4.2-2-.4q-.1-.2-.7 0l-4.6-.1c-.7 0-1.6.4-2.2-.4h-5.6q-.8.1-1.3-.4l-.5.2-.3.2c-.7-.8-1.6-.3-2.4-.4h-2.4c-.5 0-1 .2-1.5-.3H309c-.6-.1-1.2.1-1.7-.4q-.2-.1-.8 0h-4.2c-.6-.1-1.3.2-1.8-.5H295c-.5.1-.8-.4-1.2-.4h-5q-.8.1-1.3-.4h-4.4l-.1-.1.2-.3h5.2q.4 0 .7.3c.2.2.4-.5.7 0q.2.2.7.1h4.8c.7 0 1.6-.3 2.2.4h4.4q1.3-.2 2.2.2t1.9.2h4.4c.6 0 1 .6 1.6.5q.9-.2 1.8 0h3.4c.6-.1.8.6 1.5.4q.7-.2 1.6 0c.9.1 1 0 1.6 0h1.6c.7 0 1.2.5 2 .4q1.2-.2 2.4 0 1.1-.2 2.2 0 1 .3 2 .3h4.2c.6 0 1.2-.2 1.7.4h5c.7.1 1.6-.3 2.2.4h6c.8.8 1.8.3 2.6.4h3.2q.4 0 .5.3.4.3.7 0l.3-.2c.5.6 1 .3 1.7.3h3.4c.5 0 1.1-.2 1.6.4h4.8c.7 0 1.4-.2 2 .4h6l1.5.4h4.6q.6-.1 1.2.4.3.2.8 0h4l.1.2-.2.2zM277.4 417l-.1.4c0 .2-.4.2-.2.5l1 2.1 1.3 2.1c-.1.7.7.8.7 1.3.1.5.6.7.6 1.2l.5.2q.3 0 0 .2t0 .6l.2.3.4.9.4.8q.1.4.6.8l1.4 2.8 2 4c.2.5.8.6.8 1.2l2.4 4.8q1.1 2.4 2.4 4.7c-.1.6 1 .7.8 1.4l1 2 1 2q.3.8 1 1.4.3.3.2.7l.1.5c1 1 1.3 2.2 1.9 3.3l3.8 7.6q.1.6.6 1 .5.3.5 1l.7 1.3q.3.7.8 1.3c-.2.5.5.7.4 1.2.5.3.3 1 .8 1.3v.3q-.1.3-.5 0l-.3-.5q-.1-.5-.4-.8-.4-1-1-1.7-.4-.5-.6-1.3l-.5-1c-.1-.3-.6-.5-.7-.9l-1.2-2.3q-.4-1-1-1.7-.3-.3-.2-.6l-.1-.5c-1-1-1.3-2.2-2-3.3s-.9-2.4-1.9-3.4c.1-.5-.5-.7-.4-1.2-.4-.2-.3-.7-.6-1q-.4-.5-.6-1.1l-.8-1.6q-.3-.8-.8-1.5 0-.5-.5-.9l-.2-.2c-.2-.5 0-1-.6-1.4q-.6-.6-.7-1.3l-2.8-5.7c-.3-.5-1-.7-.9-1.4q-1.3-2.2-2.3-4.4-.4-1-1-1.8-.4-.3-.2-.5c.2-.6-.7-.7-.5-1.3-1-.8-1.1-2.2-2-3.2.2-.4-.4-.6-.3-1 0-.4-.5-.4-.5-.8q0-.4-.3-.4-.4 0-.4-.2.1-1.2-1-1.4c-.4 0-.1-.3 0-.4q.3-.1 0-.3-.4 0-.6-.3c0-.6-.7-.8-.8-1.3v-.6c0-.3.6-.5.2-1l-.4-.8c-.5-.8-.7-1.8-1.5-2.3q-.5-.4 0-.8-.5-.5-.4-1.2v-.2q.3 0 .4.2l1.1 2q.6.8 1 2c.1.4.3.1.4 0l.2-.2zm197.5 185.6.7.1v.3q-.8-.2-1.3.4H473c-.4 0-.5.5-1 .4q-.6-.1-1 .3l-.2.1H469c-.4.6-1 .4-1.5.4q-.6.1-1 .4l-1.2.1-.5.3c-.5.1-1.1-.2-1.7.2q-.7.4-1.5.2c-.4 0-.5.5-1 .4q-.6-.1-1.1.3l-.2.1H458c-.4.6-1 .4-1.5.4q-.6.1-1 .4l-1.2.1-.5.3c-.5.1-1.1-.2-1.7.2q-.7.4-1.5.2c-.8-.2-.6.5-1 .4h-1.2c-.4.7-1.2.1-1.6.5s-1.1 0-1.5.3q-1 .6-2 .4c-.6 0-.9.5-1.5.4s-1-.2-1.4.4q-.8-.2-1.4.1-.6.5-1.2.3c-.6-.1-.8.4-1.3.4H435c-.4.6-1 .4-1.4.4-.7 0-1.3.7-2 .4-.5.7-1.4.1-1.8.5-.6.5-1.2.2-1.7.3s-.6.5-1 .4h-1.3c-.4.7-1 .4-1.6.4-.5 0-.6.5-1 .4h-1q-.2.3-.5.4h-1.6c-.3.6-1 .4-1.4.4-.6-.1-.7.5-1.3.4-.3 0-.8-.2-1 .3l-.2.1h-1.6q-.5.6-1.2.4h-2c-.5.7-1.3.3-1.9.4q-.4.4-1 .4-.7-.1-1 .4h-.8c-.5.1-1-.2-1.6.2-.3.4-1 0-1.3.2q-.6.5-1.2.4l-.2-.2q.6-.2 1-.6c1 .3 1.6-.6 2.5-.4.4.1.6-.5 1-.4q.7.2 1.2-.2l.3-.2c.5-.1 1.1.2 1.7-.2.4-.4 1-.1 1.5-.2.4 0 .6-.5 1-.4h1.2c.4-.6 1-.4 1.5-.4q.7-.1 1-.4h1.2l.5-.4h1.8q.6-.6 1.4-.4c.4 0 .6-.5 1-.4s.9.2 1.1-.3h.2l1.6-.1c.3-.6 1-.4 1.4-.3l1-.5h1.2l.5-.4c.5 0 1.2.2 1.7-.2s1-.1 1.5-.2c.4 0 .6-.5 1-.4h1.2c.5-.6 1.1-.4 1.7-.3.4 0 .6-.5 1-.5h1a1 1 0 0 1 1-.4c.7.2 1.1-.3 1.7-.4h1.6c.5-.6 1.2-.3 1.8-.4.5 0 .7-.5 1.3-.4h1.2c.3 0 .4-.5.8-.4.5.2.8-.4 1.2-.4.5 0 1 .2 1.3-.3h.8l1.7-.2c.4-.5 1-.2 1.5-.3.4-.7 1.3-.1 1.8-.5s1.1-.2 1.7-.3c.4 0 .5-.5 1-.4h1.2c.4-.6 1-.4 1.4-.4.7.2.9-.5 1.5-.4s1 .2 1.4-.4h1q.7 0 1.3-.4c.4 0 .9.2 1.2-.3h.2q.8-.2 1.4 0l1.2-.5c.6 0 1.2.2 1.7-.3s1.2.2 1.7-.4zM267 547v.5c-.7.3-.2 1.2-.8 1.5q-.1.8-.7 1.5c-.3.5 0 1-.5 1.4-.2.2.1.8-.3 1.1-.3.2-.1.6-.4.8-.3.4 0 1-.5 1.4 0 .5-.7.8-.5 1.4l-.3.7c0 .4-.6.7-.5 1.2.2.4-.5.6-.3 1-.5.2-.3 1-.8 1.1.1 1.1-1 1.8-.8 2.9l-.6 1c-.5.3 0 .9-.4 1.2s-.1.7-.3 1l-.3.5q-.3.8-.8 1.5-.1.8-.4 1.4c-.1.4-.6.6-.5 1 .2.6-.6.8-.4 1.3q-.4.4-.4 1l-.3.5c.1.5-.6.7-.5 1.2-.6.3-.2 1-.5 1.4l-.6 1.1c-.2.3 0 .7-.3 1.1q-.5.5-.5 1.2l-.4 1c0 .4-.6.6-.5 1 0 .2-.4.4-.3.5.2.7-.6 1-.4 1.6.1.4-.9.7-.1 1.1l-.2.3h-.4l-1 2c.3.5-.2.8-.4 1.2q-.3 1.2-.8 2l-1 2c-.3.4 0 1-.4 1.3q-.4.5-.6 1.2-.3.5-.4 1.2l-.3.6c0 .5-.6.6-.5 1q-.4.4-.3.9c.1.5-.5.6-.5 1s-.5.6-.4 1l-.2.2-.1-.3.1-1q.5-.7.7-1.5.1-.7.7-1.5c.2-.3 0-.7.3-1q.5-.6.5-1.2l.4-1c0-.5.6-.6.4-1.1q.6-.4.4-1c0-.4.5-.5.5-.9v-.6q.6-1 .9-2l.9-1.8q.4-1.2 1-2.2 0-.5.3-1.1l.4-.8c-.1-.5.5-.6.4-1q0-.7.4-1 0-1.1.7-1.8l.2-1 .3-.6q.1-.7.5-1.2c.1-.5.5-.9.4-1.4.2-.3.5-.4 0-.8v-.1c.1-.4 1.1-.5.4-1.1v-.2c.9 0 .7-.8 1.2-1.1-.1-.8.5-1.3.6-2l.8-1.8.2-.3c-.2-.6.4-.8.3-1.3q0-.6.5-1 .4-.3.4-.8l.2-.6c0-.5.6-.8.5-1.3s.7-.9.5-1.5v-.2c.4-.2.3-.8.6-1 .4-.4 0-.8.3-1.2q.6-.6.6-1.3c0-.6.6-.9.5-1.4q0-.7.5-1.2c.3-.3.1-.6.4-.8s.2-.7.3-1q.2-.7.7-1.2c.4-.4.7-1.4.9-1.9q.4-1.1 1-2.1.2-.4.6-.3zm111-117q.1.8-.5 1.4c.2.5-.4.6-.4 1q.1.6-.4 1c.3.6-.3 1-.4 1.5l-.4 1q0 .7-.5 1.2c-.3.3-.1.8-.5 1q-.4 1.6-1.3 2.8 0 .6-.2 1c-.3.3-.1.8-.3 1l-.5 1c-.4.3 0 .8-.3 1q-.4.5-.4 1.1c0 .4-.5.6-.4 1q-.6.8-.7 1.5c0 .6-.7.9-.5 1.5l-.1.3c-.4.3-.2.9-.7 1.1q.2.8-.4 1.3c.3.5-.3 1-.4 1.4l-.4 1q0 .7-.5 1.2c-.3.4-.1.8-.3 1q-.3.4-.4 1c-.6.2-.2.9-.5 1.3q-.6.6-.6 1.3c0 .6-.6.9-.5 1.5q-.1.5-.5 1.1-.3.4-.3.7v.4c-.7.8-.8 2-1.2 2.9-.6.3-.2 1-.5 1.2q-.4.5-.3 1l-.3 1c-.1.5-.8.9-.5 1.5-.5.3-.4 1-.8 1.3.3.6-.5 1-.4 1.6l-.2.5-.6 1.6q-.2.7-.8 1.5c0 1-.7 1.7-1 2.5h-.2l-.1-.3-.3.1v.4l-.3.2v-1.4c.6-.2.2-1 .5-1.3q.5-.7.6-1.4c0-.5.6-.8.4-1.4l.2-.5.7-1.6q0-.8.7-1.4c-.1-1 .6-1.5.8-2.3.2-.5.4 0 .5 0h.3l-.1-.6q-.6-.6-.1-1.2l.7-1.5c.2-.4.3 0 .4.1h.3q-.1-.8.4-1.3l-.3-.2v-.7q.8 0 .7-.7.8-.5 0-1.1l.2-.3c.7-.3.7-.3.4-.8q-.2-.4.1-.4.5.1.5-.4c0-.4.6-.5.4-1s.3-.5.4-.8q0-.6.3-1.1l.5-.8q.1-.3-.2-.7-.3-.2 0-.3c.7 0 .5-.8 1-1.1-.2-.7.4-1 .5-1.6l.3-.5c-.2-.6.6-1 .4-1.6-.1-.4.5-.4.3-.8-.1-.2-.5-.4 0-.5q.8 0 .2-.5v-.5c.4-.4.4-1 1-1.4.3-.2.8-.5.1-1q.6-.5.4-1.2c0-.5.5-.6.4-1q.1-.4.6-.4.3 0 .1-.3c-.7-.4.5-.7.1-1l.4-.5q.5-.3.4-.8c-.1-.5.6-.7.4-1-.2-.6.6-.8.4-1.3s.4-.7.4-1 .5-.5.4-.9v-.8q0-.4.3-.4.8 0 .2-.5v-.1l.7-.7q.5-.4.5-1v-1.2q.4-.5.3-.9 0-.2.3-.5l.7-.7.5-.8zm-138.3 95.3q.4 0 .4.3c0 .5-.5.6-.4 1q.2.6-.1 1c-.4.3-.2.7-.6 1q0 .3-.3.6c-.3.3 0 .4.1.6l-.3.4q-.4.4-.4.9-.7 1-1.2 2.3c.2.5-.3.8-.6 1.1q-.2.1 0 .3.4.4-.3.5c-.5.1-.2.8-.7 1 .2.6-.3 1-.4 1.5 0 .3-.7.5 0 .9l-.3.2q-.3 0-.5.2 0 .4.3.7v.6l-.4.1-.7.7q0 .3.3.7 0 .3-.3.2-.6 0-.2.4.3.3 0 .3l-.5.2q-.2 0 0 .3.6.7 0 .8-.5 0-.5.3v1.2q0 .6-.6.5l-.1.3c.6.6-.1.4-.4.6q-.2 0 0 .2.6.4.2.9c-.3.3-.8.5-.7 1s-.5.7-.4 1.1c.1.6-.5.9-.5 1.4q-.6.1-.9.8-.2.4 0 .6t0 .3l-.4.4q-.2.3 0 .4.5.7-.3.8-.5.3 0 .5.3.3 0 .5-.8.9-1.2 2.1-.1.3-.4.4-.5.4-.3 1 0 .3-.3.4v.3c.4.6.3.6 0 1q-.2.2-.5.2-.4 0-.4.3v1.6l-.7 1.3c-.3 0-.8 0-.2.5v.3l-.8.7q-.5.4 0 .7-.3.4-.4 1l-1.3 2.4c-.3.4 0 .8-.3 1l-.4 1c-.4.2-.2.7-.6.9-.2.2 0 .7-.4.8q-.3 1.5-1.2 2.7c-.2.5.1 1.1-.5 1.4 0 .5-.6.9-.4 1.4l-1 2h-.2v-1q.4-.4.4-1c0-.4.5-.6.4-1 .4-.2.3-.8.6-1 .4-.3 0-.9.4-1.2.3-.3.2-.8.6-1q-.1-.9.4-1.4l.5-1.3q0-.6.6-1.3l.2-.9c.4-.3.2-.7.6-1 .3-.1 0-.6.4-.8a5 5 0 0 1 1-2.2c-.3-.6.3-1 .3-1.4.7-.4.3-1.1.6-1.6q.7-.6.6-1.6l.2-.3q.8-1.3 1.1-2.7l1.4-2.6c.3-.4 0-1 .5-1.4-.1-.5.3-.9.4-1.3 0-.4.6-.7.4-1.2 0-.4.6-.6.4-1 .5-.2.3-.9.7-1.1 0-1 1-1.8 1-2.9l.3-.6.8-1.5c-.2-.6.4-1 .5-1.6.4-.2.2-.7.5-1 .5-.3 0-.8.5-1.2l.5-1q0-.8.4-1.4l.6-1.1c.4-.4 0-.9.3-1 .4-.4.3-.8.6-1q.1-.6.5-1c-.2-1.1 1-1.8.9-2.9l1.4-2.6c.3-.4-.1-.8.3-1 .3-.3.2-.8.5-1l.5-1 .1-.8z"/><path d="M357 498.5v.3c-.5.5-.5 1.3-1 1.8.1.7-.7 1.3-.5 2l-.5 1c-.5.4 0 1.2-.7 1.5.7.5-.2.8 0 1.3-.5.2-.3.9-.8 1 .5.4 0 .6 0 1s-.6.6-.4 1.2c.2.4-.4.6-.4 1 0 .3-.5.6-.4 1s-.6.6-.4 1q-.5.5-.4 1.1c0 .2-.4.4-.4.6 0 .5-.6.7-.4 1.3.2.4-.3.6-.4 1q-.4.6-.4 1.2c-.5.3-.5 1-.8 1.3l-.7 1.5-.5 1.4-1 1.6-1 2q-.5 1.2-1.2 2.3 0 .5-.4.8l-.7.7-.3.7q-.2.8-.9 1.2c-.5.4-.4 1.3-1.2 1.3l-.1.6q-.1.6-.6.9c-.4-.6-.6-.2-.9 0l-.7.8q-.4.5-1 .4-.4 0-.6.4-.4.5-.9.4-.9-.2-1.3.6-.5.4-.8 0-.2-.3-.3 0l-.5.2q-.6-.1-1 .4l-.6.6q-.4.3-.6-.1-.4-.2-.7 0c-.5.2-.9-1-1.3-.1l-.4-.4-.2-.1.2-.3h.2c.5-.1 1.1.3 1.5-.2s1.1.1 1.4-.5q.8 0 1.4-.5l1.2-.5 1.3-.7.4-.2c.4-.3.6-.9 1.1-1q.8-.4 1.2-1 .8-.2 1.3-.8l1.1-1.1.3-.3c.7.2.8-.8 1.5-.8q.3-.1.7-.6c0-.8 1-1 .9-1.7l.7-1.4.7-1.2.5-1c0-.5.5-.7.7-1l.6-1.4q.3-.7.7-1.1c-.1-.6.7-.9.4-1.5l.3-.4q.4-.6.5-1.2 0-.9.6-1.4 0-.7.6-1.1c0-.8.5-1.3.7-2l.8-1.8c.2-.4-.1-.9.2-1.1s.2-.7.6-1q.3-.5 0-1.2 0-.8.5-1.6.3-.4.4-1 0-.7.5-1.2c.4-.3.2-.8.3-1q.2-.6.6-1c.4-.4 0-1 .4-1.3s0-.8.3-1l.4-.9c.3-.5.3.2.5.2zm-16.3-57.3q.2.8-.4 1.4.2 1-.4 1.6c.3.7-.5 1-.4 1.7l-.1.3q-.6.8-.7 1.5c0 .6-.7 1-.4 1.7l-.4.4q.6.3 0 .7 0 .5-.2.7c-.7 0-.5.3-.6.7l-1 2c-.5.3 0 1-.5 1.4q-.4.4-.5 1.2.1.5-.4.9c.1.5-.5.7-.4 1.2-.7.2-.2 1-.6 1.3s-.2.9-.6 1.2c0 1-1 1.7-1 2.8q-.5 1.3-1.2 2.4c-.4.5 0 1-.5 1.5l-.6 1.1-.7 1.3c-.2.2.1.7-.2 1-.5.4 0 1.3-.8 1.6l-.7 1.5q-.3.5 0 .7.2.5-.2.6t-.5.2q-.1.5-.4.9l.3.2-.1.3q-.7-.1-.6.5c0 .5-.5.7-.4 1l-.4 1.3q-.1.5-.6.8t0 1q.2.2-.2.2t-.3.3q.5.5-.2.5-.6.1 0 .5v.5q-.1.3-.2.1-.3-.4-.6 0l-.4.1c.1-.3-.2-.8.2-1 .4-.4 0-1 .3-1.2.8-.9.7-2.1 1.4-3 .3-.4-.1-1.1.5-1.4 0-.5.7-.8.4-1.4l.8-1.5c.3-.8 1-1.4.9-2.3 0-.2.4-.3.3-.6 0-.4.5-.4.5-.8s.5-.6.4-1c-.2-.5.2-.6.4-.9q.2-1.1 1-2c.3-.4 0-1 .4-1.4q.4-.5.6-1.2.3-.5.4-1.2.1-.5.5-1c.3-.3.2-.9.7-1.1q0-.7.3-1.3c.2-.2 0-.7.4-1 .2-.2 0-.7.4-.9-.1-.5.6-.7.5-1.2.6-.3.2-1 .5-1.3l.6-1.2c.2-.2 0-.7.4-1 .2-.2 0-.7.4-.9-.1-.5.6-.7.5-1.2-.2-.4.3-.6.4-1 0-.5.6-.7.4-1.3v-.1l.8-1.3c-.3-.6.2-1 .4-1.5.1-.4.6-.8.7-1.2q.2-.9.7-1.4l.2-1 .4-.9zM248 512l-.3-.1.2-.1.6-.3.9-.5c.3-.3.5.3.5.3.5-.7 1.2-.3 1.9-.4q.5-.4 1.2-.4h1.2q1-.6 2-.4c.8-.7 1.8-.3 2.7-.4q.6.1 1-.4h.4c.8-.1 1.6.2 2.3-.3s1.6 0 2.3-.1q.7-.4 1.5-.4h1.4c.4 0 .5-.6 1-.4h2.2c1-.7 2-.4 3-.4.6 0 .9-.6 1.5-.5q.7.1 1.6 0c.8-.7 1.7-.3 2.6-.3.7 0 1.1-.6 1.8-.5h2c.7-.7 1.7-.4 2.5-.3.7 0 1.2-.6 2-.5q1 .2 2 0c.6-.6 1.3-.2 2-.3.8-.2 1.8.3 2.5-.4h.2c.7-.1 1.6.2 2.2-.4h.4c1-.1 2 .2 2.9-.4h1c.6-.1 1.2.2 1.8-.3.6-.3 1.2 0 1.8-.2.4-.6 1-.3 1.6-.4l1.7.2-.1.2h-1.4c-.4.1-.7.6-1.3.5q-.6-.2-1.1 0c-.9.5-1.8.2-2.7.4-.5 0-1 .5-1.6.4h-1.6c-.5 0-.9.5-1.5.4q-.7-.1-1.6 0c-.7.7-1.6.3-2.4.3-.5 0-.6.5-1 .5h-2.6c-.7.7-1.5.3-2.3.3-.6 0-1 .6-1.6.5h-1.6c-.9.6-1.9.3-2.8.3-.6 0-1 .7-1.7.5h-1.6c-.7.7-1.6.3-2.4.3-.6 0-.9.6-1.4.5h-1.4c-.7.8-1.7.4-2.5.3-.6 0-1 .5-1.6.5h-1.6c-.5.6-1.2.3-1.9.4-.4 0-.8-.2-1.2.3h-1c-.6.1-1.3-.2-1.9.4h-.1l-2.4.2c-.6.6-1.4.2-2 .2-.8 0-1.2.7-2 .5q-.8-.2-1.9 0c-.6.7-1.5.2-2.2.3q-.7 0-1.5.4-.1.2-.5 0m44.5-55.4-.2.1h-.1l-.5-.8-1.2-2.3c-.2-.6-1-.8-.8-1.5-.7-.7-.7-1.8-1.6-2.3.1-.4-.3-.6-.4-.8q-.1-.5-.4-.9v-.4q0-.3-.2-.5-.6-.8-1-1.8-.3-.7-1-1.4l-.2-.3q.1-.8-.5-1.2-.4-.4-.5-1-.4-.5-.6-1.1c0-.4-.6-.6-.4-1l-1.3-2.3-1.1-2.1q0-.5-.5-.9l-.3-.2c-.2-.4.1-.8-.2-1.1q-.6-.4-.6-1c-.4-.2-.3-.7-.6-1l-.5-1-.5-1-1-1.7-.4-.7q-.4-.8-1-1.4l-.5-1.3-.8-1.5-.7-1.5-.8-1.3-.7-1.5-1.3-2.8-.8-1.5-1.4-2.8q-.4-.5-.2-1.1l.2-.1q.2-.1.2.2v.5l.8 1.5 1 1.4.7 1.5q.4 1 1 1.8c-.1.8 1 .9.9 1.6l1 2 1 2 .9 1.5q.6.8 1 1.9.2.7.6 1.2c.3.3.2.9.6 1-.2.6.7.8.5 1.3.5.2.2.9.7 1.1-.1.8 1 1 .9 1.7l.8 1.4.6 1.3.8 1.5 1.4 2.9.8 1.4.6 1.4.8 1.2 1.4 2.7 2.2 4.4q.1.6.6 1t.5 1l1.1 2.1 1.2 2.2zm163.8 106.8h-1.2c-.8.2-1.3-.6-2-.5h-2c-.9-.7-1.8-.2-2.7-.4-.6 0-1.4.3-1.9-.4h-2.8q-.6 0-1.2-.3t-1.2 0c-1-.2-2 .3-2.8-.4h-1c-1-.2-2.1.3-3-.4h-.7c-1-.2-2 .2-3-.4h-.4c-1.2-.2-2.5.3-3.6-.5h-1.4c-.7 0-1.5.3-2.1-.3q-.3-.1-.8 0c-.8-.2-1.7.3-2.4-.5h-1.6c-.8 0-1.7.4-2.4-.4h-1.4q-.4.1-.4.6c-.1.3-.7.4-.8 0q.1-.5-.5-.6c-.6.1-1-.6-1.7-.4H410c-.6 0-1.3.3-1.7-.3h-1.8q-.6-.4-1.4-.5h-2.8q-.3-.1-.2-.5l.2-.2c.3.5.6 0 .9 0s.9-.3 1.3.2l.3.1c.7.2 1.6-.3 2.3.4h2.3c.7.1 1.5-.2 2 .4h2.7c.7 0 1 .6 1.8.5q1.1-.2 2.2 0l.6.3q.3 0 .5-.4h.2c.6.6 1.3.4 2 .4s1.2-.2 1.7.4h3.2q.8.1 1.4.4h3c.7.8 1.6.3 2.4.4.6.1 1.2-.2 1.7.4h1.2c.9.2 2-.3 2.8.4h.6c.9.2 1.8-.3 2.6.4h1.6c.5 0 1-.2 1.5.4h.6c1 .2 2.2-.3 3.2.4h.4c.7.2 1.6-.3 2.2.4q.3 0 .5-.3c.6.7 1.4.3 2.2.3q1 0 2 .4l2.2.1.1.2h-.1zM291.2 537l-1-.1q-.9 0-1.7.4H285c-1 .8-2.2.3-3.4.4q-.6 0-1 .3h-4.2l-1.3.5h-3l-.1-.1v-.1q.5-.4 1.1-.6.4-.1.7.1.1.3.5.1c1.2-.6 1.2-.6 2.3-.6h1.4q.5 0 .9-.3t.8.3c.4-.6 1-.4 1.6-.4h1.6c.3-.1.4-.5.7-.1.2.2.4-.4.8-.3h3.2c.6 0 1.2.2 1.7-.4h1.7l.8-.1q.3-.4.6 0 .3.3.5 0l.8-.3c.7 0 1.5.2 2-.4.6 0 1.2-.2 1.5.3q.5-.5.9 0c.9-.7 1.9-.3 2.8-.2s1.3-.7 2-.5h2.3q1-.6 2-.4c.3 0 .4.6.7.2q.4-.3.8-.2h1c.7-.7 1.5-.3 2.2-.4q.6.1 1-.4l.6.1q.1.4.4.1l.3-.2c.4-.2.6.6 1 .2q.4-.3.9-.2l.2.2-.6.6h-.4c-.8.1-1.7-.3-2.4.4h-.8c-1 .2-2-.3-2.9.4h-.8c-1 .1-2.2-.3-3.2.4h-.4c-1.2.2-2.5-.4-3.6.4h-1.6c-.8.1-1.6-.4-2.3.4H296c-1 .2-2-.4-2.8.4zm177.3-19.7q.2 0 .3-.2v-.5l.1-8q0-.6-.7-.6l-.1-.3h.2q.5 0 .6-.3V506q0-.5.3-1c.1 0-.3-.3-.3-.7v-18.4q0-.3.4-.3.3 0 .3.2.2.6-.2 1-.2.3 0 .4.3 0 .3.5v4.6q-.1.5-.4.8.5.4.4 1v13q0 1 .6 1.4.4.2-.3.4-.3 0-.3.3v8q0 .6.6.5l.1.2v.1q-.9 0-.7.9v3c0 .6.2 1.2-.4 1.7v.7q.6.6.4 1.3 0 .6-.3 1-.2.8.2 1.7.3.7-.4 1.3h-.2l-.1-.1v-10.8c0-.7 0-.7-.4-1.4m-197.8-26.9h-.4l-.1-.1v-.2c.7 0 1-.6 1.7-.5q.8.2 1.5-.2c.4-.3 1 0 1.3-.2q.8-.6 1.7-.3c.5 0 .8-.6 1.4-.5q.8.2 1.5-.3c.3-.3 1 .2 1.4-.4h1.6c.6 0 .8-.6 1.4-.5s1.1.3 1.5-.3h.2c.5-.1 1.1.2 1.7-.3.4-.4 1 0 1.5-.1s.7-.6 1.2-.5h1.2c.4 0 .6-.5 1-.4q.6.2 1 0c.8-.5 1.5-.3 2.3-.3q.6-.1.8-.5l.5-1.2q.4-.5.4-1l.2-.6.5-.8c.3-.3-.1-.8.2-1q.4-.4.3-1l.2-.3.5-1c.2-.6 0-1 .5-1.2-.1-.4.4-.6.4-1s.6-.6.4-1l.3-.2.1.4v.5c-.6.3-.2 1-.5 1.4-.8 1-.7 2.2-1.5 3-.1.3.2.7-.1 1-.5.4 0 1.2-.7 1.5 0 .5-.7.8-.4 1.4l-.7 1.3q-.2.4.4.7.2 0 .3.2l-.3.2c-.6-.3-.9.4-1.4.4h-1.4c-.5 0-.7.5-1.3.4h-1.4c-.5.7-1.3.3-2 .4-.5 0-.9.5-1.4.4h-1.4c-.5.6-1.3.4-1.9.3-.6 0-.8.6-1.4.5H282c-.6.6-1.4.3-2 .4-.7.6-1.5.4-2.3.3-.6 0-.9.5-1.4.5h-1.6c-.6.7-1.4.3-2 .4a2 2 0 0 0-1.3.4z"/><path d="m357.1 481.2.1.4.3-.2v-.4l.3-.1.1.3v.2q.2.7 0 1.2l-.6 1-.7 1.9c-.2.6-.8 1.1-.7 1.9q-.4.4-.4 1c0 .4-.6.6-.4 1q-.5.5-.4 1.1l-.6 1.2c-.3.3-.2.7-.6 1 0 1-.7 1.6-1 2.5-.5.3 0 1-.5 1.4q-.5.5-.5 1.2c0 .5-.6.8-.4 1.4q0 .4-.3.5-.4.6-.5 1.2c0 .5-.5.8-.4 1.2.1.6-.6.9-.4 1.5 0 .4-.5.7-.5 1.2q0 .7-.6 1.3l-.1 1q-.4.2-.4.6 0 .5-.3.9-.5.5-.5 1.2c.1.5-.4.8-.5 1.2s-.4.8-.3 1.2q-.6.6-.4 1.3c-.5.2-.4.7-.7 1.1s0 1-.5 1.4c0 .5-.7.8-.4 1.4l-1.2 2.1q-.2.3-.3 0l-.1-.3.5-1 .3-.8q-.1-.5.2-1c.4-.2 0-.8.3-1q.3-.4.4-.9l.7-1.3c0-.2.4-.5.3-.6-.2-.6.5-1 .4-1.5s.6-.7.5-1.2c-.2-.5.4-.6.4-1s.5-.6.4-1c-.2-.6.5-.8.4-1.3q.4-.5.4-1l.5-1 .2-.5.4-1.3q0-.6.5-1c0-.6.6-1 .4-1.6q0-.4.3-.7c0-.5.6-.8.5-1.4-.1-.4.6-.7.4-1.2s.3-.5.4-.9.5-.8.4-1.4q.5-.7.8-1.5l.7-1.3q.2-.3-.2-.6l-.1-.4.1-.3.3.1q.3.3.4 0v-.4c0-.6-.3-1.3.2-1.8.3-.4-.1-1 .5-1.3 0-1 .8-1.6.9-2.5q.4-.4.4-1c0-.4.4-.5.4-.9-.1-.6.4-1 .6-1.5zm57.3 65.8h1.3c.7-.3 1.2.4 1.9.3h1.8c.5.6 1.2.4 1.8.4.4 0 .7.6 1.2.4h1.2q.4.1.7.4.4.1.5-.3v-.6l.3-.2.1.1.2 1c.6-.2 1.1.4 1.8.4q.8-.1 1.7.3c.5.3 1.1 0 1.7.1.4.6 1 .4 1.6.4s.9.6 1.5.4h1.6c.8.7 1.7.4 2.6.4.5 0 .7.6 1.3.4h1.4c.5.6 1.3.4 2 .4.6.7 1.5.3 2.2.4.4 0 .6.5 1 .4h1.3l.2.3-.1.4h-.3l-.3-.3h-1.4c-.6.2-.8-.4-1.2-.4h-.6c-.5 0-1.1.2-1.5-.3h-.4l-2.1-.2c-.6-.6-1.4-.1-2.1-.3-.5 0-.7-.5-1.3-.4h-1.4c-.4-.7-1.2-.2-1.8-.4-.4 0-.7-.5-1.2-.4h-1.4c-.5 0-.8-.6-1.5-.4q-.7.2-1.2-.3h-.8l-1.8-.2c-.3-.5-1 0-1.4-.3q-.7-.4-1.7-.4c-.2.5-.5.2-.8 0-.5-.1-1-.5-1.7-.4s-1.4.2-2-.4H416q-.6 0-.8-.3-.6-.2-.7.4v1.8l-.3.1-.4-.1v-1.8q-.1-.7-1-.9h-1.3c-.5.1-.7-.6-1.3-.4h-1.4c-.8-.6-1.7-.3-2.6-.4-.5 0-.8-.6-1.4-.4h-1.4q-.6-.1-1.2-.5v-.2h1.7c.2 0 .3.5.6.1q.4-.2.6.1l.7.1c.6 0 1.2-.2 1.7.4h.2l2 .1c.5.6 1.2.3 1.8.3q.5.1.9.4h1q.3 0 .3-.3v-.4q0-.8.2-1.1.3-.6-.1-.8l.3-.2q.3 0 .4.2zM208.7 427.6l-.3-.6q-.2-.4-.6-.2-.2.3-.8.4c-.4-.1-.6.4-.8.3-.7 0-1.2.6-1.9.5-.4.6-1.3 0-1.7.8-.7-.3-1.2.6-2 .4-.5-.2-.8.6-1.4.4-.3-.1-.5.4-.9.4l-.7.2-.3.2c-.5 0-1-.3-1.4.3q-.8-.1-1.3.4c-.7-.2-1.2.7-2 .5-.5-.2-.7.6-1.2.4s-.7.5-1.3.4a1 1 0 0 0-1 .3c-.3.2-1 0-1.3.4-.2.3-.8-.1-1 .3l-.4.2c-.5 0-1-.2-1.4.4q-.8-.1-1.2.4c-.8-.3-1.3.6-2 .4h-.4c-.3.6-1 .2-1.4.6s-.9.1-1.3.1q-.3-.1-.6-.5v-.2q.8.1 1.3-.4c.3-.2.8.1 1.1-.3l.3-.1c.9.2 1.5-.6 2.3-.5.3-.6 1.1 0 1.5-.7h.3q.8.1 1.3-.4c.2-.2.8.1 1-.3l.4-.1c.4-.1 1 .1 1.3-.3s.8 0 1.2-.4 1.2.2 1.6-.5q.8 0 1.5-.4c.3-.2.8.2 1.2-.3.3-.3.8 0 1.2-.2.4-.1.8-.5 1.4-.3q.5-.6 1.2-.4c.5 0 .6-.5 1-.4.7 0 1.2-.7 1.9-.4q.9-.6 1.8-.4.6-.6 1.3-.4.4-.6 1.2-.4.5-.6 1.2-.5c.3-.5 1-.2 1.2-.4q.6-.6 1.2 0l1.4.7c.4.3.9 0 1.1.3.4.5 1 0 1.3.4q.3.6 1 .7l.2.2-.3.2h-.6q-.6-.5-1.3-.4-.3-.5-1-.6 0-.2-.4-.2-.8 0-1.2-.6l-.3-.2q-.2.2 0 .6zm54.8-18.1h.4l.2.3-.1.1q-.8-.1-1.3.4-.7-.1-1.2.4c-.6-.2-1 .5-1.4.4-.6-.1-.9.5-1.5.4-.4 0-.8.7-1.4.4q-.5.5-1.2.5-.4.1-.7.6h-.3q-.4-.5-.9-.1c-.2.2-.4 1-1 .2v.1l-.4.7c-.5 0-.8.6-1.4.4s-.8.4-1.2.4q-.7-.2-1.1.2c-.4.5-1 0-1.3.4l-.5.2q-.7-.1-1.3.4c-.2.2-.7-.1-1 .3l-.4.1h-1c-.2.8-1.1.1-1.5.7l-.1.1-1.2.1q-.4.3-.9.3c-.5 0-.8.7-1.4.4s-.8.6-1.4.4q-.9.5-1.9.4c-.2.7-1.1.1-1.5.7l-.3.1c-.4.1-.9-.1-1.3.3-.3.3-1 0-1.2.4q-.2.2-.8.1l-.3-.2.2-.1q.2-.4.6-.5c.7.2 1.1-.7 1.8-.4.3-.7 1.2 0 1.5-.7h.4c.8.1 1.4-.6 2.2-.5.3-.7 1.2 0 1.5-.7h.4c.8.2 1.3-.7 2-.5.4-.6 1.3-.1 1.7-.8q.7 0 1.3-.3c.3-.2.7 0 1-.4h.6q.6.1 1-.4c.2-.2.8 0 1-.2.3-.4.7-.1 1-.3l1-.4 1-.4q.2.1.6-.1t.5-.3c.7.2 1-.6 1.7-.4q.5 0 .8-.3l1-.2q.3-.3.8-.3.7 0 1.1-.3c.3-.3.8 0 1-.4h.2c.6.1 1-.4 1.4-.5.5 0 1 .2 1.3-.3.3-.3 1 .1 1.2-.4.7.1 1.3-.6 2-.5m42.3 20.9h-.6l-.1-.2.1-.2q.6 0 1.2-.3c.1-.2.7 0 .8-.2l1-.5q.5-.5.9 0 0 .3.2 0c.4-.2.6-.8 1.2-.6.4 0 .6-.6 1-.4s.8-.5 1.2-.4q.8.2 1.3-.4h2q.3 0 .7-.3.5-.8 1.3-.5c.6.2.7-.6 1.3-.5q.6.3 1-.2.2-.2.4-.1c.9.2 1.6-.7 2.4-.5.3.1.5-.5.9-.3.4.1.6-.4 1-.4h1.2c.4 0 .6-.5 1-.5q.7.3 1.1-.2l.2-.1c.4-.1 1 .2 1.3-.2q.6-.5 1.1-.2c.5 0 .7-.6 1.3-.5h1.1c.5-.6 1.1-.3 1.7-.3.4-.1.7.5 1.2.4h1.4l.2.2-.1.1h-3.4q-.8 0-1.3.3c-.4.3-1 0-1.3.2q-.6.5-1.3.3-.7 0-1.2.4l-1.2.2q-.5.4-1 .2c-.7 0-1 .8-1.7.5-.3.6-1 .1-1.4.5s-.8.2-1.3.3-.5.5-1 .4q-.6-.2-1 .3h-.4c-.8-.2-1.3.6-2 .5l-1 .4q-.3-.1-.6.2l-.1.1H315c-.4 0-.6.6-1 .4-.7-.2-1 .3-1.5.4s-1-.1-1.3.4h-.4c-.8-.1-1.5.7-2.4.4q-.5.6-1.2.4c-.4.6-1 .4-1.5.5m26.6 43.2c0 .4.1.9-.6.8q-.2 0-.2.5t-.3.8a2 2 0 0 0-.5 1.2l-.4 1-.4 1.3c0 .4-.6.6-.4 1s-.7.7-.5 1.2q-.5.5-.4 1l-.1.4c-.2.5-.7.8-.6 1.4s-.6.8-.5 1.4c.2.4-.5.6-.3 1-.5.3-.4 1-.8 1.3q0 .8-.4 1.2c.2.6-.3 1-.5 1.5q-.4.5-.3 1.2-.6.5-.4 1.2l-.6 1.4q-1 .8-1.4 1.6-.6.9-1.3 1.5l-2.3 2.3-.5.5-.2.1c-.6 0-.7.8-1.3.8q-.4.1-.6.4h-.5q-.3-.4 0-.7t.7-.5q.6-.1 1.1-.5l1.9-1.4c.5-.5.6-1.3 1.2-1.7l1.6-1.6.5-1c-.2-.5.7-.6.5-1.2q.4-.4.5-1c.5-.3 0-1 .6-1.3 0-.6.7-.8.5-1.4-.1-.4.4-.5.4-.9s.5-.7.4-1.2.6-.5.4-1c.5-.2.2-1 .7-1.1q0-.8.5-1.4-.1-.8.4-1.3l.5-1.1c.4-.4 0-1 .3-1.1.4-.3.2-1 .7-1.1q0-.8.5-1.5-.1-.7.4-1.2l.8-1.5c-.3-.5.3-1 .4-1.4 0-.5.5-.3.8-.3zM214.9 608.2h1.2c.9.1 1.8-.3 2.6.4h4.4c.6 0 1.2.5 1.9.4h4c.6 0 1 .6 1.6.4h3.8q.4 0 .7.4h.3q.4-.1.7-.4.3.2.7-.1l.7-.3q.4-.5 1-.4c.6.2.8-.4 1.3-.4s1 .2 1.2-.3q.2 0 .3.2v.3c-.3.3-.8.2-1 .6-.7-.3-1.1.5-1.8.4-.4 0-.7.6-1.3.4q-.6 0-1 .4h-2q-.8-.4-1.8-.4h-4.2q-.6 0-1.1-.3-.2-.2-.8 0l-3.8-.1c-.6 0-1.3.3-1.8-.4h-4q-.7.2-1.5-.2c-.8-.4-1.2-.1-1.8-.2h-2v-.4zM344 533.6l.7.7.2.2.2-.4v-.2q-.1-.7.5-.6 1-.1 1.4-1c.4-.9.2-.6.5-.6h.2l.2-.2-.3-.2q-.3 0-.5-.2c.4-.6 1.1-.8 1.3-1.7l.5-.1q1-.8 1.4-2 .2-.8.9-1.4l.2-.3 1-2q0-.2.2-.2v.3q.3.5-.2.9-.5 1.6-1.3 3l-.7 1c-.2.2 0 .6-.4.8q0 .3-.3.7l-1.4 1.8q-1.7 1.5-3.2 3.3c-.4.4-1 .4-1.3.8l-1 .7-1.3.8-1.2.6h-.3v-.4c.2 0 .4-.4.5-.3l.8-.4q.6-.1.8-.5l.8-.5q.6-.2.6-1v-.3q.5-.5.5-1.1M278 492h-.8l-.2-.1.2-.2c.5-.1 1.1.2 1.5-.4h1.5c.4-.1.6-.6 1-.5q.8 0 1.1-.3h.2l2-.2c.5-.6 1.2-.2 1.8-.2s.9-.6 1.5-.5q.8.3 1.4-.4h2.4c.5-.7 1.3-.1 1.8-.4.9-.5 1.8-.3 2.7-.3.5 0 .6-.6 1.2-.5h1.4q.5-.4 1.2-.4l.2.1v.3l-.7.4q-.6-.2-1.1.2-.4.3-1 .2h-1.1c-.4 0-.6.5-1 .4H294c-.5.7-1.1.5-1.7.4-.7-.1-1.3.3-2 .4l-1.2.1q-.5.4-1 .3h-1.2c-.8.7-1.7.3-2.5.4-.6 1-1.8 0-2.4.8h-1.8c-.6-.1-.8.4-1.3.4zm68.8-53.3.3.2v.2c-.2.5-.6.9-.4 1.5-.7.2-.2 1-.6 1.3q-.5.6-.6 1.2c0 .6-1 .7-.8 1.4 0 .6-.7 1-.4 1.7l-.3.3q-.4.6-.5 1.1c0 .6-.5.8-.4 1.3l-.3.9-.7 1.3c-.5.4 0 1-.5 1.4q-.3.4-.5 1.2t-.8 1.2c.1 1.1-1 1.8-.8 2.9l-.1.2q-.7 1-1.2 2.3l-.3.1v-1c.7-.3.2-1 .7-1.5q.5-.5.5-1.2c0-.6.5-.9.5-1.4.4-.2.2-.9.7-1q-.1-.9.4-1.5.2-.7.6-1.2c.3-.3 0-.8.3-1l.4-.9c.4-.3.1-.7.3-1l1-1.8c.4-.5 0-1 .2-1.5s1-.7.8-1.3q0-.4.4-.7.5-.7.8-1.8.4-.7.4-1.5v-.3zm39.3-29.9.2.2v.8c-.7.3 0 1.2-.7 1.5.1.5-.6.7-.5 1.2-.6.3-.1 1-.5 1.4-.3.3-.2.8-.7 1q.3 1-.4 1.5c-.4.6-.2 1.4-.8 1.9.2.6-.3 1-.5 1.6l-.3.6v.4c-.7.9-.7 2-1.2 3-.6.2 0 1.1-.7 1.4 0 .5-.7.9-.5 1.4v.2q-.5.7-.8 1.5c.2.6-.5.9-.4 1.4l-.2.2q-.2 0-.2-.2c0-1.3 0-1.3.8-3 0-.4.5-.6.5-1.1q0-.7.4-1.2c.4-.4.2-1 .7-1.1q-.1-.8.4-1.3c0-.5.6-.8.5-1.4-.1-.4.4-.7.3-1.2l.4-.7c0-.4.6-.7.4-1.2s.6-.6.4-1c.5-.3.4-.8.7-1.2s0-1 .5-1.3c-.1-.7.4-1.2.6-1.8l.5-.8c.3-.3-.1-.8.2-1q.4-.4.3-1 .1-.5.6-.7"/><path d="M332.3 473.6v-1.8q0-.3.4 0 .1.3.2.1l.5-1-.1-.5q-.4-.4-.2-.6c.6-.4.2-1 .6-1.4q.5-.5.5-1.2c.2-.6.4-.2.6 0l.3-.2q0-.4-.3-.7-.2 0 0-.3h.2q.6-.1.3-.4-.4-.4-.1-.7c.5-.3 0-1 .5-1.4q.4-.4.6-1.1 0-.4.2-.3l.3.2.3-.2-.3-.6v-.3q.8 0 .8-.7l.3-.1q.2.6-.2 1.1c-.4.3 0 .8-.3 1q-.5.7-.7 1.6-.1.8-.7 1.5l-.2 1-.4.9c-.4.3-.2.8-.4 1l-.5 1-.6 1.3c0 .6-.5.8-.4 1.3l-.4 1c0 .7-.5.5-.8.5M400.4 368v-3.5l.1-.6q.6-.4 0-1c.5-.4 0-.7-.1-1l.2-.5q.2-.1 0-.3-.6-.6.2-1v-.4c-.5-.4-.2-.6 0-1v-1.3q0-.6.2-.7.4.2.2.8v1.2c0 .6-.3 1.2.3 1.7l-.1.2-.2.6v4.1c.6.3.3.8.4 1.3q0 .6-.3 1t-.1 1.2c.7.8.3 1.8.4 2.6q-.1.7-.7.9-.4 0-.5-.3zm-183.5 74.1-.1.2h-.2l-.5-.5c.1-.6-.6-.7-.4-1.3-.5-.2-.3-.8-.8-1l-.7-1.2-.7-1.5c-.5-.4-.5-1-1-1.4.1-.5-.5-.7-.4-1.2l-.6-1c-.3-.3-.2-.8-.6-1q0-.7-.5-.9t-.3-.9q0-.4-.4-.6-.5-.4-.4-1c0-.4-.6-.6-.4-1v-.2h.2l.4.4q.3.9.8 1.6t1 1.5l.9 2 1 2c0 .6.7.7.9 1.2q.1.6.5 1.2l1 2.1 1.2 2.1zm88.9 35.7q.1.9-.4 1.4-.4.6-.4 1.3c0 .3-.5.5-.4 1q0 .4-.3.7c-.5.9-.5 2-1.3 2.8q.1.8-.4 1.3c.1.5-.4.7-.5 1.2s-.8.7-1.3.5q-.3-.1 0-.2l.9-1.4c.3-.5 0-1.1.5-1.4-.2-.7.4-1 .5-1.6.5-.3.1-1 .4-1.2.4-.4.2-1 .7-1.2-.2-.5.6-.7.4-1.2.5-.2.3-.9.7-1.1l.5-1.6.3-.2.1.3zM386.3 375l1.2.2c.2.4.8.1 1 .3l1 .5c.3.4.8.2 1 .6q.2-.2.5-.2c.5.3.8 1 1.4 1q.9.2 1.8 0 .3 0 .2.3l-.3.2q-.7.2-.2.5l1.2.9q.7.4 1 1 .2 0 .3.4v.2q-.1.2-.3 0l-1-1q-.5-.5-1.2-.4l-2.7-1.5q-.7-.5-1.4-.6-.4 0 0-.3.2-.3 0-.3l-.3-.1q-1 .1-1.5-.6-.2-.3-.4-.2c-.7.3-1.3-.5-2-.4q-.4 0-.4-.3l.3-.1zm-97.5 45.3q-.3-.1-.4-.4l-1-2.2q-.9-.8-1.2-1.9-.6-.7-.8-1.8l-.1-.4q-.8-.6-1.1-1.6l-.8-1.6-1.4-2.8q-.2-.5-.2-1.1l.1-.1h.2q.2.8.7 1.5l.5 1q.6.2.5.8.7.9 1 2l1 2 1 2 1 2 1 1.9q.3.3.2.5v.2zm166.1 7.3-.8-.2-10.5-10.4v-.2q.5 0 .8.2zm-6.2 124.9c.6.1 1.2-.2 1.5.4h.2l2 .1c.5.6 1.2.3 1.8.3s.9.6 1.5.4h1.4c.5.7 1.3.4 2 .4.5 0 .7.6 1.2.5h1.2l.2.5-.3.2-.4-.3c-.9-.1-1.7.1-2.5-.5h-2c-.5-.7-1.2-.3-1.8-.3-.5 0-.8-.6-1.4-.5q-.8.2-1.4 0-.5-.5-.9 0c-.4-.7-1.2 0-1.6-.4-.5-.6-1.1-.2-1.6-.4l-.1-.2.1-.1zm20.2-72.1v-4.2l.3-.2q.4 0 .5.3v1.8l-.3.4q-.2.4 0 .7l.6.6-.3.6v4.6q-.1.3-.5.2l-.3-.1v-4.6M338 525.7q.4.3.3.5l-1.6 1.6q-.4.8-1.5 1.2l-.5.5c-.5.3-.7 1-1.4 1q-.5.6-1.3.9-.3.1-.7.7l-.2-.3q.1-.4-.4-.5-.3 0-.4-.3l.4-.1q.5 0 .9-.3l1.1-.5q1-.5 1.7-1.2c.3-.5 1-.4 1.3-.8l1.3-1.3zM470 469l-.5.6-.1.3c.5.4.3 1 .3 1.5q.1.5-.2 1c-.4.4.4.6.2 1v1.2q0 .5-.4.8-.1.3-.3.1l-.1-.1v-5.8c0-.2.4-.4.3-.6q-.1-.3-.5-.6l-.1-.1v-.2c.5-.4.2-1 .3-1.4l.2-.2h.2v1q0 .9.5 1.3zm-44.4-77.3v5.2l-.3.2q-.4 0-.5-.2c.1-.7-.3-1.4.3-2v-.2q-.6-.7-.2-1.5.4-.5 0-.7-.2-.1 0-.4.4-.4.3-1.2v-4.4l.2-.1.2.1zm-157.4 17.8q0-.6.5-.4l1 .7q.7.1 1 .5c.5-.1.7.4 1 .4.5 0 .6.6 1 .4q.5.5 1.1.4c.4 0 .6.6 1 .5l.2.1-.3.2q-.6-.1-.5.4-.4 0-.4-.3.1-.5-.5-.5l-.7-.1zm127.3-4.9-.3.1q-.3 0-.4.3l-.1 1.6q-.5.8-.7 1.5-.2.3-.7.2-.3-.4-.1-.6.5-.3.4-1c0-.4.5-.4.4-.8-.2-.5.3-.8.4-1.2 0-.4.7-.5 1-.3zm-5.4 14.1-.4-.4q-.3-.2 0-.3t.3-.5v-1q0-1 .5-1.7.4-.8.9 0 .2.2 0 .3h-.3q-.4 0-.2.3c0 .2.4.2.1.5h-.4l-.2.2.3.2h.2l.2.3q-.2.1-.3.4v.6l-.4.5-.1.5zm2.3-7q.6.6 0 .6t-.2.4l.2.5-.1.2h-.3q-.6-.6-.4-1.2.3-.7.8-1.3-.1-.7.4-1.2 0-.6.4-.8.1-.3.3 0v.3q-.1.6-.6 1.1v.3l.3.3zm-69.7 72.9q0 .3-.3.7t-.1 1c0 .4 0 1-.7 1l-.5 1c-.2 0 .1.5-.3.4l-.2-.7v-.2c.5-.2.4-.7.7-1.1.3-.3 0-1 .5-1.3 0-.5.6-.7.5-1.2l.3-.2zm-52.6 6.3q.5-.2 1 .2l.4.1h1c.2.7 1 .2 1.3.6l.7.3.1.1-.2.3c-.9.2-1.6-.5-2.4-.5-.2 0-.4-.4-.7-.3-.6.2-1-.4-1.6-.4l-.2-.3.3-.1zm-144 60.8v.6c-.6.3-.4 1-.9 1.3q0 .7-.4 1.2l-.6 1.4-.3.6-.1.1-.2-.1q-.1-.5.1-1 .3-.2.3-.6l.4-.7c.2-.4.6-.5.4-1s.4-.6.4-1 .5-.6.5-1l.3-.2zm337.6 12.5h-1.2q-.5-.6-1.2-.5h-2q-.3 0-.2-.4t.4-.3h.1q.5.4 1 .4h2.3c.6 0 1 .7 1.6.4h.1l-.1.3zm-247 17.6q0 .6-.4 1c.1.5-.5.6-.5 1s-.5.6-.3 1c.1.5-.4.7-.5 1s-.4.7-.4 1q0 .2-.2.1h-.1q-.2-.6 0-1c.4-.3.3-.7.6-1 .3-.2 0-.6.2-1l1-1.7.2-.5q.2-.5.3-.3zm191-161.3-1-.7c-.6-.7-1.6-.8-2-1.6v-.2q.5-.2.9 0c.6.4 1 1.1 1.8 1.3q0 .7.7.7v.1l.1.6-.3-.1zM278.8 610.6h-3.2l-.2-.3v-.3q.2-.3.3 0 .3.3.7.2l5.7.1q0 .2-.2.3zM178.2 421.5h.4q.3 0 .2.2l-.3.2q-.6-.1-1 .4c-.4.2-1 0-1.3.4-.2.2-.7 0-1 .3q-.7.4-1.5 0v-.2q.8.1 1.3-.4c.2-.2.8.1 1-.3l.4-.1c.7.1 1.1-.7 1.8-.5m259 112.7v3l-.2.1-.1-.1.1-6.3.2.1zm-23.6 7.3v-1.2l.3-.2q.4 0 .5.2v2.8l-.3.2q-.4 0-.5-.2zm-221-124.4h.4q.3 0 .2.2l-.1.2q-.6 0-1.3.4c-.2.2-.9-.1-1.1.4h-1.2q-.3.4-.8.4h-.6l.1-.3q.6-.1.8-.4.5-.2 1 0l.8-.5q.5.2.8-.1c.3-.4.7-.2 1-.3"/><path d="M179.4 421.5h-.4q-.3.1-.2-.1l.3-.2q.6.1 1-.4c.4-.2 1 0 1.3-.4.2-.2.7 0 1-.3q.8-.4 1.5 0v.2q-.8-.1-1.3.4c-.2.2-.8-.1-1 .3l-.4.1c-.7-.1-1.1.7-1.8.4m120.2 16.1q.4 0 .7.2l.1.2c.6-.2 1 .2 1.5.3l1 .1q.3.3.8.4l.1.1-.2.3q-.6 0-1-.2l-.5-.2q-.8.1-1.4-.4c-.6.3-1-.5-1.4-.4l-.3-.3.4-.1zm-35.8 111.6-.4.8-.1.8-.4.8q-.2.3-.5.1-.4-.1-.2-.6l.4-.4q.4-.4 0-.8v-.5l.7-.7q.3-.2.3 0l.1.3zM289 420.6v-.3l.3.2q0 .5.6 1l1 2v.4h-.2q-.4-.4-.5-.9-.1-.3-.6-.7c-.3-.2-.1-.6-.5-.8-.3-.2 0-.6-.1-1m122.2 2.7h-.6q-.6-.7-1.3-1.2t-1.2-1l-.1-.3h.6c.3.6 1 .7 1.5 1.2q.7.4 1.1 1.3M295 551.3h-2.2l-.1-.1.1-.3h4.8l.1.2-.1.2zm149.5-102.1-.8-.1q-.6-.8-1.5-1.2c-.6-.2-.7-1.1-1.5-1.1q-.9-.8-1.5-1.6.4-.1.8.1.6.7 1.5 1.2c.6.2.8 1 1.5 1q.9.8 1.5 1.7m5.2 4q-.6 0-1-.3 0-.2-.2 0v.8l-.3.3-.1-.2v-1.3q0-.5-.5-.5a2 2 0 0 1-1.1-1.2h.5l1.5 1q.8.6 1.2 1.4m6 4.8h-.6c-.6-.3-.8-1.2-1.7-1.2l-1.3-1.4v-.2h.6c.5.4.8 1.2 1.6 1.2l1.4 1.4zm-7.7 11.4v-3.8c0-.8 0-.8-.6-1.7v-.3q.8 0 .7-.7v-1.6h.2q.2 1.2.1 2.2 0 1.1.9 1.3.4.1.6.5.3 0 0 .2l-.1.1-.6-.2q-.8-.5-.7.5v8.3l-.2.1-.2-.1zm-.1 15.4v-4.2l.2-.1.3.1v8.8l-.2.2-.2-.2zm.5-26.6v2.4l-.3.1-.1-.1v-5.2l.2-.1.2.1zm-12.9-15.8q-.4 0-.7-.2-.6-.8-1.5-1.1c-.6-.2-.8-1.1-1.6-1.1l-1.4-1.6q.4-.1.8.1.5.7 1.5 1.2c.6.1.7 1 1.5 1q1 .8 1.4 1.7"/></g></svg>