<svg xmlns="http://www.w3.org/2000/svg" xml:space="preserve" id="Layer_1" x="0" y="0" viewBox="8 174 586 204"><style>.st0{fill:#143a6e}</style><path d="M185.5 224.6q-.9-.3-.7-1.2.6.4.6 1.2m-94.9-34.3.2.1-.2.2zM137 322.4q0-.2.3 0v.3zm281.8 14.1q-2.5-1.4-5.3-1.3h-8.1c-1.3 0-1.3 0-1.3 1.2v19.7c0 1.5 0 1.5-1.5 1.5H376v1.1h33.5q1.3 0 1.1-1.2V351c0-1.9-.3-1.8 1.9-1.8q3.1.3 6-1a6 6 0 0 0 3.6-5.8q.1-4-3.3-5.8m-.3 10.3q-2.1 1.3-4.7 1.3l-3.2-.1q-1.2-.1-1.1 1v7.2c0 1.4 0 1.4-1.5 1.4-2.9 0-2.9 0-2.9-2.8v-17.1c0-1.4 0-1.5 1.4-1.5q4.4-.1 8.6.2 1.8.3 3.4 1.2c3.5 2.1 3.5 7 0 9.2" class="st0"/><path d="m412.3 337.7-1.7-.1q-1.2-.1-1 1v6.8c0 1.3 0 1.3 1.2 1.4 2 .2 3.9-.2 5-2.1 1.7-3.1 0-6.5-3.5-7m.7 7.9c-1.9.5-2.4.1-2.4-1.8V340c0-1.1.1-1.2 1.3-1.1q3.4.1 3.4 3.4-.1 2.6-2.3 3.4m32.6-10.6h-4c-1.5 0-1.5 0-1.5 1.4v6.8c0 1.3 0 1.4-1.3 1.4h-5c-1.6 0-1.6 0-1.6-1.5v-7q.2-1-.8-1h-5q-.8 0-.8.7v21.9q0 1 .9 1h4.8q1 0 1-1V349q-.1-.9.7-.9h6.3q.8 0 .8.8v8.5c0 1.2 0 1.3 1.2 1.3h3.8c1.6 0 1.6 0 1.6-1.5v-21.1q.1-1.2-1-1m0 21c0 1.5 0 1.5-1.6 1.5-2.8 0-2.8 0-2.8-2.8v-6.6q0-1.2-1-1.1h-7.9c-1.2 0-1.2 0-1.2 1.3v7.8c0 1.4 0 1.4-1.4 1.4-3 .1-3 .1-3-2.8v-17.3c.1-1.2.1-1.2 1.3-1.2 3.7 0 3-.6 3 3v5.2q-.2 1.3 1.2 1.3h8q1.1 0 1-1.2v-7c0-1.3 0-1.4 1.2-1.3 3.9 0 3.1-.6 3.2 2.9zm17.6-19.9c-.2-.5-.3-1.2-.8-1.2q-1.5-.3-2.9-.1c-.7 0-.8.9-1 1.4l-7 14.9-3.7 7.5h4.6q1 0 1.2-.9l1.8-4q.4-1 1.7-1.1h5.7q1.2-.1 1.6 1l1.8 4.2q.3.9 1.3.9h4.7q.6.2 1-.4l-2.2-5.1zm8.4 21.3-.5.1c-1.3 0-2.7.4-3.7-.1s-1-2-1.6-3.1c-1.6-3.4-.5-2.7-4.3-2.8h-5.2q-1 0-1.5.9l-1.7 3.8q-.5 1.7-2.2 1.4l-1-.2q.1-.9.5-1.4l8.8-19c.3-.5.4-1.2 1.2-1.2 1.1-.1 1.4 0 2 1.1l4.8 10.7 4 8.6q0 .5.4 1.2" class="st0"/><path d="M456.1 350.1h7.9l-4-8.6zm5.2-1H458q.2-1.4.8-2.4l1.2-2.5q1.3 2.4 2.3 4.8zm26.4-7.7a4 4 0 0 0-3.3-3.6l-2.7-.2q-1.1-.1-1 1v5.1c0 3.2 0 3.2 3.2 2.7q.6 0 1.3-.4 2.7-1.3 2.5-4.6m-1.5 2.2c-.6 1.2-2.7 2.1-4 1.8q-.6-.2-.5-.8v-5.1q-.1-.5.5-.8c1-.2 3 .3 3.7 1.2q1.3 1.7.3 3.7m37.8-8.5h-4.2q-1.4 0-1.7 1.1l-.8 1.7q-3 5.6-6 11.8l-1-2.1-5.8-11.4c-.3-.5-.4-1-1.2-1h-4.9q-.9 0-.8.8v19.3c0 1.1-.5 2.5.3 3.3s2.2.2 3.3.2c1.2 0 1.2 0 1.2-1.2v-9.4q-.2-.7.4-1.2l1 1.4 4.6 9.3c.5 1 1.2 1 2.2 1 .9 0 1.5 0 2-1l4.7-9.6q.1-.7 1-1.3v10.9q-.2.9.7 1h5.1q.8 0 .7-.7v-22q0-1-.8-.9m-.2 2.8v18c0 1.8.2 1.8-1.6 1.8-2.8 0-2.8 0-2.8-2.8v-12.4c-.8 0-.8.6-1 1l-6.6 13q-.1.8-1 1.2-1.2.2-1.6-1l-5.1-10-1.8-3.6q-.2-.6-.8-.7l-.1 1.6v12.3c0 .4.2 1-.4 1.3q-1 .3-2 0-.3 0-.3-.6v-19.2c0-1.5 0-1.6 1.6-1.5 3.7 0 2.6-.7 4.3 2.7l6 11.8q.1.7.9 1l5.6-11.1 1.9-3.6q.3-.9 1.3-.9h2.7q.9 0 .8.9z" class="st0"/><path d="M490.7 347a6.2 6.2 0 0 0-.7-10.6 9 9 0 0 0-4.2-1.2h-9.7q-1-.1-1 1V357c0 1.6-.2 1.7 1.9 1.7h3.2c1.5 0 1.5 0 1.5-1.5v-6.6q-.1-.9.3-1.7.8.4 1.1 1.2l5.5 7.5q.4.9 1.3 1h6.9L489 348zm4 10.6h-4.2q-1-.1-1.3-1-3-4-5.7-8-.4-.5-1-.9-1.8-.6-1.9 1.4v7.3c0 1.2 0 1.2-1.2 1.2H477q-.8 0-.8-.8v-19.2c0-1.3 0-1.4 1.4-1.4q4.5-.1 8.9.2 1.3.2 2.6.8 2.8 1.1 3.1 4 .3 3.3-2.5 5l-2.3 1.3zm39.6-7.5h7.8l-3.8-8.6zm1.7-1 2.2-5 2.2 5z" class="st0"/><path d="M551.9 357.6q-.9-.1-1.2-1l-1.4-3.1-7.8-17.3q-.2-1-.8-1.3h-2.9c-.7 0-.8.9-1 1.4l-10 21.2q-.5.4-.3 1.2h4q1.1.1 1.5-1l1.7-3.9q.3-1.1 1.6-1h5.8q1.1-.1 1.5 1 1 2 1.8 4.1.4.9 1.2.8h6.3v.2H579v-1.3zm-2.3 0h-3.5q-.6 0-1-.8l-1.8-4.2q-.4-1.1-1.6-1h-7q-1.2 0-1.7 1l-1.6 3.8q-.5 1.5-2 1.3l-1-.1q-.2-.7.1-1.1l9.1-19.4q.3-1.2 1.6-1.2.9 0 1.3.8l1.3 3 7.4 16.3q.5.6.4 1.6M517 314.3c0 1.3 0 1.3 1.2 1.3h13.4a25 25 0 0 0 7.9-1.2q5.1-1.7 7-6.7a16 16 0 0 0 0-10 10 10 0 0 0-6.5-6.9q-3.2-1-6.5-1h-15.3c-1.4 0-1.4 0-1.4 1.4v11.4h.1zm1-22c0-1.3 0-1.4 1.2-1.4h15.1q2.6 0 5 1a9 9 0 0 1 6.3 6.7 15 15 0 0 1 0 8.2q-1.5 4.5-5.8 6.3-3.3 1.3-6.8 1.3h-13.8c-1.2 0-1.2 0-1.2-1.2z" class="st0"/><path d="m509.3 322.9 25-.1a32 32 0 0 0 7.7-1 18 18 0 0 0 13.7-13.8q.9-4.2.3-8.4c-.8-7.2-4.3-12.6-11.3-15.2q-.5.1-.6-.6h29v-1h-63.9c-1.1 0-1.2 0-1.2 1.3v37.5c0 1.2 0 1.3 1.3 1.3m-.1-37.5c0-1.6 0-1.6 1.6-1.6h22.5q5 0 10 1.3 9 2.7 11.1 11.9a23 23 0 0 1 0 11q-2.5 10.4-12.8 12.8-4.3 1-8.6 1h-22.3c-1.5 0-1.5 0-1.5-1.6zm-264.8 22h19.2l-9.6-17.6q-5 8.9-9.6 17.6m2-1.2 7.6-14 7.6 14zm-22.2-21.4v-1q0-1.1-1-1h-5q-1.7-.2-2.7 1.2L200 304l-1.7 2.2-3.5-4.6-13.7-17.7c-.3-.5-.6-1.2-1.4-1.2H173q-.9 0-.7.9v37.9c0 1.3 0 1.3 1.3 1.4h5q1.1-.1 1 .5v21.7h1.1v-25.5l.1-22.1a6 6 0 0 1 1.5 1.6l13.5 17.7q.8 1.3 2.3 1.3 1.5-.2 2-1.3l14-18.5c.2-.3.3-.8 1-.7v23.8c0 1.4 0 1.5 1.4 1.5h6.4c1.3 0 1.3 0 1.4-1.3v-36.8m-3 37h-4q-1.3 0-1.1-1.2V294c-.8.6-1 1.1-1.4 1.6l-15.3 20.2-.5.7q-1 1.3-2 0l-2.7-3.4-13.7-18.2q-.2-.5-.8-.7-.3.8-.2 1.7v24.5c0 1.5 0 1.5-1.4 1.5h-4q-1 0-.8-1v-35.1c0-2-.2-1.9 1.8-1.9h1.5c2.3-.4 3.7.7 5 2.5l15.7 20.5 1 1c.6-.1.8-.8 1.2-1.2l16.5-21.4q1-1.5 2.6-1.4h3.6q1 0 1 1V320c0 2 0 1.9-2 1.9" class="st0"/><path d="m274.8 310.5-15.2-26.7q-.6-1.2-1.9-1h-6.6q-1.5-.2-2.2 1.1l-21 37.7q-.6.4-.4 1.2h8.5q1.4.1 2-1.1l3.4-6.5q.6-1 1.7-1h21.6q1.4 0 1.9 1.1l3.6 6.6q.3 1 1.4 1h10.2l-1-1.8zm4.3 11.2h-7.2q-.8-.1-1-1-1.9-3-3.6-6.5-.6-1.2-2-1.1h-22.6q-1.4 0-2.1 1.2l-3.3 6.2q-.6 1.3-2.1 1.3h-5.9q.2-1.1.6-1.6l19.5-34.8q.8-1.8 2.6-1.6 2.2.2 4.6 0 1.6-.1 2.4 1.4l12.7 22 7.2 12.7.6 1q.3.8-.4.8m103.3-5.9q.4-4.7.1-9.3 0-1.8-.6-3.5a6 6 0 0 0-4.3-4.3q-2.2-.6-4.5-.6h-23.2c-1.8 0-1.7.1-1.7-1.8V292c0-1.4 0-1.4 1.5-1.4H372q1 0 1 .8v2.6c0 1 0 1.1 1 .9l7-1.6q1.1-.3 1-1.3-.1-1.8-.5-3.6a6 6 0 0 0-4.8-5.1q-2.6-.7-5.2-.6H350q-2.4 0-4.8.4-5 1.2-5.8 6.2a44 44 0 0 0 .3 12.2 6 6 0 0 0 4.3 4.4q2.4.7 4.9.6h23.3q1.2-.1 1.2 1.2v5.7c0 1.2-.1 1.2-1.3 1.3h-23.5c-1.9 0-1.8.2-1.8-2v-2.1q0-.8-.7-.6l-7.7 1.6q-.7 0-.7.9 0 2.6.5 5 1 3.6 4.5 4.7 2.2.7 4.6.7h25.1l3.3-.3c4-.7 6-2.7 6.6-6.8m-5.9 5.5q-2.1.5-4.4.5h-24.3q-2.1 0-4.2-.6-3.5-.9-4.2-4.3-.4-1.7-.4-3.4 0-1 .8-1l5-1.1q1-.3 1 .8v2.7q0 .9.9.9h27q.9 0 .9-.9v-8.6q0-1-1-1h-23.1l-4.4-.1q-4.9-.5-5.5-5.3a39 39 0 0 1 0-10.3q.5-4.2 4.8-5.3 2-.5 4.2-.5H372q2 0 3.9.5 4.1 1 4.7 5c.4 2.8.4 2.8-2.3 3.5l-3.6.8h-.6v-3.2q0-1-1-1h-24.6c-1.4 0-1.5 0-1.5 1.4v7c0 1.4 0 1.4 1.5 1.4l27 .2c3.4.5 5.3 2 5.6 5.4q.8 6 0 11.9-.7 3.7-4.6 4.6m-48.2-18.2a6 6 0 0 0-4.4-4.4q-2.2-.6-4.6-.6h-23.7q-1 0-1-1V292c0-1.4 0-1.4 1.4-1.4h22.1q1.4-.1 1.2 1.1v3.3q4.4-.7 8.4-1.8.8-.2.6-1 0-1.8-.4-3.7a6 6 0 0 0-4.8-5.2q-2.4-.6-4.9-.6H296l-3.6.3q-6.2 1-6.7 7.3a62 62 0 0 0 .4 10.7 6 6 0 0 0 4.8 5q2.4.5 4.7.5H319q1 0 .9 1v6.2q0 1-.9 1h-24.5q-1.1 0-1-1.1v-2.8q0-1-1-.8l-7.2 1.5q-1 .1-1 1.1 0 2.4.5 4.8a7 7 0 0 0 4.7 4.9q2.3.6 4.5.6h25.4q2.1 0 4.3-.6 4.1-1 4.9-5.1 1-6.6 0-13.2zm-.8 13.3q-.6 4-4.6 5-1.8.3-3.8.4h-25q-2.3 0-4.5-.7-2.9-.9-3.7-3.7a14 14 0 0 1-.5-3.9q0-1 .8-1l6-1.3v3.5q-.1 1.1 1 1H320q.9 0 .9-.7v-8.7q0-1-1-.9h-24.6q-2.1 0-4.2-.6-3.3-.9-4-4.2-.4-1.4-.3-2.9c0-2.8-.3-5.7.3-8.6q.7-3.7 4.3-4.7 2.2-.6 4.6-.6h22.4q2.3 0 4.4.6 3.3 1 4 4.4c.8 3.3.7 3.4-2.6 4q-1.8.6-3.7.8-.2-1.7 0-3.3 0-.8-.8-.8h-24.9c-1.2 0-1.3 0-1.3 1.3v7.2c0 1.1 0 1.2 1.3 1.2h17q4.8-.2 9.5.2l1.5.2q4.2 1 4.7 5.1.6 6 0 11.7m64.7-.1q.8 5.2 6 6.2 1.8.4 3.8.4h29.4q2.4 0 4.7-.7a6 6 0 0 0 4.4-4.7q.4-2 .4-4V292a15 15 0 0 0-.4-3.7q-.9-3.7-4.5-4.9-2.4-.7-4.9-.7h-22.4c-3.7 0-7.4-.3-11 .6q-3.9.8-5.2 4.2-.7 2.4-.6 4.9v20zm.9-24.2q-.1-1.8.4-3.7.8-3 3.8-3.9 2.4-.6 4.7-.7h29.1q2.3 0 4.4.6 3.1 1 4 4.3l.3 3v22q.1 1.8-.4 3.5-.7 3-3.7 4-2.4.6-5 .6h-28.5q-2.2 0-4.5-.6-3.3-.9-4.1-4.3l-.5-3.4a424 424 0 0 1 0-21.4" class="st0"/><path d="M400.7 314.5q0 1.3 1.2 1.1h28.8c1.5 0 1.5 0 1.5-1.4v-23c0-1.4 0-1.4-1.6-1.4h-28.7q-1.3-.2-1.2 1zM403 291h26.6c1.2 0 1.3 0 1.3 1.2v21c0 1.3 0 1.4-1.4 1.4H403c-1.3 0-1.3 0-1.3-1.3V292c0-1.1 0-1.2 1.3-1.2m49 26.2a7 7 0 0 0 5.1 5.4q1.9.4 3.7.4h26.5a15 15 0 0 0 4.2-.6q3.7-1 4.7-5 .4-1.5.4-3.4v-29.6c0-1.4 0-1.4-1.4-1.4h-6.3q-1 0-1.1-.8v-33.2h-1.1v64.9q0 .9-.8.8h-22.3c-2.4 0-2 .2-2-2.1v-28.2c0-1.4 0-1.4-1.4-1.4H453c-1.4 0-1.4 0-1.4 1.3v29q0 2 .4 4m2.1-33.2h4.8c1.5 0 1.5 0 1.5 1.5v28.9c0 1.4 0 1.4 1.4 1.4h24.5c1.5 0 1.5 0 1.5-1.5v-29.6c0-.8.4-.6 2.2-.6h4.5q1-.1 1 1v27l-.3 4q-.5 4.8-5.2 5.5l-3.4.3h-25q-2.3 0-4.6-.6a5 5 0 0 1-3.7-3.7 16 16 0 0 1-.6-4.2v-28c0-1.4 0-1.4 1.4-1.5m-200.2-93.2q-3.3-1.6-6.9-1.6h-74.6q-1.8 0-1 1.5l1.7 3 11.1 20.6q.9 1.8 2.8 1.7h25.4l2.5.2c2.3.7 3.8 3 3.4 5.4a8 8 0 0 1-1 2.7l-9.4 17.1-3.8 7.2q-.6 1.1-1.7 1h-55.6q-1.5-.2-2.4 1.2L133 272l-9.8 18-10.6 19.8q-1 1.8-1.2 3.7a8.7 8.7 0 0 0 8.9 9.3h12.2q2.3.1 4.6-.4 0-.2.3-.1v.7L116 362.2l1.3.7 26.4-48.6 18.5-34.1q.6-1.4 2.2-1.4h55.3q1.4.2 2.3-1.1l19.8-36.5 13.2-24.3 4.8-8.8c2.9-5 1.5-14.2-5.8-17.5m4.5 16.8-7 13-12 21.8-18.2 33.6q-.7 1.7-2.7 1.6h-54.4q-2.3-.2-3.2 1.8l-10 18.6-10.3 19q-1.6 3.5-5.5 4.6l-1.7.1h-13a7.5 7.5 0 0 1-7.6-7.8q0-1.8 1-3.3l9.4-17.6 11.9-21.8 10-18.6q.9-1.6 2.7-1.5H202c1.8 0 2.7-.5 3.5-2l13.3-24.4c1.2-2.2 1.6-4.5.4-6.8a6 6 0 0 0-4.5-3.3l-2.7-.2h-24.4q-1.5 0-2.2-1.2l-11.6-21.4q-.8-1.2.6-1h72.9q5.1 0 9 3.4a12 12 0 0 1 2.1 13.4" class="st0"/><path d="M190 233q-1.6-3.9-4-7.4 0-.6-.6-1-.7-.3-.6-1.2l-7.2-13.5-8.4-15.5a10 10 0 0 0-9.3-5.4h-19.2q-6.8 0-10 6l-3.2 6.2q-.3.7-1 1.3-.8-.8-1.2-1.8l-3.6-6.6a9 9 0 0 0-8.2-5l-17.3.1H48v1.3h42.6a16 16 0 0 0-4 5l-11.7 21.3-4.8 9.1-.5.9-9 16.7-18.4 33.8-10 18.3-7.9 14.7c-2.9 5.3 1.4 12.6 7.6 12.6h14q4.8 0 7.3-4.2l1.9-3.3 29-53.2 21.5-39.4q.2-.7.8-1 .7.5 1 1.3l3.3 6.3q.8 1.4 0 2.8l-10.1 18.4-13.2 24.2q-9.4 17.6-19 35c-3.1 5.8 1.2 13.3 8 13H89a9 9 0 0 0 8.6-5l6-10.9 19.5-35.8 22.9-42 4-7.5q.6.3.8 1l5 9.1q2.3 4.5 5 9a8 8 0 0 0 6 4.2q8.1.5 16.2 0h.1c5.6-1 9-6.8 6.8-12m-3.5 8.9a7 7 0 0 1-4.8 1.7h-13.3q-4.2 0-6.5-4l-10.5-19.2c-.3-.6-.4-1.5-1.2-1.4-.7 0-.8.8-1.1 1.3l-14.6 27.1-17.3 31.6-13.1 24.2-7.7 14q-2.3 4.5-7.5 4.4H76.7q-6.4-.2-7.8-6.4-.4-2.3.8-4.5l5.1-9.5 12.3-22.6 21.6-39.9 3.8-6.8q.7-1.1 0-2.2l-5.2-10c-.7-1.1-1-1.1-1.7.1L97.4 235 75 275.8l-14.9 27.3-7.7 14.2q-2.5 4.4-7.6 4.3H32.4a7.5 7.5 0 0 1-7.6-8q.1-1.6 1-3.1l15.3-28.1L54.9 257l14-25.8 2-4.1q.7-.6 1-1.4l9.4-17.2 7-13q2.5-4.6 7.6-5h17a8 8 0 0 1 7.6 4.5l5 9.1c.2.5.2 1.4 1 1.4.7 0 .8-.8 1-1.3l4.7-8.7q1.8-3.5 5.5-4.7l2.4-.3h20q5.1 0 7.7 4.5l4.3 7.9 12.7 23q1.5 3.3 3.3 6.4c1.9 3.5 1.3 7-1.6 9.5" class="st0"/></svg>